G04 EAGLE Gerber RS-274X export*
G75*
%MOMM*%
%FSLAX34Y34*%
%LPD*%
%INSoldermask Top*%
%IPPOS*%
%AMOC8*
5,1,8,0,0,1.08239X$1,22.5*%
G01*
%ADD10C,1.127000*%
%ADD11R,5.727000X5.727000*%
%ADD12R,0.377000X0.827000*%
%ADD13R,0.827000X0.377000*%
%ADD14R,0.377000X0.927000*%
%ADD15R,0.927000X0.377000*%
%ADD16R,1.877000X1.877000*%
%ADD17R,1.077000X0.577000*%
%ADD18R,0.727000X0.727000*%
%ADD19R,0.977000X2.327000*%
%ADD20R,1.127000X1.177000*%
%ADD21R,0.527000X0.877000*%
%ADD22R,0.627000X0.677000*%
%ADD23R,0.787400X0.482600*%
%ADD24R,0.482600X0.787400*%
%ADD25R,0.600000X0.400000*%
%ADD26R,1.277000X0.677000*%
%ADD27R,1.327000X0.677000*%
%ADD28R,1.227000X1.127000*%
%ADD29C,0.305338*%
%ADD30R,1.027000X0.927000*%
%ADD31R,1.905000X1.905000*%
%ADD32C,2.125981*%
%ADD33C,1.397000*%
%ADD34R,0.377000X0.727000*%
%ADD35C,1.270000*%
%ADD36C,1.627000*%


D10*
X190500Y320675D03*
X12700Y9525D03*
D11*
X113030Y135890D03*
D12*
X85530Y101890D03*
X90530Y101890D03*
X95530Y101890D03*
X100530Y101890D03*
X105530Y101890D03*
X110530Y101890D03*
X115530Y101890D03*
X120530Y101890D03*
X125530Y101890D03*
X130530Y101890D03*
X135530Y101890D03*
X140530Y101890D03*
D13*
X147030Y108390D03*
X147030Y113390D03*
X147030Y118390D03*
X147030Y123390D03*
X147030Y128390D03*
X147030Y133390D03*
X147030Y138390D03*
X147030Y143390D03*
X147030Y148390D03*
X147030Y153390D03*
X147030Y158390D03*
X147030Y163390D03*
D12*
X140530Y169890D03*
X135530Y169890D03*
X130530Y169890D03*
X125530Y169890D03*
X120530Y169890D03*
X115530Y169890D03*
X110530Y169890D03*
X105530Y169890D03*
X100530Y169890D03*
X95530Y169890D03*
X90530Y169890D03*
X85530Y169890D03*
D13*
X79030Y163390D03*
X79030Y158390D03*
X79030Y153390D03*
X79030Y148390D03*
X79030Y143390D03*
X79030Y138390D03*
X79030Y133390D03*
X79030Y128390D03*
X79030Y123390D03*
X79030Y118390D03*
X79030Y113390D03*
X79030Y108390D03*
D14*
X85210Y248390D03*
X90210Y248390D03*
X95210Y248390D03*
X100210Y248390D03*
D15*
X107210Y255390D03*
X107210Y260390D03*
X107210Y265390D03*
X107210Y270390D03*
D14*
X100210Y277390D03*
X95210Y277390D03*
X90210Y277390D03*
X85210Y277390D03*
D15*
X78210Y270390D03*
X78210Y265390D03*
X78210Y260390D03*
X78210Y255390D03*
D16*
X92710Y262890D03*
D17*
X136320Y285900D03*
X136320Y279400D03*
X136320Y272900D03*
X158320Y272900D03*
X158320Y279400D03*
X158320Y285900D03*
D18*
X135810Y299085D03*
X125810Y299085D03*
X135255Y260270D03*
X135255Y250270D03*
X171450Y269320D03*
X171450Y279320D03*
D19*
X157700Y238760D03*
X185200Y238760D03*
D20*
X171450Y254010D03*
X171450Y223510D03*
D18*
X37385Y24765D03*
X27385Y24765D03*
D21*
X40155Y57145D03*
X33655Y57145D03*
X27155Y57145D03*
X27155Y40645D03*
X40155Y40645D03*
D18*
X40560Y69850D03*
X30560Y69850D03*
X156130Y24130D03*
X146130Y24130D03*
X158830Y299085D03*
X168830Y299085D03*
X166290Y209550D03*
X156290Y209550D03*
X179705Y178515D03*
X179705Y188515D03*
X160655Y178515D03*
X160655Y188515D03*
X170180Y178515D03*
X170180Y188515D03*
X179705Y153750D03*
X179705Y163750D03*
X160655Y153750D03*
X160655Y163750D03*
X170180Y153750D03*
X170180Y163750D03*
X68580Y82470D03*
X68580Y72470D03*
X87630Y82470D03*
X87630Y72470D03*
X78105Y82470D03*
X78105Y72470D03*
X97155Y82470D03*
X97155Y72470D03*
X116205Y82470D03*
X116205Y72470D03*
X106680Y82470D03*
X106680Y72470D03*
X47070Y92075D03*
X57070Y92075D03*
X57070Y101600D03*
X47070Y101600D03*
X34925Y200105D03*
X34925Y210105D03*
X44450Y190420D03*
X44450Y180420D03*
X63500Y190420D03*
X63500Y180420D03*
X53975Y190420D03*
X53975Y180420D03*
X57070Y111125D03*
X47070Y111125D03*
X57070Y120650D03*
X47070Y120650D03*
X57070Y139700D03*
X47070Y139700D03*
X57070Y130175D03*
X47070Y130175D03*
D22*
X32370Y158420D03*
X32370Y148920D03*
X46370Y148920D03*
X46370Y158420D03*
D18*
X63420Y167640D03*
X53420Y167640D03*
X33100Y167640D03*
X43100Y167640D03*
X55960Y157480D03*
X65960Y157480D03*
X63500Y200105D03*
X63500Y210105D03*
X53975Y200105D03*
X53975Y210105D03*
X44450Y200105D03*
X44450Y210105D03*
X95250Y181690D03*
X95250Y191690D03*
X95250Y212170D03*
X95250Y222170D03*
X105330Y201930D03*
X95330Y201930D03*
D23*
X95250Y230632D03*
X95250Y239268D03*
D18*
X76915Y308610D03*
X86915Y308610D03*
X86915Y298450D03*
X76915Y298450D03*
X74295Y226775D03*
X74295Y236775D03*
X74295Y207090D03*
X74295Y217090D03*
D24*
X59182Y265430D03*
X67818Y265430D03*
D18*
X50165Y267255D03*
X50165Y257255D03*
X40640Y267255D03*
X40640Y257255D03*
D24*
X89027Y287655D03*
X97663Y287655D03*
X98552Y298450D03*
X107188Y298450D03*
X144018Y187960D03*
X135382Y187960D03*
X144018Y238760D03*
X135382Y238760D03*
D25*
X135255Y209360D03*
X135255Y217360D03*
D18*
X116205Y289005D03*
X116205Y299005D03*
X64135Y287575D03*
X64135Y277575D03*
X53975Y287575D03*
X53975Y277575D03*
X43815Y287575D03*
X43815Y277575D03*
X118745Y243285D03*
X118745Y253285D03*
X118745Y267415D03*
X118745Y277415D03*
X31115Y267255D03*
X31115Y257255D03*
X179705Y142160D03*
X179705Y132160D03*
X160655Y142160D03*
X160655Y132160D03*
X170180Y142160D03*
X170180Y132160D03*
D26*
X41300Y306895D03*
X41300Y298895D03*
X60300Y298895D03*
X60300Y306895D03*
D18*
X166450Y24130D03*
X176450Y24130D03*
D27*
X28274Y246355D03*
X28274Y236855D03*
X28274Y227355D03*
X54276Y227355D03*
X54276Y246355D03*
D18*
X118745Y228520D03*
X118745Y218520D03*
X118745Y194390D03*
X118745Y204390D03*
X87550Y49530D03*
X77550Y49530D03*
D28*
X151520Y39370D03*
X168520Y39370D03*
D18*
X64770Y49450D03*
X64770Y39450D03*
D29*
X98211Y41681D02*
X106929Y41681D01*
X98211Y41681D02*
X98211Y45899D01*
X106929Y45899D01*
X106929Y41681D01*
X106929Y44581D02*
X98211Y44581D01*
X98211Y32181D02*
X106929Y32181D01*
X98211Y32181D02*
X98211Y36399D01*
X106929Y36399D01*
X106929Y32181D01*
X106929Y35081D02*
X98211Y35081D01*
X98211Y22681D02*
X106929Y22681D01*
X98211Y22681D02*
X98211Y26899D01*
X106929Y26899D01*
X106929Y22681D01*
X106929Y25581D02*
X98211Y25581D01*
X124211Y22681D02*
X132929Y22681D01*
X124211Y22681D02*
X124211Y26899D01*
X132929Y26899D01*
X132929Y22681D01*
X132929Y25581D02*
X124211Y25581D01*
X124211Y32181D02*
X132929Y32181D01*
X124211Y32181D02*
X124211Y36399D01*
X132929Y36399D01*
X132929Y32181D01*
X132929Y35081D02*
X124211Y35081D01*
X124211Y41681D02*
X132929Y41681D01*
X124211Y41681D02*
X124211Y45899D01*
X132929Y45899D01*
X132929Y41681D01*
X132929Y44581D02*
X124211Y44581D01*
D30*
X133510Y75540D03*
X133510Y56540D03*
X154510Y66040D03*
D18*
X64690Y29210D03*
X54690Y29210D03*
X87550Y39370D03*
X77550Y39370D03*
X87550Y29210D03*
X77550Y29210D03*
X53340Y58340D03*
X53340Y48340D03*
X53340Y68660D03*
X53340Y78660D03*
X25400Y293450D03*
X25400Y303450D03*
D31*
X0Y279400D03*
D32*
X-5080Y279400D03*
D31*
X0Y254000D03*
D32*
X-5080Y254000D03*
D31*
X0Y228600D03*
D32*
X-5080Y228600D03*
D31*
X0Y304800D03*
D32*
X-5080Y304800D03*
D31*
X0Y203200D03*
D32*
X-5080Y203200D03*
D31*
X0Y177800D03*
D32*
X-5080Y177800D03*
D31*
X0Y152400D03*
D32*
X-5080Y152400D03*
D31*
X0Y127000D03*
D32*
X-5080Y127000D03*
D31*
X0Y101600D03*
D32*
X-5080Y101600D03*
D31*
X0Y76200D03*
D32*
X-5080Y76200D03*
D31*
X0Y50800D03*
D32*
X-5080Y50800D03*
D31*
X0Y25400D03*
D32*
X-5080Y25400D03*
D31*
X203200Y25400D03*
D32*
X208280Y25400D03*
D31*
X203200Y50800D03*
D32*
X208280Y50800D03*
D31*
X203200Y76200D03*
D32*
X208280Y76200D03*
D31*
X203200Y101600D03*
D32*
X208280Y101600D03*
D31*
X203200Y127000D03*
D32*
X208280Y127000D03*
D31*
X203200Y152400D03*
D32*
X208280Y152400D03*
D31*
X203200Y177800D03*
D32*
X208280Y177800D03*
D31*
X203200Y203200D03*
D32*
X208280Y203200D03*
D31*
X203200Y228600D03*
D32*
X208280Y228600D03*
D31*
X203200Y254000D03*
D32*
X208280Y254000D03*
D31*
X203200Y279400D03*
D32*
X208280Y279400D03*
D31*
X203200Y304800D03*
D32*
X208280Y304800D03*
D33*
X82550Y9525D02*
X31750Y9525D01*
X120650Y9525D02*
X171450Y9525D01*
X171450Y320675D02*
X120650Y320675D01*
X82550Y320675D02*
X31750Y320675D01*
D34*
X176410Y107230D03*
X171410Y107230D03*
X166410Y107230D03*
X161410Y107230D03*
X161410Y80730D03*
X166410Y80730D03*
X171410Y80730D03*
X176410Y80730D03*
D18*
X177800Y68500D03*
X177800Y58500D03*
X167640Y68500D03*
X167640Y58500D03*
D10*
X449580Y320675D03*
X271780Y9525D03*
D11*
X372110Y135890D03*
D12*
X344610Y101890D03*
X349610Y101890D03*
X354610Y101890D03*
X359610Y101890D03*
X364610Y101890D03*
X369610Y101890D03*
X374610Y101890D03*
X379610Y101890D03*
X384610Y101890D03*
X389610Y101890D03*
X394610Y101890D03*
X399610Y101890D03*
D13*
X406110Y108390D03*
X406110Y113390D03*
X406110Y118390D03*
X406110Y123390D03*
X406110Y128390D03*
X406110Y133390D03*
X406110Y138390D03*
X406110Y143390D03*
X406110Y148390D03*
X406110Y153390D03*
X406110Y158390D03*
X406110Y163390D03*
D12*
X399610Y169890D03*
X394610Y169890D03*
X389610Y169890D03*
X384610Y169890D03*
X379610Y169890D03*
X374610Y169890D03*
X369610Y169890D03*
X364610Y169890D03*
X359610Y169890D03*
X354610Y169890D03*
X349610Y169890D03*
X344610Y169890D03*
D13*
X338110Y163390D03*
X338110Y158390D03*
X338110Y153390D03*
X338110Y148390D03*
X338110Y143390D03*
X338110Y138390D03*
X338110Y133390D03*
X338110Y128390D03*
X338110Y123390D03*
X338110Y118390D03*
X338110Y113390D03*
X338110Y108390D03*
D14*
X344290Y248390D03*
X349290Y248390D03*
X354290Y248390D03*
X359290Y248390D03*
D15*
X366290Y255390D03*
X366290Y260390D03*
X366290Y265390D03*
X366290Y270390D03*
D14*
X359290Y277390D03*
X354290Y277390D03*
X349290Y277390D03*
X344290Y277390D03*
D15*
X337290Y270390D03*
X337290Y265390D03*
X337290Y260390D03*
X337290Y255390D03*
D16*
X351790Y262890D03*
D17*
X395400Y285900D03*
X395400Y279400D03*
X395400Y272900D03*
X417400Y272900D03*
X417400Y279400D03*
X417400Y285900D03*
D18*
X394890Y299085D03*
X384890Y299085D03*
X394335Y260270D03*
X394335Y250270D03*
X430530Y269320D03*
X430530Y279320D03*
D19*
X416780Y238760D03*
X444280Y238760D03*
D20*
X430530Y254010D03*
X430530Y223510D03*
D18*
X296465Y24765D03*
X286465Y24765D03*
D21*
X299235Y57145D03*
X292735Y57145D03*
X286235Y57145D03*
X286235Y40645D03*
X299235Y40645D03*
D18*
X299640Y69850D03*
X289640Y69850D03*
X415210Y24130D03*
X405210Y24130D03*
X417910Y299085D03*
X427910Y299085D03*
X425370Y209550D03*
X415370Y209550D03*
X438785Y178515D03*
X438785Y188515D03*
X419735Y178515D03*
X419735Y188515D03*
X429260Y178515D03*
X429260Y188515D03*
X438785Y153750D03*
X438785Y163750D03*
X419735Y153750D03*
X419735Y163750D03*
X429260Y153750D03*
X429260Y163750D03*
X327660Y82470D03*
X327660Y72470D03*
X346710Y82470D03*
X346710Y72470D03*
X337185Y82470D03*
X337185Y72470D03*
X356235Y82470D03*
X356235Y72470D03*
X375285Y82470D03*
X375285Y72470D03*
X365760Y82470D03*
X365760Y72470D03*
X306150Y92075D03*
X316150Y92075D03*
X316150Y101600D03*
X306150Y101600D03*
X294005Y200105D03*
X294005Y210105D03*
X303530Y190420D03*
X303530Y180420D03*
X322580Y190420D03*
X322580Y180420D03*
X313055Y190420D03*
X313055Y180420D03*
X316150Y111125D03*
X306150Y111125D03*
X316150Y120650D03*
X306150Y120650D03*
X316150Y139700D03*
X306150Y139700D03*
X316150Y130175D03*
X306150Y130175D03*
D22*
X291450Y158420D03*
X291450Y148920D03*
X305450Y148920D03*
X305450Y158420D03*
D18*
X322500Y167640D03*
X312500Y167640D03*
X292180Y167640D03*
X302180Y167640D03*
X315040Y157480D03*
X325040Y157480D03*
X322580Y200105D03*
X322580Y210105D03*
X313055Y200105D03*
X313055Y210105D03*
X303530Y200105D03*
X303530Y210105D03*
X354330Y181690D03*
X354330Y191690D03*
X354330Y212170D03*
X354330Y222170D03*
X364410Y201930D03*
X354410Y201930D03*
D23*
X354330Y230632D03*
X354330Y239268D03*
D18*
X335995Y308610D03*
X345995Y308610D03*
X345995Y298450D03*
X335995Y298450D03*
X333375Y226775D03*
X333375Y236775D03*
X333375Y207090D03*
X333375Y217090D03*
D24*
X318262Y265430D03*
X326898Y265430D03*
D18*
X309245Y267255D03*
X309245Y257255D03*
X299720Y267255D03*
X299720Y257255D03*
D24*
X348107Y287655D03*
X356743Y287655D03*
X357632Y298450D03*
X366268Y298450D03*
X403098Y187960D03*
X394462Y187960D03*
X403098Y238760D03*
X394462Y238760D03*
D25*
X394335Y209360D03*
X394335Y217360D03*
D18*
X375285Y289005D03*
X375285Y299005D03*
X323215Y287575D03*
X323215Y277575D03*
X313055Y287575D03*
X313055Y277575D03*
X302895Y287575D03*
X302895Y277575D03*
X377825Y243285D03*
X377825Y253285D03*
X377825Y267415D03*
X377825Y277415D03*
X290195Y267255D03*
X290195Y257255D03*
X438785Y142160D03*
X438785Y132160D03*
X419735Y142160D03*
X419735Y132160D03*
X429260Y142160D03*
X429260Y132160D03*
D26*
X300380Y306895D03*
X300380Y298895D03*
X319380Y298895D03*
X319380Y306895D03*
D18*
X425530Y24130D03*
X435530Y24130D03*
D27*
X287354Y246355D03*
X287354Y236855D03*
X287354Y227355D03*
X313356Y227355D03*
X313356Y246355D03*
D18*
X377825Y228520D03*
X377825Y218520D03*
X377825Y194390D03*
X377825Y204390D03*
X346630Y49530D03*
X336630Y49530D03*
D28*
X410600Y39370D03*
X427600Y39370D03*
D18*
X323850Y49450D03*
X323850Y39450D03*
D29*
X357291Y41681D02*
X366009Y41681D01*
X357291Y41681D02*
X357291Y45899D01*
X366009Y45899D01*
X366009Y41681D01*
X366009Y44581D02*
X357291Y44581D01*
X357291Y32181D02*
X366009Y32181D01*
X357291Y32181D02*
X357291Y36399D01*
X366009Y36399D01*
X366009Y32181D01*
X366009Y35081D02*
X357291Y35081D01*
X357291Y22681D02*
X366009Y22681D01*
X357291Y22681D02*
X357291Y26899D01*
X366009Y26899D01*
X366009Y22681D01*
X366009Y25581D02*
X357291Y25581D01*
X383291Y22681D02*
X392009Y22681D01*
X383291Y22681D02*
X383291Y26899D01*
X392009Y26899D01*
X392009Y22681D01*
X392009Y25581D02*
X383291Y25581D01*
X383291Y32181D02*
X392009Y32181D01*
X383291Y32181D02*
X383291Y36399D01*
X392009Y36399D01*
X392009Y32181D01*
X392009Y35081D02*
X383291Y35081D01*
X383291Y41681D02*
X392009Y41681D01*
X383291Y41681D02*
X383291Y45899D01*
X392009Y45899D01*
X392009Y41681D01*
X392009Y44581D02*
X383291Y44581D01*
D30*
X392590Y75540D03*
X392590Y56540D03*
X413590Y66040D03*
D18*
X323770Y29210D03*
X313770Y29210D03*
X346630Y39370D03*
X336630Y39370D03*
X346630Y29210D03*
X336630Y29210D03*
X312420Y58340D03*
X312420Y48340D03*
X312420Y68660D03*
X312420Y78660D03*
X284480Y293450D03*
X284480Y303450D03*
D31*
X259080Y279400D03*
D32*
X254000Y279400D03*
D31*
X259080Y254000D03*
D32*
X254000Y254000D03*
D31*
X259080Y228600D03*
D32*
X254000Y228600D03*
D31*
X259080Y304800D03*
D32*
X254000Y304800D03*
D31*
X259080Y203200D03*
D32*
X254000Y203200D03*
D31*
X259080Y177800D03*
D32*
X254000Y177800D03*
D31*
X259080Y152400D03*
D32*
X254000Y152400D03*
D31*
X259080Y127000D03*
D32*
X254000Y127000D03*
D31*
X259080Y101600D03*
D32*
X254000Y101600D03*
D31*
X259080Y76200D03*
D32*
X254000Y76200D03*
D31*
X259080Y50800D03*
D32*
X254000Y50800D03*
D31*
X259080Y25400D03*
D32*
X254000Y25400D03*
D31*
X462280Y25400D03*
D32*
X467360Y25400D03*
D31*
X462280Y50800D03*
D32*
X467360Y50800D03*
D31*
X462280Y76200D03*
D32*
X467360Y76200D03*
D31*
X462280Y101600D03*
D32*
X467360Y101600D03*
D31*
X462280Y127000D03*
D32*
X467360Y127000D03*
D31*
X462280Y152400D03*
D32*
X467360Y152400D03*
D31*
X462280Y177800D03*
D32*
X467360Y177800D03*
D31*
X462280Y203200D03*
D32*
X467360Y203200D03*
D31*
X462280Y228600D03*
D32*
X467360Y228600D03*
D31*
X462280Y254000D03*
D32*
X467360Y254000D03*
D31*
X462280Y279400D03*
D32*
X467360Y279400D03*
D31*
X462280Y304800D03*
D32*
X467360Y304800D03*
D33*
X341630Y9525D02*
X290830Y9525D01*
X379730Y9525D02*
X430530Y9525D01*
X430530Y320675D02*
X379730Y320675D01*
X341630Y320675D02*
X290830Y320675D01*
D34*
X435490Y107230D03*
X430490Y107230D03*
X425490Y107230D03*
X420490Y107230D03*
X420490Y80730D03*
X425490Y80730D03*
X430490Y80730D03*
X435490Y80730D03*
D18*
X436880Y68500D03*
X436880Y58500D03*
X426720Y68500D03*
X426720Y58500D03*
D10*
X708660Y320675D03*
X530860Y9525D03*
D11*
X631190Y135890D03*
D12*
X603690Y101890D03*
X608690Y101890D03*
X613690Y101890D03*
X618690Y101890D03*
X623690Y101890D03*
X628690Y101890D03*
X633690Y101890D03*
X638690Y101890D03*
X643690Y101890D03*
X648690Y101890D03*
X653690Y101890D03*
X658690Y101890D03*
D13*
X665190Y108390D03*
X665190Y113390D03*
X665190Y118390D03*
X665190Y123390D03*
X665190Y128390D03*
X665190Y133390D03*
X665190Y138390D03*
X665190Y143390D03*
X665190Y148390D03*
X665190Y153390D03*
X665190Y158390D03*
X665190Y163390D03*
D12*
X658690Y169890D03*
X653690Y169890D03*
X648690Y169890D03*
X643690Y169890D03*
X638690Y169890D03*
X633690Y169890D03*
X628690Y169890D03*
X623690Y169890D03*
X618690Y169890D03*
X613690Y169890D03*
X608690Y169890D03*
X603690Y169890D03*
D13*
X597190Y163390D03*
X597190Y158390D03*
X597190Y153390D03*
X597190Y148390D03*
X597190Y143390D03*
X597190Y138390D03*
X597190Y133390D03*
X597190Y128390D03*
X597190Y123390D03*
X597190Y118390D03*
X597190Y113390D03*
X597190Y108390D03*
D14*
X603370Y248390D03*
X608370Y248390D03*
X613370Y248390D03*
X618370Y248390D03*
D15*
X625370Y255390D03*
X625370Y260390D03*
X625370Y265390D03*
X625370Y270390D03*
D14*
X618370Y277390D03*
X613370Y277390D03*
X608370Y277390D03*
X603370Y277390D03*
D15*
X596370Y270390D03*
X596370Y265390D03*
X596370Y260390D03*
X596370Y255390D03*
D16*
X610870Y262890D03*
D17*
X654480Y285900D03*
X654480Y279400D03*
X654480Y272900D03*
X676480Y272900D03*
X676480Y279400D03*
X676480Y285900D03*
D18*
X653970Y299085D03*
X643970Y299085D03*
X653415Y260270D03*
X653415Y250270D03*
X689610Y269320D03*
X689610Y279320D03*
D19*
X675860Y238760D03*
X703360Y238760D03*
D20*
X689610Y254010D03*
X689610Y223510D03*
D18*
X555545Y24765D03*
X545545Y24765D03*
D21*
X558315Y57145D03*
X551815Y57145D03*
X545315Y57145D03*
X545315Y40645D03*
X558315Y40645D03*
D18*
X558720Y69850D03*
X548720Y69850D03*
X674290Y24130D03*
X664290Y24130D03*
X676990Y299085D03*
X686990Y299085D03*
X684450Y209550D03*
X674450Y209550D03*
X697865Y178515D03*
X697865Y188515D03*
X678815Y178515D03*
X678815Y188515D03*
X688340Y178515D03*
X688340Y188515D03*
X697865Y153750D03*
X697865Y163750D03*
X678815Y153750D03*
X678815Y163750D03*
X688340Y153750D03*
X688340Y163750D03*
X586740Y82470D03*
X586740Y72470D03*
X605790Y82470D03*
X605790Y72470D03*
X596265Y82470D03*
X596265Y72470D03*
X615315Y82470D03*
X615315Y72470D03*
X634365Y82470D03*
X634365Y72470D03*
X624840Y82470D03*
X624840Y72470D03*
X565230Y92075D03*
X575230Y92075D03*
X575230Y101600D03*
X565230Y101600D03*
X553085Y200105D03*
X553085Y210105D03*
X562610Y190420D03*
X562610Y180420D03*
X581660Y190420D03*
X581660Y180420D03*
X572135Y190420D03*
X572135Y180420D03*
X575230Y111125D03*
X565230Y111125D03*
X575230Y120650D03*
X565230Y120650D03*
X575230Y139700D03*
X565230Y139700D03*
X575230Y130175D03*
X565230Y130175D03*
D22*
X550530Y158420D03*
X550530Y148920D03*
X564530Y148920D03*
X564530Y158420D03*
D18*
X581580Y167640D03*
X571580Y167640D03*
X551260Y167640D03*
X561260Y167640D03*
X574120Y157480D03*
X584120Y157480D03*
X581660Y200105D03*
X581660Y210105D03*
X572135Y200105D03*
X572135Y210105D03*
X562610Y200105D03*
X562610Y210105D03*
X613410Y181690D03*
X613410Y191690D03*
X613410Y212170D03*
X613410Y222170D03*
X623490Y201930D03*
X613490Y201930D03*
D23*
X613410Y230632D03*
X613410Y239268D03*
D18*
X595075Y308610D03*
X605075Y308610D03*
X605075Y298450D03*
X595075Y298450D03*
X592455Y226775D03*
X592455Y236775D03*
X592455Y207090D03*
X592455Y217090D03*
D24*
X577342Y265430D03*
X585978Y265430D03*
D18*
X568325Y267255D03*
X568325Y257255D03*
X558800Y267255D03*
X558800Y257255D03*
D24*
X607187Y287655D03*
X615823Y287655D03*
X616712Y298450D03*
X625348Y298450D03*
X662178Y187960D03*
X653542Y187960D03*
X662178Y238760D03*
X653542Y238760D03*
D25*
X653415Y209360D03*
X653415Y217360D03*
D18*
X634365Y289005D03*
X634365Y299005D03*
X582295Y287575D03*
X582295Y277575D03*
X572135Y287575D03*
X572135Y277575D03*
X561975Y287575D03*
X561975Y277575D03*
X636905Y243285D03*
X636905Y253285D03*
X636905Y267415D03*
X636905Y277415D03*
X549275Y267255D03*
X549275Y257255D03*
X697865Y142160D03*
X697865Y132160D03*
X678815Y142160D03*
X678815Y132160D03*
X688340Y142160D03*
X688340Y132160D03*
D26*
X559460Y306895D03*
X559460Y298895D03*
X578460Y298895D03*
X578460Y306895D03*
D18*
X684610Y24130D03*
X694610Y24130D03*
D27*
X546434Y246355D03*
X546434Y236855D03*
X546434Y227355D03*
X572436Y227355D03*
X572436Y246355D03*
D18*
X636905Y228520D03*
X636905Y218520D03*
X636905Y194390D03*
X636905Y204390D03*
X605710Y49530D03*
X595710Y49530D03*
D28*
X669680Y39370D03*
X686680Y39370D03*
D18*
X582930Y49450D03*
X582930Y39450D03*
D29*
X616371Y41681D02*
X625089Y41681D01*
X616371Y41681D02*
X616371Y45899D01*
X625089Y45899D01*
X625089Y41681D01*
X625089Y44581D02*
X616371Y44581D01*
X616371Y32181D02*
X625089Y32181D01*
X616371Y32181D02*
X616371Y36399D01*
X625089Y36399D01*
X625089Y32181D01*
X625089Y35081D02*
X616371Y35081D01*
X616371Y22681D02*
X625089Y22681D01*
X616371Y22681D02*
X616371Y26899D01*
X625089Y26899D01*
X625089Y22681D01*
X625089Y25581D02*
X616371Y25581D01*
X642371Y22681D02*
X651089Y22681D01*
X642371Y22681D02*
X642371Y26899D01*
X651089Y26899D01*
X651089Y22681D01*
X651089Y25581D02*
X642371Y25581D01*
X642371Y32181D02*
X651089Y32181D01*
X642371Y32181D02*
X642371Y36399D01*
X651089Y36399D01*
X651089Y32181D01*
X651089Y35081D02*
X642371Y35081D01*
X642371Y41681D02*
X651089Y41681D01*
X642371Y41681D02*
X642371Y45899D01*
X651089Y45899D01*
X651089Y41681D01*
X651089Y44581D02*
X642371Y44581D01*
D30*
X651670Y75540D03*
X651670Y56540D03*
X672670Y66040D03*
D18*
X582850Y29210D03*
X572850Y29210D03*
X605710Y39370D03*
X595710Y39370D03*
X605710Y29210D03*
X595710Y29210D03*
X571500Y58340D03*
X571500Y48340D03*
X571500Y68660D03*
X571500Y78660D03*
X543560Y293450D03*
X543560Y303450D03*
D31*
X518160Y279400D03*
D32*
X513080Y279400D03*
D31*
X518160Y254000D03*
D32*
X513080Y254000D03*
D31*
X518160Y228600D03*
D32*
X513080Y228600D03*
D31*
X518160Y304800D03*
D32*
X513080Y304800D03*
D31*
X518160Y203200D03*
D32*
X513080Y203200D03*
D31*
X518160Y177800D03*
D32*
X513080Y177800D03*
D31*
X518160Y152400D03*
D32*
X513080Y152400D03*
D31*
X518160Y127000D03*
D32*
X513080Y127000D03*
D31*
X518160Y101600D03*
D32*
X513080Y101600D03*
D31*
X518160Y76200D03*
D32*
X513080Y76200D03*
D31*
X518160Y50800D03*
D32*
X513080Y50800D03*
D31*
X518160Y25400D03*
D32*
X513080Y25400D03*
D31*
X721360Y25400D03*
D32*
X726440Y25400D03*
D31*
X721360Y50800D03*
D32*
X726440Y50800D03*
D31*
X721360Y76200D03*
D32*
X726440Y76200D03*
D31*
X721360Y101600D03*
D32*
X726440Y101600D03*
D31*
X721360Y127000D03*
D32*
X726440Y127000D03*
D31*
X721360Y152400D03*
D32*
X726440Y152400D03*
D31*
X721360Y177800D03*
D32*
X726440Y177800D03*
D31*
X721360Y203200D03*
D32*
X726440Y203200D03*
D31*
X721360Y228600D03*
D32*
X726440Y228600D03*
D31*
X721360Y254000D03*
D32*
X726440Y254000D03*
D31*
X721360Y279400D03*
D32*
X726440Y279400D03*
D31*
X721360Y304800D03*
D32*
X726440Y304800D03*
D33*
X600710Y9525D02*
X549910Y9525D01*
X638810Y9525D02*
X689610Y9525D01*
X689610Y320675D02*
X638810Y320675D01*
X600710Y320675D02*
X549910Y320675D01*
D34*
X694570Y107230D03*
X689570Y107230D03*
X684570Y107230D03*
X679570Y107230D03*
X679570Y80730D03*
X684570Y80730D03*
X689570Y80730D03*
X694570Y80730D03*
D18*
X695960Y68500D03*
X695960Y58500D03*
X685800Y68500D03*
X685800Y58500D03*
D10*
X967740Y320675D03*
X789940Y9525D03*
D11*
X890270Y135890D03*
D12*
X862770Y101890D03*
X867770Y101890D03*
X872770Y101890D03*
X877770Y101890D03*
X882770Y101890D03*
X887770Y101890D03*
X892770Y101890D03*
X897770Y101890D03*
X902770Y101890D03*
X907770Y101890D03*
X912770Y101890D03*
X917770Y101890D03*
D13*
X924270Y108390D03*
X924270Y113390D03*
X924270Y118390D03*
X924270Y123390D03*
X924270Y128390D03*
X924270Y133390D03*
X924270Y138390D03*
X924270Y143390D03*
X924270Y148390D03*
X924270Y153390D03*
X924270Y158390D03*
X924270Y163390D03*
D12*
X917770Y169890D03*
X912770Y169890D03*
X907770Y169890D03*
X902770Y169890D03*
X897770Y169890D03*
X892770Y169890D03*
X887770Y169890D03*
X882770Y169890D03*
X877770Y169890D03*
X872770Y169890D03*
X867770Y169890D03*
X862770Y169890D03*
D13*
X856270Y163390D03*
X856270Y158390D03*
X856270Y153390D03*
X856270Y148390D03*
X856270Y143390D03*
X856270Y138390D03*
X856270Y133390D03*
X856270Y128390D03*
X856270Y123390D03*
X856270Y118390D03*
X856270Y113390D03*
X856270Y108390D03*
D14*
X862450Y248390D03*
X867450Y248390D03*
X872450Y248390D03*
X877450Y248390D03*
D15*
X884450Y255390D03*
X884450Y260390D03*
X884450Y265390D03*
X884450Y270390D03*
D14*
X877450Y277390D03*
X872450Y277390D03*
X867450Y277390D03*
X862450Y277390D03*
D15*
X855450Y270390D03*
X855450Y265390D03*
X855450Y260390D03*
X855450Y255390D03*
D16*
X869950Y262890D03*
D17*
X913560Y285900D03*
X913560Y279400D03*
X913560Y272900D03*
X935560Y272900D03*
X935560Y279400D03*
X935560Y285900D03*
D18*
X913050Y299085D03*
X903050Y299085D03*
X912495Y260270D03*
X912495Y250270D03*
X948690Y269320D03*
X948690Y279320D03*
D19*
X934940Y238760D03*
X962440Y238760D03*
D20*
X948690Y254010D03*
X948690Y223510D03*
D18*
X814625Y24765D03*
X804625Y24765D03*
D21*
X817395Y57145D03*
X810895Y57145D03*
X804395Y57145D03*
X804395Y40645D03*
X817395Y40645D03*
D18*
X817800Y69850D03*
X807800Y69850D03*
X933370Y24130D03*
X923370Y24130D03*
X936070Y299085D03*
X946070Y299085D03*
X943530Y209550D03*
X933530Y209550D03*
X956945Y178515D03*
X956945Y188515D03*
X937895Y178515D03*
X937895Y188515D03*
X947420Y178515D03*
X947420Y188515D03*
X956945Y153750D03*
X956945Y163750D03*
X937895Y153750D03*
X937895Y163750D03*
X947420Y153750D03*
X947420Y163750D03*
X845820Y82470D03*
X845820Y72470D03*
X864870Y82470D03*
X864870Y72470D03*
X855345Y82470D03*
X855345Y72470D03*
X874395Y82470D03*
X874395Y72470D03*
X893445Y82470D03*
X893445Y72470D03*
X883920Y82470D03*
X883920Y72470D03*
X824310Y92075D03*
X834310Y92075D03*
X834310Y101600D03*
X824310Y101600D03*
X812165Y200105D03*
X812165Y210105D03*
X821690Y190420D03*
X821690Y180420D03*
X840740Y190420D03*
X840740Y180420D03*
X831215Y190420D03*
X831215Y180420D03*
X834310Y111125D03*
X824310Y111125D03*
X834310Y120650D03*
X824310Y120650D03*
X834310Y139700D03*
X824310Y139700D03*
X834310Y130175D03*
X824310Y130175D03*
D22*
X809610Y158420D03*
X809610Y148920D03*
X823610Y148920D03*
X823610Y158420D03*
D18*
X840660Y167640D03*
X830660Y167640D03*
X810340Y167640D03*
X820340Y167640D03*
X833200Y157480D03*
X843200Y157480D03*
X840740Y200105D03*
X840740Y210105D03*
X831215Y200105D03*
X831215Y210105D03*
X821690Y200105D03*
X821690Y210105D03*
X872490Y181690D03*
X872490Y191690D03*
X872490Y212170D03*
X872490Y222170D03*
X882570Y201930D03*
X872570Y201930D03*
D23*
X872490Y230632D03*
X872490Y239268D03*
D18*
X854155Y308610D03*
X864155Y308610D03*
X864155Y298450D03*
X854155Y298450D03*
X851535Y226775D03*
X851535Y236775D03*
X851535Y207090D03*
X851535Y217090D03*
D24*
X836422Y265430D03*
X845058Y265430D03*
D18*
X827405Y267255D03*
X827405Y257255D03*
X817880Y267255D03*
X817880Y257255D03*
D24*
X866267Y287655D03*
X874903Y287655D03*
X875792Y298450D03*
X884428Y298450D03*
X921258Y187960D03*
X912622Y187960D03*
X921258Y238760D03*
X912622Y238760D03*
D25*
X912495Y209360D03*
X912495Y217360D03*
D18*
X893445Y289005D03*
X893445Y299005D03*
X841375Y287575D03*
X841375Y277575D03*
X831215Y287575D03*
X831215Y277575D03*
X821055Y287575D03*
X821055Y277575D03*
X895985Y243285D03*
X895985Y253285D03*
X895985Y267415D03*
X895985Y277415D03*
X808355Y267255D03*
X808355Y257255D03*
X956945Y142160D03*
X956945Y132160D03*
X937895Y142160D03*
X937895Y132160D03*
X947420Y142160D03*
X947420Y132160D03*
D26*
X818540Y306895D03*
X818540Y298895D03*
X837540Y298895D03*
X837540Y306895D03*
D18*
X943690Y24130D03*
X953690Y24130D03*
D27*
X805514Y246355D03*
X805514Y236855D03*
X805514Y227355D03*
X831516Y227355D03*
X831516Y246355D03*
D18*
X895985Y228520D03*
X895985Y218520D03*
X895985Y194390D03*
X895985Y204390D03*
X864790Y49530D03*
X854790Y49530D03*
D28*
X928760Y39370D03*
X945760Y39370D03*
D18*
X842010Y49450D03*
X842010Y39450D03*
D29*
X875451Y41681D02*
X884169Y41681D01*
X875451Y41681D02*
X875451Y45899D01*
X884169Y45899D01*
X884169Y41681D01*
X884169Y44581D02*
X875451Y44581D01*
X875451Y32181D02*
X884169Y32181D01*
X875451Y32181D02*
X875451Y36399D01*
X884169Y36399D01*
X884169Y32181D01*
X884169Y35081D02*
X875451Y35081D01*
X875451Y22681D02*
X884169Y22681D01*
X875451Y22681D02*
X875451Y26899D01*
X884169Y26899D01*
X884169Y22681D01*
X884169Y25581D02*
X875451Y25581D01*
X901451Y22681D02*
X910169Y22681D01*
X901451Y22681D02*
X901451Y26899D01*
X910169Y26899D01*
X910169Y22681D01*
X910169Y25581D02*
X901451Y25581D01*
X901451Y32181D02*
X910169Y32181D01*
X901451Y32181D02*
X901451Y36399D01*
X910169Y36399D01*
X910169Y32181D01*
X910169Y35081D02*
X901451Y35081D01*
X901451Y41681D02*
X910169Y41681D01*
X901451Y41681D02*
X901451Y45899D01*
X910169Y45899D01*
X910169Y41681D01*
X910169Y44581D02*
X901451Y44581D01*
D30*
X910750Y75540D03*
X910750Y56540D03*
X931750Y66040D03*
D18*
X841930Y29210D03*
X831930Y29210D03*
X864790Y39370D03*
X854790Y39370D03*
X864790Y29210D03*
X854790Y29210D03*
X830580Y58340D03*
X830580Y48340D03*
X830580Y68660D03*
X830580Y78660D03*
X802640Y293450D03*
X802640Y303450D03*
D31*
X777240Y279400D03*
D32*
X772160Y279400D03*
D31*
X777240Y254000D03*
D32*
X772160Y254000D03*
D31*
X777240Y228600D03*
D32*
X772160Y228600D03*
D31*
X777240Y304800D03*
D32*
X772160Y304800D03*
D31*
X777240Y203200D03*
D32*
X772160Y203200D03*
D31*
X777240Y177800D03*
D32*
X772160Y177800D03*
D31*
X777240Y152400D03*
D32*
X772160Y152400D03*
D31*
X777240Y127000D03*
D32*
X772160Y127000D03*
D31*
X777240Y101600D03*
D32*
X772160Y101600D03*
D31*
X777240Y76200D03*
D32*
X772160Y76200D03*
D31*
X777240Y50800D03*
D32*
X772160Y50800D03*
D31*
X777240Y25400D03*
D32*
X772160Y25400D03*
D31*
X980440Y25400D03*
D32*
X985520Y25400D03*
D31*
X980440Y50800D03*
D32*
X985520Y50800D03*
D31*
X980440Y76200D03*
D32*
X985520Y76200D03*
D31*
X980440Y101600D03*
D32*
X985520Y101600D03*
D31*
X980440Y127000D03*
D32*
X985520Y127000D03*
D31*
X980440Y152400D03*
D32*
X985520Y152400D03*
D31*
X980440Y177800D03*
D32*
X985520Y177800D03*
D31*
X980440Y203200D03*
D32*
X985520Y203200D03*
D31*
X980440Y228600D03*
D32*
X985520Y228600D03*
D31*
X980440Y254000D03*
D32*
X985520Y254000D03*
D31*
X980440Y279400D03*
D32*
X985520Y279400D03*
D31*
X980440Y304800D03*
D32*
X985520Y304800D03*
D33*
X859790Y9525D02*
X808990Y9525D01*
X897890Y9525D02*
X948690Y9525D01*
X948690Y320675D02*
X897890Y320675D01*
X859790Y320675D02*
X808990Y320675D01*
D34*
X953650Y107230D03*
X948650Y107230D03*
X943650Y107230D03*
X938650Y107230D03*
X938650Y80730D03*
X943650Y80730D03*
X948650Y80730D03*
X953650Y80730D03*
D18*
X955040Y68500D03*
X955040Y58500D03*
X944880Y68500D03*
X944880Y58500D03*
D10*
X1226820Y320675D03*
X1049020Y9525D03*
D11*
X1149350Y135890D03*
D12*
X1121850Y101890D03*
X1126850Y101890D03*
X1131850Y101890D03*
X1136850Y101890D03*
X1141850Y101890D03*
X1146850Y101890D03*
X1151850Y101890D03*
X1156850Y101890D03*
X1161850Y101890D03*
X1166850Y101890D03*
X1171850Y101890D03*
X1176850Y101890D03*
D13*
X1183350Y108390D03*
X1183350Y113390D03*
X1183350Y118390D03*
X1183350Y123390D03*
X1183350Y128390D03*
X1183350Y133390D03*
X1183350Y138390D03*
X1183350Y143390D03*
X1183350Y148390D03*
X1183350Y153390D03*
X1183350Y158390D03*
X1183350Y163390D03*
D12*
X1176850Y169890D03*
X1171850Y169890D03*
X1166850Y169890D03*
X1161850Y169890D03*
X1156850Y169890D03*
X1151850Y169890D03*
X1146850Y169890D03*
X1141850Y169890D03*
X1136850Y169890D03*
X1131850Y169890D03*
X1126850Y169890D03*
X1121850Y169890D03*
D13*
X1115350Y163390D03*
X1115350Y158390D03*
X1115350Y153390D03*
X1115350Y148390D03*
X1115350Y143390D03*
X1115350Y138390D03*
X1115350Y133390D03*
X1115350Y128390D03*
X1115350Y123390D03*
X1115350Y118390D03*
X1115350Y113390D03*
X1115350Y108390D03*
D14*
X1121530Y248390D03*
X1126530Y248390D03*
X1131530Y248390D03*
X1136530Y248390D03*
D15*
X1143530Y255390D03*
X1143530Y260390D03*
X1143530Y265390D03*
X1143530Y270390D03*
D14*
X1136530Y277390D03*
X1131530Y277390D03*
X1126530Y277390D03*
X1121530Y277390D03*
D15*
X1114530Y270390D03*
X1114530Y265390D03*
X1114530Y260390D03*
X1114530Y255390D03*
D16*
X1129030Y262890D03*
D17*
X1172640Y285900D03*
X1172640Y279400D03*
X1172640Y272900D03*
X1194640Y272900D03*
X1194640Y279400D03*
X1194640Y285900D03*
D18*
X1172130Y299085D03*
X1162130Y299085D03*
X1171575Y260270D03*
X1171575Y250270D03*
X1207770Y269320D03*
X1207770Y279320D03*
D19*
X1194020Y238760D03*
X1221520Y238760D03*
D20*
X1207770Y254010D03*
X1207770Y223510D03*
D18*
X1073705Y24765D03*
X1063705Y24765D03*
D21*
X1076475Y57145D03*
X1069975Y57145D03*
X1063475Y57145D03*
X1063475Y40645D03*
X1076475Y40645D03*
D18*
X1076880Y69850D03*
X1066880Y69850D03*
X1192450Y24130D03*
X1182450Y24130D03*
X1195150Y299085D03*
X1205150Y299085D03*
X1202610Y209550D03*
X1192610Y209550D03*
X1216025Y178515D03*
X1216025Y188515D03*
X1196975Y178515D03*
X1196975Y188515D03*
X1206500Y178515D03*
X1206500Y188515D03*
X1216025Y153750D03*
X1216025Y163750D03*
X1196975Y153750D03*
X1196975Y163750D03*
X1206500Y153750D03*
X1206500Y163750D03*
X1104900Y82470D03*
X1104900Y72470D03*
X1123950Y82470D03*
X1123950Y72470D03*
X1114425Y82470D03*
X1114425Y72470D03*
X1133475Y82470D03*
X1133475Y72470D03*
X1152525Y82470D03*
X1152525Y72470D03*
X1143000Y82470D03*
X1143000Y72470D03*
X1083390Y92075D03*
X1093390Y92075D03*
X1093390Y101600D03*
X1083390Y101600D03*
X1071245Y200105D03*
X1071245Y210105D03*
X1080770Y190420D03*
X1080770Y180420D03*
X1099820Y190420D03*
X1099820Y180420D03*
X1090295Y190420D03*
X1090295Y180420D03*
X1093390Y111125D03*
X1083390Y111125D03*
X1093390Y120650D03*
X1083390Y120650D03*
X1093390Y139700D03*
X1083390Y139700D03*
X1093390Y130175D03*
X1083390Y130175D03*
D22*
X1068690Y158420D03*
X1068690Y148920D03*
X1082690Y148920D03*
X1082690Y158420D03*
D18*
X1099740Y167640D03*
X1089740Y167640D03*
X1069420Y167640D03*
X1079420Y167640D03*
X1092280Y157480D03*
X1102280Y157480D03*
X1099820Y200105D03*
X1099820Y210105D03*
X1090295Y200105D03*
X1090295Y210105D03*
X1080770Y200105D03*
X1080770Y210105D03*
X1131570Y181690D03*
X1131570Y191690D03*
X1131570Y212170D03*
X1131570Y222170D03*
X1141650Y201930D03*
X1131650Y201930D03*
D23*
X1131570Y230632D03*
X1131570Y239268D03*
D18*
X1113235Y308610D03*
X1123235Y308610D03*
X1123235Y298450D03*
X1113235Y298450D03*
X1110615Y226775D03*
X1110615Y236775D03*
X1110615Y207090D03*
X1110615Y217090D03*
D24*
X1095502Y265430D03*
X1104138Y265430D03*
D18*
X1086485Y267255D03*
X1086485Y257255D03*
X1076960Y267255D03*
X1076960Y257255D03*
D24*
X1125347Y287655D03*
X1133983Y287655D03*
X1134872Y298450D03*
X1143508Y298450D03*
X1180338Y187960D03*
X1171702Y187960D03*
X1180338Y238760D03*
X1171702Y238760D03*
D25*
X1171575Y209360D03*
X1171575Y217360D03*
D18*
X1152525Y289005D03*
X1152525Y299005D03*
X1100455Y287575D03*
X1100455Y277575D03*
X1090295Y287575D03*
X1090295Y277575D03*
X1080135Y287575D03*
X1080135Y277575D03*
X1155065Y243285D03*
X1155065Y253285D03*
X1155065Y267415D03*
X1155065Y277415D03*
X1067435Y267255D03*
X1067435Y257255D03*
X1216025Y142160D03*
X1216025Y132160D03*
X1196975Y142160D03*
X1196975Y132160D03*
X1206500Y142160D03*
X1206500Y132160D03*
D26*
X1077620Y306895D03*
X1077620Y298895D03*
X1096620Y298895D03*
X1096620Y306895D03*
D18*
X1202770Y24130D03*
X1212770Y24130D03*
D27*
X1064594Y246355D03*
X1064594Y236855D03*
X1064594Y227355D03*
X1090596Y227355D03*
X1090596Y246355D03*
D18*
X1155065Y228520D03*
X1155065Y218520D03*
X1155065Y194390D03*
X1155065Y204390D03*
X1123870Y49530D03*
X1113870Y49530D03*
D28*
X1187840Y39370D03*
X1204840Y39370D03*
D18*
X1101090Y49450D03*
X1101090Y39450D03*
D29*
X1134531Y41681D02*
X1143249Y41681D01*
X1134531Y41681D02*
X1134531Y45899D01*
X1143249Y45899D01*
X1143249Y41681D01*
X1143249Y44581D02*
X1134531Y44581D01*
X1134531Y32181D02*
X1143249Y32181D01*
X1134531Y32181D02*
X1134531Y36399D01*
X1143249Y36399D01*
X1143249Y32181D01*
X1143249Y35081D02*
X1134531Y35081D01*
X1134531Y22681D02*
X1143249Y22681D01*
X1134531Y22681D02*
X1134531Y26899D01*
X1143249Y26899D01*
X1143249Y22681D01*
X1143249Y25581D02*
X1134531Y25581D01*
X1160531Y22681D02*
X1169249Y22681D01*
X1160531Y22681D02*
X1160531Y26899D01*
X1169249Y26899D01*
X1169249Y22681D01*
X1169249Y25581D02*
X1160531Y25581D01*
X1160531Y32181D02*
X1169249Y32181D01*
X1160531Y32181D02*
X1160531Y36399D01*
X1169249Y36399D01*
X1169249Y32181D01*
X1169249Y35081D02*
X1160531Y35081D01*
X1160531Y41681D02*
X1169249Y41681D01*
X1160531Y41681D02*
X1160531Y45899D01*
X1169249Y45899D01*
X1169249Y41681D01*
X1169249Y44581D02*
X1160531Y44581D01*
D30*
X1169830Y75540D03*
X1169830Y56540D03*
X1190830Y66040D03*
D18*
X1101010Y29210D03*
X1091010Y29210D03*
X1123870Y39370D03*
X1113870Y39370D03*
X1123870Y29210D03*
X1113870Y29210D03*
X1089660Y58340D03*
X1089660Y48340D03*
X1089660Y68660D03*
X1089660Y78660D03*
X1061720Y293450D03*
X1061720Y303450D03*
D31*
X1036320Y279400D03*
D32*
X1031240Y279400D03*
D31*
X1036320Y254000D03*
D32*
X1031240Y254000D03*
D31*
X1036320Y228600D03*
D32*
X1031240Y228600D03*
D31*
X1036320Y304800D03*
D32*
X1031240Y304800D03*
D31*
X1036320Y203200D03*
D32*
X1031240Y203200D03*
D31*
X1036320Y177800D03*
D32*
X1031240Y177800D03*
D31*
X1036320Y152400D03*
D32*
X1031240Y152400D03*
D31*
X1036320Y127000D03*
D32*
X1031240Y127000D03*
D31*
X1036320Y101600D03*
D32*
X1031240Y101600D03*
D31*
X1036320Y76200D03*
D32*
X1031240Y76200D03*
D31*
X1036320Y50800D03*
D32*
X1031240Y50800D03*
D31*
X1036320Y25400D03*
D32*
X1031240Y25400D03*
D31*
X1239520Y25400D03*
D32*
X1244600Y25400D03*
D31*
X1239520Y50800D03*
D32*
X1244600Y50800D03*
D31*
X1239520Y76200D03*
D32*
X1244600Y76200D03*
D31*
X1239520Y101600D03*
D32*
X1244600Y101600D03*
D31*
X1239520Y127000D03*
D32*
X1244600Y127000D03*
D31*
X1239520Y152400D03*
D32*
X1244600Y152400D03*
D31*
X1239520Y177800D03*
D32*
X1244600Y177800D03*
D31*
X1239520Y203200D03*
D32*
X1244600Y203200D03*
D31*
X1239520Y228600D03*
D32*
X1244600Y228600D03*
D31*
X1239520Y254000D03*
D32*
X1244600Y254000D03*
D31*
X1239520Y279400D03*
D32*
X1244600Y279400D03*
D31*
X1239520Y304800D03*
D32*
X1244600Y304800D03*
D33*
X1118870Y9525D02*
X1068070Y9525D01*
X1156970Y9525D02*
X1207770Y9525D01*
X1207770Y320675D02*
X1156970Y320675D01*
X1118870Y320675D02*
X1068070Y320675D01*
D34*
X1212730Y107230D03*
X1207730Y107230D03*
X1202730Y107230D03*
X1197730Y107230D03*
X1197730Y80730D03*
X1202730Y80730D03*
X1207730Y80730D03*
X1212730Y80730D03*
D18*
X1214120Y68500D03*
X1214120Y58500D03*
X1203960Y68500D03*
X1203960Y58500D03*
D10*
X190500Y655955D03*
X12700Y344805D03*
D11*
X113030Y471170D03*
D12*
X85530Y437170D03*
X90530Y437170D03*
X95530Y437170D03*
X100530Y437170D03*
X105530Y437170D03*
X110530Y437170D03*
X115530Y437170D03*
X120530Y437170D03*
X125530Y437170D03*
X130530Y437170D03*
X135530Y437170D03*
X140530Y437170D03*
D13*
X147030Y443670D03*
X147030Y448670D03*
X147030Y453670D03*
X147030Y458670D03*
X147030Y463670D03*
X147030Y468670D03*
X147030Y473670D03*
X147030Y478670D03*
X147030Y483670D03*
X147030Y488670D03*
X147030Y493670D03*
X147030Y498670D03*
D12*
X140530Y505170D03*
X135530Y505170D03*
X130530Y505170D03*
X125530Y505170D03*
X120530Y505170D03*
X115530Y505170D03*
X110530Y505170D03*
X105530Y505170D03*
X100530Y505170D03*
X95530Y505170D03*
X90530Y505170D03*
X85530Y505170D03*
D13*
X79030Y498670D03*
X79030Y493670D03*
X79030Y488670D03*
X79030Y483670D03*
X79030Y478670D03*
X79030Y473670D03*
X79030Y468670D03*
X79030Y463670D03*
X79030Y458670D03*
X79030Y453670D03*
X79030Y448670D03*
X79030Y443670D03*
D14*
X85210Y583670D03*
X90210Y583670D03*
X95210Y583670D03*
X100210Y583670D03*
D15*
X107210Y590670D03*
X107210Y595670D03*
X107210Y600670D03*
X107210Y605670D03*
D14*
X100210Y612670D03*
X95210Y612670D03*
X90210Y612670D03*
X85210Y612670D03*
D15*
X78210Y605670D03*
X78210Y600670D03*
X78210Y595670D03*
X78210Y590670D03*
D16*
X92710Y598170D03*
D17*
X136320Y621180D03*
X136320Y614680D03*
X136320Y608180D03*
X158320Y608180D03*
X158320Y614680D03*
X158320Y621180D03*
D18*
X135810Y634365D03*
X125810Y634365D03*
X135255Y595550D03*
X135255Y585550D03*
X171450Y604600D03*
X171450Y614600D03*
D19*
X157700Y574040D03*
X185200Y574040D03*
D20*
X171450Y589290D03*
X171450Y558790D03*
D18*
X37385Y360045D03*
X27385Y360045D03*
D21*
X40155Y392425D03*
X33655Y392425D03*
X27155Y392425D03*
X27155Y375925D03*
X40155Y375925D03*
D18*
X40560Y405130D03*
X30560Y405130D03*
X156130Y359410D03*
X146130Y359410D03*
X158830Y634365D03*
X168830Y634365D03*
X166290Y544830D03*
X156290Y544830D03*
X179705Y513795D03*
X179705Y523795D03*
X160655Y513795D03*
X160655Y523795D03*
X170180Y513795D03*
X170180Y523795D03*
X179705Y489030D03*
X179705Y499030D03*
X160655Y489030D03*
X160655Y499030D03*
X170180Y489030D03*
X170180Y499030D03*
X68580Y417750D03*
X68580Y407750D03*
X87630Y417750D03*
X87630Y407750D03*
X78105Y417750D03*
X78105Y407750D03*
X97155Y417750D03*
X97155Y407750D03*
X116205Y417750D03*
X116205Y407750D03*
X106680Y417750D03*
X106680Y407750D03*
X47070Y427355D03*
X57070Y427355D03*
X57070Y436880D03*
X47070Y436880D03*
X34925Y535385D03*
X34925Y545385D03*
X44450Y525700D03*
X44450Y515700D03*
X63500Y525700D03*
X63500Y515700D03*
X53975Y525700D03*
X53975Y515700D03*
X57070Y446405D03*
X47070Y446405D03*
X57070Y455930D03*
X47070Y455930D03*
X57070Y474980D03*
X47070Y474980D03*
X57070Y465455D03*
X47070Y465455D03*
D22*
X32370Y493700D03*
X32370Y484200D03*
X46370Y484200D03*
X46370Y493700D03*
D18*
X63420Y502920D03*
X53420Y502920D03*
X33100Y502920D03*
X43100Y502920D03*
X55960Y492760D03*
X65960Y492760D03*
X63500Y535385D03*
X63500Y545385D03*
X53975Y535385D03*
X53975Y545385D03*
X44450Y535385D03*
X44450Y545385D03*
X95250Y516970D03*
X95250Y526970D03*
X95250Y547450D03*
X95250Y557450D03*
X105330Y537210D03*
X95330Y537210D03*
D23*
X95250Y565912D03*
X95250Y574548D03*
D18*
X76915Y643890D03*
X86915Y643890D03*
X86915Y633730D03*
X76915Y633730D03*
X74295Y562055D03*
X74295Y572055D03*
X74295Y542370D03*
X74295Y552370D03*
D24*
X59182Y600710D03*
X67818Y600710D03*
D18*
X50165Y602535D03*
X50165Y592535D03*
X40640Y602535D03*
X40640Y592535D03*
D24*
X89027Y622935D03*
X97663Y622935D03*
X98552Y633730D03*
X107188Y633730D03*
X144018Y523240D03*
X135382Y523240D03*
X144018Y574040D03*
X135382Y574040D03*
D25*
X135255Y544640D03*
X135255Y552640D03*
D18*
X116205Y624285D03*
X116205Y634285D03*
X64135Y622855D03*
X64135Y612855D03*
X53975Y622855D03*
X53975Y612855D03*
X43815Y622855D03*
X43815Y612855D03*
X118745Y578565D03*
X118745Y588565D03*
X118745Y602695D03*
X118745Y612695D03*
X31115Y602535D03*
X31115Y592535D03*
X179705Y477440D03*
X179705Y467440D03*
X160655Y477440D03*
X160655Y467440D03*
X170180Y477440D03*
X170180Y467440D03*
D26*
X41300Y642175D03*
X41300Y634175D03*
X60300Y634175D03*
X60300Y642175D03*
D18*
X166450Y359410D03*
X176450Y359410D03*
D27*
X28274Y581635D03*
X28274Y572135D03*
X28274Y562635D03*
X54276Y562635D03*
X54276Y581635D03*
D18*
X118745Y563800D03*
X118745Y553800D03*
X118745Y529670D03*
X118745Y539670D03*
X87550Y384810D03*
X77550Y384810D03*
D28*
X151520Y374650D03*
X168520Y374650D03*
D18*
X64770Y384730D03*
X64770Y374730D03*
D29*
X98211Y376961D02*
X106929Y376961D01*
X98211Y376961D02*
X98211Y381179D01*
X106929Y381179D01*
X106929Y376961D01*
X106929Y379861D02*
X98211Y379861D01*
X98211Y367461D02*
X106929Y367461D01*
X98211Y367461D02*
X98211Y371679D01*
X106929Y371679D01*
X106929Y367461D01*
X106929Y370361D02*
X98211Y370361D01*
X98211Y357961D02*
X106929Y357961D01*
X98211Y357961D02*
X98211Y362179D01*
X106929Y362179D01*
X106929Y357961D01*
X106929Y360861D02*
X98211Y360861D01*
X124211Y357961D02*
X132929Y357961D01*
X124211Y357961D02*
X124211Y362179D01*
X132929Y362179D01*
X132929Y357961D01*
X132929Y360861D02*
X124211Y360861D01*
X124211Y367461D02*
X132929Y367461D01*
X124211Y367461D02*
X124211Y371679D01*
X132929Y371679D01*
X132929Y367461D01*
X132929Y370361D02*
X124211Y370361D01*
X124211Y376961D02*
X132929Y376961D01*
X124211Y376961D02*
X124211Y381179D01*
X132929Y381179D01*
X132929Y376961D01*
X132929Y379861D02*
X124211Y379861D01*
D30*
X133510Y410820D03*
X133510Y391820D03*
X154510Y401320D03*
D18*
X64690Y364490D03*
X54690Y364490D03*
X87550Y374650D03*
X77550Y374650D03*
X87550Y364490D03*
X77550Y364490D03*
X53340Y393620D03*
X53340Y383620D03*
X53340Y403940D03*
X53340Y413940D03*
X25400Y628730D03*
X25400Y638730D03*
D31*
X0Y614680D03*
D32*
X-5080Y614680D03*
D31*
X0Y589280D03*
D32*
X-5080Y589280D03*
D31*
X0Y563880D03*
D32*
X-5080Y563880D03*
D31*
X0Y640080D03*
D32*
X-5080Y640080D03*
D31*
X0Y538480D03*
D32*
X-5080Y538480D03*
D31*
X0Y513080D03*
D32*
X-5080Y513080D03*
D31*
X0Y487680D03*
D32*
X-5080Y487680D03*
D31*
X0Y462280D03*
D32*
X-5080Y462280D03*
D31*
X0Y436880D03*
D32*
X-5080Y436880D03*
D31*
X0Y411480D03*
D32*
X-5080Y411480D03*
D31*
X0Y386080D03*
D32*
X-5080Y386080D03*
D31*
X0Y360680D03*
D32*
X-5080Y360680D03*
D31*
X203200Y360680D03*
D32*
X208280Y360680D03*
D31*
X203200Y386080D03*
D32*
X208280Y386080D03*
D31*
X203200Y411480D03*
D32*
X208280Y411480D03*
D31*
X203200Y436880D03*
D32*
X208280Y436880D03*
D31*
X203200Y462280D03*
D32*
X208280Y462280D03*
D31*
X203200Y487680D03*
D32*
X208280Y487680D03*
D31*
X203200Y513080D03*
D32*
X208280Y513080D03*
D31*
X203200Y538480D03*
D32*
X208280Y538480D03*
D31*
X203200Y563880D03*
D32*
X208280Y563880D03*
D31*
X203200Y589280D03*
D32*
X208280Y589280D03*
D31*
X203200Y614680D03*
D32*
X208280Y614680D03*
D31*
X203200Y640080D03*
D32*
X208280Y640080D03*
D33*
X82550Y344805D02*
X31750Y344805D01*
X120650Y344805D02*
X171450Y344805D01*
X171450Y655955D02*
X120650Y655955D01*
X82550Y655955D02*
X31750Y655955D01*
D34*
X176410Y442510D03*
X171410Y442510D03*
X166410Y442510D03*
X161410Y442510D03*
X161410Y416010D03*
X166410Y416010D03*
X171410Y416010D03*
X176410Y416010D03*
D18*
X177800Y403780D03*
X177800Y393780D03*
X167640Y403780D03*
X167640Y393780D03*
D10*
X449580Y655955D03*
X271780Y344805D03*
D11*
X372110Y471170D03*
D12*
X344610Y437170D03*
X349610Y437170D03*
X354610Y437170D03*
X359610Y437170D03*
X364610Y437170D03*
X369610Y437170D03*
X374610Y437170D03*
X379610Y437170D03*
X384610Y437170D03*
X389610Y437170D03*
X394610Y437170D03*
X399610Y437170D03*
D13*
X406110Y443670D03*
X406110Y448670D03*
X406110Y453670D03*
X406110Y458670D03*
X406110Y463670D03*
X406110Y468670D03*
X406110Y473670D03*
X406110Y478670D03*
X406110Y483670D03*
X406110Y488670D03*
X406110Y493670D03*
X406110Y498670D03*
D12*
X399610Y505170D03*
X394610Y505170D03*
X389610Y505170D03*
X384610Y505170D03*
X379610Y505170D03*
X374610Y505170D03*
X369610Y505170D03*
X364610Y505170D03*
X359610Y505170D03*
X354610Y505170D03*
X349610Y505170D03*
X344610Y505170D03*
D13*
X338110Y498670D03*
X338110Y493670D03*
X338110Y488670D03*
X338110Y483670D03*
X338110Y478670D03*
X338110Y473670D03*
X338110Y468670D03*
X338110Y463670D03*
X338110Y458670D03*
X338110Y453670D03*
X338110Y448670D03*
X338110Y443670D03*
D14*
X344290Y583670D03*
X349290Y583670D03*
X354290Y583670D03*
X359290Y583670D03*
D15*
X366290Y590670D03*
X366290Y595670D03*
X366290Y600670D03*
X366290Y605670D03*
D14*
X359290Y612670D03*
X354290Y612670D03*
X349290Y612670D03*
X344290Y612670D03*
D15*
X337290Y605670D03*
X337290Y600670D03*
X337290Y595670D03*
X337290Y590670D03*
D16*
X351790Y598170D03*
D17*
X395400Y621180D03*
X395400Y614680D03*
X395400Y608180D03*
X417400Y608180D03*
X417400Y614680D03*
X417400Y621180D03*
D18*
X394890Y634365D03*
X384890Y634365D03*
X394335Y595550D03*
X394335Y585550D03*
X430530Y604600D03*
X430530Y614600D03*
D19*
X416780Y574040D03*
X444280Y574040D03*
D20*
X430530Y589290D03*
X430530Y558790D03*
D18*
X296465Y360045D03*
X286465Y360045D03*
D21*
X299235Y392425D03*
X292735Y392425D03*
X286235Y392425D03*
X286235Y375925D03*
X299235Y375925D03*
D18*
X299640Y405130D03*
X289640Y405130D03*
X415210Y359410D03*
X405210Y359410D03*
X417910Y634365D03*
X427910Y634365D03*
X425370Y544830D03*
X415370Y544830D03*
X438785Y513795D03*
X438785Y523795D03*
X419735Y513795D03*
X419735Y523795D03*
X429260Y513795D03*
X429260Y523795D03*
X438785Y489030D03*
X438785Y499030D03*
X419735Y489030D03*
X419735Y499030D03*
X429260Y489030D03*
X429260Y499030D03*
X327660Y417750D03*
X327660Y407750D03*
X346710Y417750D03*
X346710Y407750D03*
X337185Y417750D03*
X337185Y407750D03*
X356235Y417750D03*
X356235Y407750D03*
X375285Y417750D03*
X375285Y407750D03*
X365760Y417750D03*
X365760Y407750D03*
X306150Y427355D03*
X316150Y427355D03*
X316150Y436880D03*
X306150Y436880D03*
X294005Y535385D03*
X294005Y545385D03*
X303530Y525700D03*
X303530Y515700D03*
X322580Y525700D03*
X322580Y515700D03*
X313055Y525700D03*
X313055Y515700D03*
X316150Y446405D03*
X306150Y446405D03*
X316150Y455930D03*
X306150Y455930D03*
X316150Y474980D03*
X306150Y474980D03*
X316150Y465455D03*
X306150Y465455D03*
D22*
X291450Y493700D03*
X291450Y484200D03*
X305450Y484200D03*
X305450Y493700D03*
D18*
X322500Y502920D03*
X312500Y502920D03*
X292180Y502920D03*
X302180Y502920D03*
X315040Y492760D03*
X325040Y492760D03*
X322580Y535385D03*
X322580Y545385D03*
X313055Y535385D03*
X313055Y545385D03*
X303530Y535385D03*
X303530Y545385D03*
X354330Y516970D03*
X354330Y526970D03*
X354330Y547450D03*
X354330Y557450D03*
X364410Y537210D03*
X354410Y537210D03*
D23*
X354330Y565912D03*
X354330Y574548D03*
D18*
X335995Y643890D03*
X345995Y643890D03*
X345995Y633730D03*
X335995Y633730D03*
X333375Y562055D03*
X333375Y572055D03*
X333375Y542370D03*
X333375Y552370D03*
D24*
X318262Y600710D03*
X326898Y600710D03*
D18*
X309245Y602535D03*
X309245Y592535D03*
X299720Y602535D03*
X299720Y592535D03*
D24*
X348107Y622935D03*
X356743Y622935D03*
X357632Y633730D03*
X366268Y633730D03*
X403098Y523240D03*
X394462Y523240D03*
X403098Y574040D03*
X394462Y574040D03*
D25*
X394335Y544640D03*
X394335Y552640D03*
D18*
X375285Y624285D03*
X375285Y634285D03*
X323215Y622855D03*
X323215Y612855D03*
X313055Y622855D03*
X313055Y612855D03*
X302895Y622855D03*
X302895Y612855D03*
X377825Y578565D03*
X377825Y588565D03*
X377825Y602695D03*
X377825Y612695D03*
X290195Y602535D03*
X290195Y592535D03*
X438785Y477440D03*
X438785Y467440D03*
X419735Y477440D03*
X419735Y467440D03*
X429260Y477440D03*
X429260Y467440D03*
D26*
X300380Y642175D03*
X300380Y634175D03*
X319380Y634175D03*
X319380Y642175D03*
D18*
X425530Y359410D03*
X435530Y359410D03*
D27*
X287354Y581635D03*
X287354Y572135D03*
X287354Y562635D03*
X313356Y562635D03*
X313356Y581635D03*
D18*
X377825Y563800D03*
X377825Y553800D03*
X377825Y529670D03*
X377825Y539670D03*
X346630Y384810D03*
X336630Y384810D03*
D28*
X410600Y374650D03*
X427600Y374650D03*
D18*
X323850Y384730D03*
X323850Y374730D03*
D29*
X357291Y376961D02*
X366009Y376961D01*
X357291Y376961D02*
X357291Y381179D01*
X366009Y381179D01*
X366009Y376961D01*
X366009Y379861D02*
X357291Y379861D01*
X357291Y367461D02*
X366009Y367461D01*
X357291Y367461D02*
X357291Y371679D01*
X366009Y371679D01*
X366009Y367461D01*
X366009Y370361D02*
X357291Y370361D01*
X357291Y357961D02*
X366009Y357961D01*
X357291Y357961D02*
X357291Y362179D01*
X366009Y362179D01*
X366009Y357961D01*
X366009Y360861D02*
X357291Y360861D01*
X383291Y357961D02*
X392009Y357961D01*
X383291Y357961D02*
X383291Y362179D01*
X392009Y362179D01*
X392009Y357961D01*
X392009Y360861D02*
X383291Y360861D01*
X383291Y367461D02*
X392009Y367461D01*
X383291Y367461D02*
X383291Y371679D01*
X392009Y371679D01*
X392009Y367461D01*
X392009Y370361D02*
X383291Y370361D01*
X383291Y376961D02*
X392009Y376961D01*
X383291Y376961D02*
X383291Y381179D01*
X392009Y381179D01*
X392009Y376961D01*
X392009Y379861D02*
X383291Y379861D01*
D30*
X392590Y410820D03*
X392590Y391820D03*
X413590Y401320D03*
D18*
X323770Y364490D03*
X313770Y364490D03*
X346630Y374650D03*
X336630Y374650D03*
X346630Y364490D03*
X336630Y364490D03*
X312420Y393620D03*
X312420Y383620D03*
X312420Y403940D03*
X312420Y413940D03*
X284480Y628730D03*
X284480Y638730D03*
D31*
X259080Y614680D03*
D32*
X254000Y614680D03*
D31*
X259080Y589280D03*
D32*
X254000Y589280D03*
D31*
X259080Y563880D03*
D32*
X254000Y563880D03*
D31*
X259080Y640080D03*
D32*
X254000Y640080D03*
D31*
X259080Y538480D03*
D32*
X254000Y538480D03*
D31*
X259080Y513080D03*
D32*
X254000Y513080D03*
D31*
X259080Y487680D03*
D32*
X254000Y487680D03*
D31*
X259080Y462280D03*
D32*
X254000Y462280D03*
D31*
X259080Y436880D03*
D32*
X254000Y436880D03*
D31*
X259080Y411480D03*
D32*
X254000Y411480D03*
D31*
X259080Y386080D03*
D32*
X254000Y386080D03*
D31*
X259080Y360680D03*
D32*
X254000Y360680D03*
D31*
X462280Y360680D03*
D32*
X467360Y360680D03*
D31*
X462280Y386080D03*
D32*
X467360Y386080D03*
D31*
X462280Y411480D03*
D32*
X467360Y411480D03*
D31*
X462280Y436880D03*
D32*
X467360Y436880D03*
D31*
X462280Y462280D03*
D32*
X467360Y462280D03*
D31*
X462280Y487680D03*
D32*
X467360Y487680D03*
D31*
X462280Y513080D03*
D32*
X467360Y513080D03*
D31*
X462280Y538480D03*
D32*
X467360Y538480D03*
D31*
X462280Y563880D03*
D32*
X467360Y563880D03*
D31*
X462280Y589280D03*
D32*
X467360Y589280D03*
D31*
X462280Y614680D03*
D32*
X467360Y614680D03*
D31*
X462280Y640080D03*
D32*
X467360Y640080D03*
D33*
X341630Y344805D02*
X290830Y344805D01*
X379730Y344805D02*
X430530Y344805D01*
X430530Y655955D02*
X379730Y655955D01*
X341630Y655955D02*
X290830Y655955D01*
D34*
X435490Y442510D03*
X430490Y442510D03*
X425490Y442510D03*
X420490Y442510D03*
X420490Y416010D03*
X425490Y416010D03*
X430490Y416010D03*
X435490Y416010D03*
D18*
X436880Y403780D03*
X436880Y393780D03*
X426720Y403780D03*
X426720Y393780D03*
D10*
X708660Y655955D03*
X530860Y344805D03*
D11*
X631190Y471170D03*
D12*
X603690Y437170D03*
X608690Y437170D03*
X613690Y437170D03*
X618690Y437170D03*
X623690Y437170D03*
X628690Y437170D03*
X633690Y437170D03*
X638690Y437170D03*
X643690Y437170D03*
X648690Y437170D03*
X653690Y437170D03*
X658690Y437170D03*
D13*
X665190Y443670D03*
X665190Y448670D03*
X665190Y453670D03*
X665190Y458670D03*
X665190Y463670D03*
X665190Y468670D03*
X665190Y473670D03*
X665190Y478670D03*
X665190Y483670D03*
X665190Y488670D03*
X665190Y493670D03*
X665190Y498670D03*
D12*
X658690Y505170D03*
X653690Y505170D03*
X648690Y505170D03*
X643690Y505170D03*
X638690Y505170D03*
X633690Y505170D03*
X628690Y505170D03*
X623690Y505170D03*
X618690Y505170D03*
X613690Y505170D03*
X608690Y505170D03*
X603690Y505170D03*
D13*
X597190Y498670D03*
X597190Y493670D03*
X597190Y488670D03*
X597190Y483670D03*
X597190Y478670D03*
X597190Y473670D03*
X597190Y468670D03*
X597190Y463670D03*
X597190Y458670D03*
X597190Y453670D03*
X597190Y448670D03*
X597190Y443670D03*
D14*
X603370Y583670D03*
X608370Y583670D03*
X613370Y583670D03*
X618370Y583670D03*
D15*
X625370Y590670D03*
X625370Y595670D03*
X625370Y600670D03*
X625370Y605670D03*
D14*
X618370Y612670D03*
X613370Y612670D03*
X608370Y612670D03*
X603370Y612670D03*
D15*
X596370Y605670D03*
X596370Y600670D03*
X596370Y595670D03*
X596370Y590670D03*
D16*
X610870Y598170D03*
D17*
X654480Y621180D03*
X654480Y614680D03*
X654480Y608180D03*
X676480Y608180D03*
X676480Y614680D03*
X676480Y621180D03*
D18*
X653970Y634365D03*
X643970Y634365D03*
X653415Y595550D03*
X653415Y585550D03*
X689610Y604600D03*
X689610Y614600D03*
D19*
X675860Y574040D03*
X703360Y574040D03*
D20*
X689610Y589290D03*
X689610Y558790D03*
D18*
X555545Y360045D03*
X545545Y360045D03*
D21*
X558315Y392425D03*
X551815Y392425D03*
X545315Y392425D03*
X545315Y375925D03*
X558315Y375925D03*
D18*
X558720Y405130D03*
X548720Y405130D03*
X674290Y359410D03*
X664290Y359410D03*
X676990Y634365D03*
X686990Y634365D03*
X684450Y544830D03*
X674450Y544830D03*
X697865Y513795D03*
X697865Y523795D03*
X678815Y513795D03*
X678815Y523795D03*
X688340Y513795D03*
X688340Y523795D03*
X697865Y489030D03*
X697865Y499030D03*
X678815Y489030D03*
X678815Y499030D03*
X688340Y489030D03*
X688340Y499030D03*
X586740Y417750D03*
X586740Y407750D03*
X605790Y417750D03*
X605790Y407750D03*
X596265Y417750D03*
X596265Y407750D03*
X615315Y417750D03*
X615315Y407750D03*
X634365Y417750D03*
X634365Y407750D03*
X624840Y417750D03*
X624840Y407750D03*
X565230Y427355D03*
X575230Y427355D03*
X575230Y436880D03*
X565230Y436880D03*
X553085Y535385D03*
X553085Y545385D03*
X562610Y525700D03*
X562610Y515700D03*
X581660Y525700D03*
X581660Y515700D03*
X572135Y525700D03*
X572135Y515700D03*
X575230Y446405D03*
X565230Y446405D03*
X575230Y455930D03*
X565230Y455930D03*
X575230Y474980D03*
X565230Y474980D03*
X575230Y465455D03*
X565230Y465455D03*
D22*
X550530Y493700D03*
X550530Y484200D03*
X564530Y484200D03*
X564530Y493700D03*
D18*
X581580Y502920D03*
X571580Y502920D03*
X551260Y502920D03*
X561260Y502920D03*
X574120Y492760D03*
X584120Y492760D03*
X581660Y535385D03*
X581660Y545385D03*
X572135Y535385D03*
X572135Y545385D03*
X562610Y535385D03*
X562610Y545385D03*
X613410Y516970D03*
X613410Y526970D03*
X613410Y547450D03*
X613410Y557450D03*
X623490Y537210D03*
X613490Y537210D03*
D23*
X613410Y565912D03*
X613410Y574548D03*
D18*
X595075Y643890D03*
X605075Y643890D03*
X605075Y633730D03*
X595075Y633730D03*
X592455Y562055D03*
X592455Y572055D03*
X592455Y542370D03*
X592455Y552370D03*
D24*
X577342Y600710D03*
X585978Y600710D03*
D18*
X568325Y602535D03*
X568325Y592535D03*
X558800Y602535D03*
X558800Y592535D03*
D24*
X607187Y622935D03*
X615823Y622935D03*
X616712Y633730D03*
X625348Y633730D03*
X662178Y523240D03*
X653542Y523240D03*
X662178Y574040D03*
X653542Y574040D03*
D25*
X653415Y544640D03*
X653415Y552640D03*
D18*
X634365Y624285D03*
X634365Y634285D03*
X582295Y622855D03*
X582295Y612855D03*
X572135Y622855D03*
X572135Y612855D03*
X561975Y622855D03*
X561975Y612855D03*
X636905Y578565D03*
X636905Y588565D03*
X636905Y602695D03*
X636905Y612695D03*
X549275Y602535D03*
X549275Y592535D03*
X697865Y477440D03*
X697865Y467440D03*
X678815Y477440D03*
X678815Y467440D03*
X688340Y477440D03*
X688340Y467440D03*
D26*
X559460Y642175D03*
X559460Y634175D03*
X578460Y634175D03*
X578460Y642175D03*
D18*
X684610Y359410D03*
X694610Y359410D03*
D27*
X546434Y581635D03*
X546434Y572135D03*
X546434Y562635D03*
X572436Y562635D03*
X572436Y581635D03*
D18*
X636905Y563800D03*
X636905Y553800D03*
X636905Y529670D03*
X636905Y539670D03*
X605710Y384810D03*
X595710Y384810D03*
D28*
X669680Y374650D03*
X686680Y374650D03*
D18*
X582930Y384730D03*
X582930Y374730D03*
D29*
X616371Y376961D02*
X625089Y376961D01*
X616371Y376961D02*
X616371Y381179D01*
X625089Y381179D01*
X625089Y376961D01*
X625089Y379861D02*
X616371Y379861D01*
X616371Y367461D02*
X625089Y367461D01*
X616371Y367461D02*
X616371Y371679D01*
X625089Y371679D01*
X625089Y367461D01*
X625089Y370361D02*
X616371Y370361D01*
X616371Y357961D02*
X625089Y357961D01*
X616371Y357961D02*
X616371Y362179D01*
X625089Y362179D01*
X625089Y357961D01*
X625089Y360861D02*
X616371Y360861D01*
X642371Y357961D02*
X651089Y357961D01*
X642371Y357961D02*
X642371Y362179D01*
X651089Y362179D01*
X651089Y357961D01*
X651089Y360861D02*
X642371Y360861D01*
X642371Y367461D02*
X651089Y367461D01*
X642371Y367461D02*
X642371Y371679D01*
X651089Y371679D01*
X651089Y367461D01*
X651089Y370361D02*
X642371Y370361D01*
X642371Y376961D02*
X651089Y376961D01*
X642371Y376961D02*
X642371Y381179D01*
X651089Y381179D01*
X651089Y376961D01*
X651089Y379861D02*
X642371Y379861D01*
D30*
X651670Y410820D03*
X651670Y391820D03*
X672670Y401320D03*
D18*
X582850Y364490D03*
X572850Y364490D03*
X605710Y374650D03*
X595710Y374650D03*
X605710Y364490D03*
X595710Y364490D03*
X571500Y393620D03*
X571500Y383620D03*
X571500Y403940D03*
X571500Y413940D03*
X543560Y628730D03*
X543560Y638730D03*
D31*
X518160Y614680D03*
D32*
X513080Y614680D03*
D31*
X518160Y589280D03*
D32*
X513080Y589280D03*
D31*
X518160Y563880D03*
D32*
X513080Y563880D03*
D31*
X518160Y640080D03*
D32*
X513080Y640080D03*
D31*
X518160Y538480D03*
D32*
X513080Y538480D03*
D31*
X518160Y513080D03*
D32*
X513080Y513080D03*
D31*
X518160Y487680D03*
D32*
X513080Y487680D03*
D31*
X518160Y462280D03*
D32*
X513080Y462280D03*
D31*
X518160Y436880D03*
D32*
X513080Y436880D03*
D31*
X518160Y411480D03*
D32*
X513080Y411480D03*
D31*
X518160Y386080D03*
D32*
X513080Y386080D03*
D31*
X518160Y360680D03*
D32*
X513080Y360680D03*
D31*
X721360Y360680D03*
D32*
X726440Y360680D03*
D31*
X721360Y386080D03*
D32*
X726440Y386080D03*
D31*
X721360Y411480D03*
D32*
X726440Y411480D03*
D31*
X721360Y436880D03*
D32*
X726440Y436880D03*
D31*
X721360Y462280D03*
D32*
X726440Y462280D03*
D31*
X721360Y487680D03*
D32*
X726440Y487680D03*
D31*
X721360Y513080D03*
D32*
X726440Y513080D03*
D31*
X721360Y538480D03*
D32*
X726440Y538480D03*
D31*
X721360Y563880D03*
D32*
X726440Y563880D03*
D31*
X721360Y589280D03*
D32*
X726440Y589280D03*
D31*
X721360Y614680D03*
D32*
X726440Y614680D03*
D31*
X721360Y640080D03*
D32*
X726440Y640080D03*
D33*
X600710Y344805D02*
X549910Y344805D01*
X638810Y344805D02*
X689610Y344805D01*
X689610Y655955D02*
X638810Y655955D01*
X600710Y655955D02*
X549910Y655955D01*
D34*
X694570Y442510D03*
X689570Y442510D03*
X684570Y442510D03*
X679570Y442510D03*
X679570Y416010D03*
X684570Y416010D03*
X689570Y416010D03*
X694570Y416010D03*
D18*
X695960Y403780D03*
X695960Y393780D03*
X685800Y403780D03*
X685800Y393780D03*
D10*
X967740Y655955D03*
X789940Y344805D03*
D11*
X890270Y471170D03*
D12*
X862770Y437170D03*
X867770Y437170D03*
X872770Y437170D03*
X877770Y437170D03*
X882770Y437170D03*
X887770Y437170D03*
X892770Y437170D03*
X897770Y437170D03*
X902770Y437170D03*
X907770Y437170D03*
X912770Y437170D03*
X917770Y437170D03*
D13*
X924270Y443670D03*
X924270Y448670D03*
X924270Y453670D03*
X924270Y458670D03*
X924270Y463670D03*
X924270Y468670D03*
X924270Y473670D03*
X924270Y478670D03*
X924270Y483670D03*
X924270Y488670D03*
X924270Y493670D03*
X924270Y498670D03*
D12*
X917770Y505170D03*
X912770Y505170D03*
X907770Y505170D03*
X902770Y505170D03*
X897770Y505170D03*
X892770Y505170D03*
X887770Y505170D03*
X882770Y505170D03*
X877770Y505170D03*
X872770Y505170D03*
X867770Y505170D03*
X862770Y505170D03*
D13*
X856270Y498670D03*
X856270Y493670D03*
X856270Y488670D03*
X856270Y483670D03*
X856270Y478670D03*
X856270Y473670D03*
X856270Y468670D03*
X856270Y463670D03*
X856270Y458670D03*
X856270Y453670D03*
X856270Y448670D03*
X856270Y443670D03*
D14*
X862450Y583670D03*
X867450Y583670D03*
X872450Y583670D03*
X877450Y583670D03*
D15*
X884450Y590670D03*
X884450Y595670D03*
X884450Y600670D03*
X884450Y605670D03*
D14*
X877450Y612670D03*
X872450Y612670D03*
X867450Y612670D03*
X862450Y612670D03*
D15*
X855450Y605670D03*
X855450Y600670D03*
X855450Y595670D03*
X855450Y590670D03*
D16*
X869950Y598170D03*
D17*
X913560Y621180D03*
X913560Y614680D03*
X913560Y608180D03*
X935560Y608180D03*
X935560Y614680D03*
X935560Y621180D03*
D18*
X913050Y634365D03*
X903050Y634365D03*
X912495Y595550D03*
X912495Y585550D03*
X948690Y604600D03*
X948690Y614600D03*
D19*
X934940Y574040D03*
X962440Y574040D03*
D20*
X948690Y589290D03*
X948690Y558790D03*
D18*
X814625Y360045D03*
X804625Y360045D03*
D21*
X817395Y392425D03*
X810895Y392425D03*
X804395Y392425D03*
X804395Y375925D03*
X817395Y375925D03*
D18*
X817800Y405130D03*
X807800Y405130D03*
X933370Y359410D03*
X923370Y359410D03*
X936070Y634365D03*
X946070Y634365D03*
X943530Y544830D03*
X933530Y544830D03*
X956945Y513795D03*
X956945Y523795D03*
X937895Y513795D03*
X937895Y523795D03*
X947420Y513795D03*
X947420Y523795D03*
X956945Y489030D03*
X956945Y499030D03*
X937895Y489030D03*
X937895Y499030D03*
X947420Y489030D03*
X947420Y499030D03*
X845820Y417750D03*
X845820Y407750D03*
X864870Y417750D03*
X864870Y407750D03*
X855345Y417750D03*
X855345Y407750D03*
X874395Y417750D03*
X874395Y407750D03*
X893445Y417750D03*
X893445Y407750D03*
X883920Y417750D03*
X883920Y407750D03*
X824310Y427355D03*
X834310Y427355D03*
X834310Y436880D03*
X824310Y436880D03*
X812165Y535385D03*
X812165Y545385D03*
X821690Y525700D03*
X821690Y515700D03*
X840740Y525700D03*
X840740Y515700D03*
X831215Y525700D03*
X831215Y515700D03*
X834310Y446405D03*
X824310Y446405D03*
X834310Y455930D03*
X824310Y455930D03*
X834310Y474980D03*
X824310Y474980D03*
X834310Y465455D03*
X824310Y465455D03*
D22*
X809610Y493700D03*
X809610Y484200D03*
X823610Y484200D03*
X823610Y493700D03*
D18*
X840660Y502920D03*
X830660Y502920D03*
X810340Y502920D03*
X820340Y502920D03*
X833200Y492760D03*
X843200Y492760D03*
X840740Y535385D03*
X840740Y545385D03*
X831215Y535385D03*
X831215Y545385D03*
X821690Y535385D03*
X821690Y545385D03*
X872490Y516970D03*
X872490Y526970D03*
X872490Y547450D03*
X872490Y557450D03*
X882570Y537210D03*
X872570Y537210D03*
D23*
X872490Y565912D03*
X872490Y574548D03*
D18*
X854155Y643890D03*
X864155Y643890D03*
X864155Y633730D03*
X854155Y633730D03*
X851535Y562055D03*
X851535Y572055D03*
X851535Y542370D03*
X851535Y552370D03*
D24*
X836422Y600710D03*
X845058Y600710D03*
D18*
X827405Y602535D03*
X827405Y592535D03*
X817880Y602535D03*
X817880Y592535D03*
D24*
X866267Y622935D03*
X874903Y622935D03*
X875792Y633730D03*
X884428Y633730D03*
X921258Y523240D03*
X912622Y523240D03*
X921258Y574040D03*
X912622Y574040D03*
D25*
X912495Y544640D03*
X912495Y552640D03*
D18*
X893445Y624285D03*
X893445Y634285D03*
X841375Y622855D03*
X841375Y612855D03*
X831215Y622855D03*
X831215Y612855D03*
X821055Y622855D03*
X821055Y612855D03*
X895985Y578565D03*
X895985Y588565D03*
X895985Y602695D03*
X895985Y612695D03*
X808355Y602535D03*
X808355Y592535D03*
X956945Y477440D03*
X956945Y467440D03*
X937895Y477440D03*
X937895Y467440D03*
X947420Y477440D03*
X947420Y467440D03*
D26*
X818540Y642175D03*
X818540Y634175D03*
X837540Y634175D03*
X837540Y642175D03*
D18*
X943690Y359410D03*
X953690Y359410D03*
D27*
X805514Y581635D03*
X805514Y572135D03*
X805514Y562635D03*
X831516Y562635D03*
X831516Y581635D03*
D18*
X895985Y563800D03*
X895985Y553800D03*
X895985Y529670D03*
X895985Y539670D03*
X864790Y384810D03*
X854790Y384810D03*
D28*
X928760Y374650D03*
X945760Y374650D03*
D18*
X842010Y384730D03*
X842010Y374730D03*
D29*
X875451Y376961D02*
X884169Y376961D01*
X875451Y376961D02*
X875451Y381179D01*
X884169Y381179D01*
X884169Y376961D01*
X884169Y379861D02*
X875451Y379861D01*
X875451Y367461D02*
X884169Y367461D01*
X875451Y367461D02*
X875451Y371679D01*
X884169Y371679D01*
X884169Y367461D01*
X884169Y370361D02*
X875451Y370361D01*
X875451Y357961D02*
X884169Y357961D01*
X875451Y357961D02*
X875451Y362179D01*
X884169Y362179D01*
X884169Y357961D01*
X884169Y360861D02*
X875451Y360861D01*
X901451Y357961D02*
X910169Y357961D01*
X901451Y357961D02*
X901451Y362179D01*
X910169Y362179D01*
X910169Y357961D01*
X910169Y360861D02*
X901451Y360861D01*
X901451Y367461D02*
X910169Y367461D01*
X901451Y367461D02*
X901451Y371679D01*
X910169Y371679D01*
X910169Y367461D01*
X910169Y370361D02*
X901451Y370361D01*
X901451Y376961D02*
X910169Y376961D01*
X901451Y376961D02*
X901451Y381179D01*
X910169Y381179D01*
X910169Y376961D01*
X910169Y379861D02*
X901451Y379861D01*
D30*
X910750Y410820D03*
X910750Y391820D03*
X931750Y401320D03*
D18*
X841930Y364490D03*
X831930Y364490D03*
X864790Y374650D03*
X854790Y374650D03*
X864790Y364490D03*
X854790Y364490D03*
X830580Y393620D03*
X830580Y383620D03*
X830580Y403940D03*
X830580Y413940D03*
X802640Y628730D03*
X802640Y638730D03*
D31*
X777240Y614680D03*
D32*
X772160Y614680D03*
D31*
X777240Y589280D03*
D32*
X772160Y589280D03*
D31*
X777240Y563880D03*
D32*
X772160Y563880D03*
D31*
X777240Y640080D03*
D32*
X772160Y640080D03*
D31*
X777240Y538480D03*
D32*
X772160Y538480D03*
D31*
X777240Y513080D03*
D32*
X772160Y513080D03*
D31*
X777240Y487680D03*
D32*
X772160Y487680D03*
D31*
X777240Y462280D03*
D32*
X772160Y462280D03*
D31*
X777240Y436880D03*
D32*
X772160Y436880D03*
D31*
X777240Y411480D03*
D32*
X772160Y411480D03*
D31*
X777240Y386080D03*
D32*
X772160Y386080D03*
D31*
X777240Y360680D03*
D32*
X772160Y360680D03*
D31*
X980440Y360680D03*
D32*
X985520Y360680D03*
D31*
X980440Y386080D03*
D32*
X985520Y386080D03*
D31*
X980440Y411480D03*
D32*
X985520Y411480D03*
D31*
X980440Y436880D03*
D32*
X985520Y436880D03*
D31*
X980440Y462280D03*
D32*
X985520Y462280D03*
D31*
X980440Y487680D03*
D32*
X985520Y487680D03*
D31*
X980440Y513080D03*
D32*
X985520Y513080D03*
D31*
X980440Y538480D03*
D32*
X985520Y538480D03*
D31*
X980440Y563880D03*
D32*
X985520Y563880D03*
D31*
X980440Y589280D03*
D32*
X985520Y589280D03*
D31*
X980440Y614680D03*
D32*
X985520Y614680D03*
D31*
X980440Y640080D03*
D32*
X985520Y640080D03*
D33*
X859790Y344805D02*
X808990Y344805D01*
X897890Y344805D02*
X948690Y344805D01*
X948690Y655955D02*
X897890Y655955D01*
X859790Y655955D02*
X808990Y655955D01*
D34*
X953650Y442510D03*
X948650Y442510D03*
X943650Y442510D03*
X938650Y442510D03*
X938650Y416010D03*
X943650Y416010D03*
X948650Y416010D03*
X953650Y416010D03*
D18*
X955040Y403780D03*
X955040Y393780D03*
X944880Y403780D03*
X944880Y393780D03*
D10*
X1226820Y655955D03*
X1049020Y344805D03*
D11*
X1149350Y471170D03*
D12*
X1121850Y437170D03*
X1126850Y437170D03*
X1131850Y437170D03*
X1136850Y437170D03*
X1141850Y437170D03*
X1146850Y437170D03*
X1151850Y437170D03*
X1156850Y437170D03*
X1161850Y437170D03*
X1166850Y437170D03*
X1171850Y437170D03*
X1176850Y437170D03*
D13*
X1183350Y443670D03*
X1183350Y448670D03*
X1183350Y453670D03*
X1183350Y458670D03*
X1183350Y463670D03*
X1183350Y468670D03*
X1183350Y473670D03*
X1183350Y478670D03*
X1183350Y483670D03*
X1183350Y488670D03*
X1183350Y493670D03*
X1183350Y498670D03*
D12*
X1176850Y505170D03*
X1171850Y505170D03*
X1166850Y505170D03*
X1161850Y505170D03*
X1156850Y505170D03*
X1151850Y505170D03*
X1146850Y505170D03*
X1141850Y505170D03*
X1136850Y505170D03*
X1131850Y505170D03*
X1126850Y505170D03*
X1121850Y505170D03*
D13*
X1115350Y498670D03*
X1115350Y493670D03*
X1115350Y488670D03*
X1115350Y483670D03*
X1115350Y478670D03*
X1115350Y473670D03*
X1115350Y468670D03*
X1115350Y463670D03*
X1115350Y458670D03*
X1115350Y453670D03*
X1115350Y448670D03*
X1115350Y443670D03*
D14*
X1121530Y583670D03*
X1126530Y583670D03*
X1131530Y583670D03*
X1136530Y583670D03*
D15*
X1143530Y590670D03*
X1143530Y595670D03*
X1143530Y600670D03*
X1143530Y605670D03*
D14*
X1136530Y612670D03*
X1131530Y612670D03*
X1126530Y612670D03*
X1121530Y612670D03*
D15*
X1114530Y605670D03*
X1114530Y600670D03*
X1114530Y595670D03*
X1114530Y590670D03*
D16*
X1129030Y598170D03*
D17*
X1172640Y621180D03*
X1172640Y614680D03*
X1172640Y608180D03*
X1194640Y608180D03*
X1194640Y614680D03*
X1194640Y621180D03*
D18*
X1172130Y634365D03*
X1162130Y634365D03*
X1171575Y595550D03*
X1171575Y585550D03*
X1207770Y604600D03*
X1207770Y614600D03*
D19*
X1194020Y574040D03*
X1221520Y574040D03*
D20*
X1207770Y589290D03*
X1207770Y558790D03*
D18*
X1073705Y360045D03*
X1063705Y360045D03*
D21*
X1076475Y392425D03*
X1069975Y392425D03*
X1063475Y392425D03*
X1063475Y375925D03*
X1076475Y375925D03*
D18*
X1076880Y405130D03*
X1066880Y405130D03*
X1192450Y359410D03*
X1182450Y359410D03*
X1195150Y634365D03*
X1205150Y634365D03*
X1202610Y544830D03*
X1192610Y544830D03*
X1216025Y513795D03*
X1216025Y523795D03*
X1196975Y513795D03*
X1196975Y523795D03*
X1206500Y513795D03*
X1206500Y523795D03*
X1216025Y489030D03*
X1216025Y499030D03*
X1196975Y489030D03*
X1196975Y499030D03*
X1206500Y489030D03*
X1206500Y499030D03*
X1104900Y417750D03*
X1104900Y407750D03*
X1123950Y417750D03*
X1123950Y407750D03*
X1114425Y417750D03*
X1114425Y407750D03*
X1133475Y417750D03*
X1133475Y407750D03*
X1152525Y417750D03*
X1152525Y407750D03*
X1143000Y417750D03*
X1143000Y407750D03*
X1083390Y427355D03*
X1093390Y427355D03*
X1093390Y436880D03*
X1083390Y436880D03*
X1071245Y535385D03*
X1071245Y545385D03*
X1080770Y525700D03*
X1080770Y515700D03*
X1099820Y525700D03*
X1099820Y515700D03*
X1090295Y525700D03*
X1090295Y515700D03*
X1093390Y446405D03*
X1083390Y446405D03*
X1093390Y455930D03*
X1083390Y455930D03*
X1093390Y474980D03*
X1083390Y474980D03*
X1093390Y465455D03*
X1083390Y465455D03*
D22*
X1068690Y493700D03*
X1068690Y484200D03*
X1082690Y484200D03*
X1082690Y493700D03*
D18*
X1099740Y502920D03*
X1089740Y502920D03*
X1069420Y502920D03*
X1079420Y502920D03*
X1092280Y492760D03*
X1102280Y492760D03*
X1099820Y535385D03*
X1099820Y545385D03*
X1090295Y535385D03*
X1090295Y545385D03*
X1080770Y535385D03*
X1080770Y545385D03*
X1131570Y516970D03*
X1131570Y526970D03*
X1131570Y547450D03*
X1131570Y557450D03*
X1141650Y537210D03*
X1131650Y537210D03*
D23*
X1131570Y565912D03*
X1131570Y574548D03*
D18*
X1113235Y643890D03*
X1123235Y643890D03*
X1123235Y633730D03*
X1113235Y633730D03*
X1110615Y562055D03*
X1110615Y572055D03*
X1110615Y542370D03*
X1110615Y552370D03*
D24*
X1095502Y600710D03*
X1104138Y600710D03*
D18*
X1086485Y602535D03*
X1086485Y592535D03*
X1076960Y602535D03*
X1076960Y592535D03*
D24*
X1125347Y622935D03*
X1133983Y622935D03*
X1134872Y633730D03*
X1143508Y633730D03*
X1180338Y523240D03*
X1171702Y523240D03*
X1180338Y574040D03*
X1171702Y574040D03*
D25*
X1171575Y544640D03*
X1171575Y552640D03*
D18*
X1152525Y624285D03*
X1152525Y634285D03*
X1100455Y622855D03*
X1100455Y612855D03*
X1090295Y622855D03*
X1090295Y612855D03*
X1080135Y622855D03*
X1080135Y612855D03*
X1155065Y578565D03*
X1155065Y588565D03*
X1155065Y602695D03*
X1155065Y612695D03*
X1067435Y602535D03*
X1067435Y592535D03*
X1216025Y477440D03*
X1216025Y467440D03*
X1196975Y477440D03*
X1196975Y467440D03*
X1206500Y477440D03*
X1206500Y467440D03*
D26*
X1077620Y642175D03*
X1077620Y634175D03*
X1096620Y634175D03*
X1096620Y642175D03*
D18*
X1202770Y359410D03*
X1212770Y359410D03*
D27*
X1064594Y581635D03*
X1064594Y572135D03*
X1064594Y562635D03*
X1090596Y562635D03*
X1090596Y581635D03*
D18*
X1155065Y563800D03*
X1155065Y553800D03*
X1155065Y529670D03*
X1155065Y539670D03*
X1123870Y384810D03*
X1113870Y384810D03*
D28*
X1187840Y374650D03*
X1204840Y374650D03*
D18*
X1101090Y384730D03*
X1101090Y374730D03*
D29*
X1134531Y376961D02*
X1143249Y376961D01*
X1134531Y376961D02*
X1134531Y381179D01*
X1143249Y381179D01*
X1143249Y376961D01*
X1143249Y379861D02*
X1134531Y379861D01*
X1134531Y367461D02*
X1143249Y367461D01*
X1134531Y367461D02*
X1134531Y371679D01*
X1143249Y371679D01*
X1143249Y367461D01*
X1143249Y370361D02*
X1134531Y370361D01*
X1134531Y357961D02*
X1143249Y357961D01*
X1134531Y357961D02*
X1134531Y362179D01*
X1143249Y362179D01*
X1143249Y357961D01*
X1143249Y360861D02*
X1134531Y360861D01*
X1160531Y357961D02*
X1169249Y357961D01*
X1160531Y357961D02*
X1160531Y362179D01*
X1169249Y362179D01*
X1169249Y357961D01*
X1169249Y360861D02*
X1160531Y360861D01*
X1160531Y367461D02*
X1169249Y367461D01*
X1160531Y367461D02*
X1160531Y371679D01*
X1169249Y371679D01*
X1169249Y367461D01*
X1169249Y370361D02*
X1160531Y370361D01*
X1160531Y376961D02*
X1169249Y376961D01*
X1160531Y376961D02*
X1160531Y381179D01*
X1169249Y381179D01*
X1169249Y376961D01*
X1169249Y379861D02*
X1160531Y379861D01*
D30*
X1169830Y410820D03*
X1169830Y391820D03*
X1190830Y401320D03*
D18*
X1101010Y364490D03*
X1091010Y364490D03*
X1123870Y374650D03*
X1113870Y374650D03*
X1123870Y364490D03*
X1113870Y364490D03*
X1089660Y393620D03*
X1089660Y383620D03*
X1089660Y403940D03*
X1089660Y413940D03*
X1061720Y628730D03*
X1061720Y638730D03*
D31*
X1036320Y614680D03*
D32*
X1031240Y614680D03*
D31*
X1036320Y589280D03*
D32*
X1031240Y589280D03*
D31*
X1036320Y563880D03*
D32*
X1031240Y563880D03*
D31*
X1036320Y640080D03*
D32*
X1031240Y640080D03*
D31*
X1036320Y538480D03*
D32*
X1031240Y538480D03*
D31*
X1036320Y513080D03*
D32*
X1031240Y513080D03*
D31*
X1036320Y487680D03*
D32*
X1031240Y487680D03*
D31*
X1036320Y462280D03*
D32*
X1031240Y462280D03*
D31*
X1036320Y436880D03*
D32*
X1031240Y436880D03*
D31*
X1036320Y411480D03*
D32*
X1031240Y411480D03*
D31*
X1036320Y386080D03*
D32*
X1031240Y386080D03*
D31*
X1036320Y360680D03*
D32*
X1031240Y360680D03*
D31*
X1239520Y360680D03*
D32*
X1244600Y360680D03*
D31*
X1239520Y386080D03*
D32*
X1244600Y386080D03*
D31*
X1239520Y411480D03*
D32*
X1244600Y411480D03*
D31*
X1239520Y436880D03*
D32*
X1244600Y436880D03*
D31*
X1239520Y462280D03*
D32*
X1244600Y462280D03*
D31*
X1239520Y487680D03*
D32*
X1244600Y487680D03*
D31*
X1239520Y513080D03*
D32*
X1244600Y513080D03*
D31*
X1239520Y538480D03*
D32*
X1244600Y538480D03*
D31*
X1239520Y563880D03*
D32*
X1244600Y563880D03*
D31*
X1239520Y589280D03*
D32*
X1244600Y589280D03*
D31*
X1239520Y614680D03*
D32*
X1244600Y614680D03*
D31*
X1239520Y640080D03*
D32*
X1244600Y640080D03*
D33*
X1118870Y344805D02*
X1068070Y344805D01*
X1156970Y344805D02*
X1207770Y344805D01*
X1207770Y655955D02*
X1156970Y655955D01*
X1118870Y655955D02*
X1068070Y655955D01*
D34*
X1212730Y442510D03*
X1207730Y442510D03*
X1202730Y442510D03*
X1197730Y442510D03*
X1197730Y416010D03*
X1202730Y416010D03*
X1207730Y416010D03*
X1212730Y416010D03*
D18*
X1214120Y403780D03*
X1214120Y393780D03*
X1203960Y403780D03*
X1203960Y393780D03*
D10*
X190500Y991235D03*
X12700Y680085D03*
D11*
X113030Y806450D03*
D12*
X85530Y772450D03*
X90530Y772450D03*
X95530Y772450D03*
X100530Y772450D03*
X105530Y772450D03*
X110530Y772450D03*
X115530Y772450D03*
X120530Y772450D03*
X125530Y772450D03*
X130530Y772450D03*
X135530Y772450D03*
X140530Y772450D03*
D13*
X147030Y778950D03*
X147030Y783950D03*
X147030Y788950D03*
X147030Y793950D03*
X147030Y798950D03*
X147030Y803950D03*
X147030Y808950D03*
X147030Y813950D03*
X147030Y818950D03*
X147030Y823950D03*
X147030Y828950D03*
X147030Y833950D03*
D12*
X140530Y840450D03*
X135530Y840450D03*
X130530Y840450D03*
X125530Y840450D03*
X120530Y840450D03*
X115530Y840450D03*
X110530Y840450D03*
X105530Y840450D03*
X100530Y840450D03*
X95530Y840450D03*
X90530Y840450D03*
X85530Y840450D03*
D13*
X79030Y833950D03*
X79030Y828950D03*
X79030Y823950D03*
X79030Y818950D03*
X79030Y813950D03*
X79030Y808950D03*
X79030Y803950D03*
X79030Y798950D03*
X79030Y793950D03*
X79030Y788950D03*
X79030Y783950D03*
X79030Y778950D03*
D14*
X85210Y918950D03*
X90210Y918950D03*
X95210Y918950D03*
X100210Y918950D03*
D15*
X107210Y925950D03*
X107210Y930950D03*
X107210Y935950D03*
X107210Y940950D03*
D14*
X100210Y947950D03*
X95210Y947950D03*
X90210Y947950D03*
X85210Y947950D03*
D15*
X78210Y940950D03*
X78210Y935950D03*
X78210Y930950D03*
X78210Y925950D03*
D16*
X92710Y933450D03*
D17*
X136320Y956460D03*
X136320Y949960D03*
X136320Y943460D03*
X158320Y943460D03*
X158320Y949960D03*
X158320Y956460D03*
D18*
X135810Y969645D03*
X125810Y969645D03*
X135255Y930830D03*
X135255Y920830D03*
X171450Y939880D03*
X171450Y949880D03*
D19*
X157700Y909320D03*
X185200Y909320D03*
D20*
X171450Y924570D03*
X171450Y894070D03*
D18*
X37385Y695325D03*
X27385Y695325D03*
D21*
X40155Y727705D03*
X33655Y727705D03*
X27155Y727705D03*
X27155Y711205D03*
X40155Y711205D03*
D18*
X40560Y740410D03*
X30560Y740410D03*
X156130Y694690D03*
X146130Y694690D03*
X158830Y969645D03*
X168830Y969645D03*
X166290Y880110D03*
X156290Y880110D03*
X179705Y849075D03*
X179705Y859075D03*
X160655Y849075D03*
X160655Y859075D03*
X170180Y849075D03*
X170180Y859075D03*
X179705Y824310D03*
X179705Y834310D03*
X160655Y824310D03*
X160655Y834310D03*
X170180Y824310D03*
X170180Y834310D03*
X68580Y753030D03*
X68580Y743030D03*
X87630Y753030D03*
X87630Y743030D03*
X78105Y753030D03*
X78105Y743030D03*
X97155Y753030D03*
X97155Y743030D03*
X116205Y753030D03*
X116205Y743030D03*
X106680Y753030D03*
X106680Y743030D03*
X47070Y762635D03*
X57070Y762635D03*
X57070Y772160D03*
X47070Y772160D03*
X34925Y870665D03*
X34925Y880665D03*
X44450Y860980D03*
X44450Y850980D03*
X63500Y860980D03*
X63500Y850980D03*
X53975Y860980D03*
X53975Y850980D03*
X57070Y781685D03*
X47070Y781685D03*
X57070Y791210D03*
X47070Y791210D03*
X57070Y810260D03*
X47070Y810260D03*
X57070Y800735D03*
X47070Y800735D03*
D22*
X32370Y828980D03*
X32370Y819480D03*
X46370Y819480D03*
X46370Y828980D03*
D18*
X63420Y838200D03*
X53420Y838200D03*
X33100Y838200D03*
X43100Y838200D03*
X55960Y828040D03*
X65960Y828040D03*
X63500Y870665D03*
X63500Y880665D03*
X53975Y870665D03*
X53975Y880665D03*
X44450Y870665D03*
X44450Y880665D03*
X95250Y852250D03*
X95250Y862250D03*
X95250Y882730D03*
X95250Y892730D03*
X105330Y872490D03*
X95330Y872490D03*
D23*
X95250Y901192D03*
X95250Y909828D03*
D18*
X76915Y979170D03*
X86915Y979170D03*
X86915Y969010D03*
X76915Y969010D03*
X74295Y897335D03*
X74295Y907335D03*
X74295Y877650D03*
X74295Y887650D03*
D24*
X59182Y935990D03*
X67818Y935990D03*
D18*
X50165Y937815D03*
X50165Y927815D03*
X40640Y937815D03*
X40640Y927815D03*
D24*
X89027Y958215D03*
X97663Y958215D03*
X98552Y969010D03*
X107188Y969010D03*
X144018Y858520D03*
X135382Y858520D03*
X144018Y909320D03*
X135382Y909320D03*
D25*
X135255Y879920D03*
X135255Y887920D03*
D18*
X116205Y959565D03*
X116205Y969565D03*
X64135Y958135D03*
X64135Y948135D03*
X53975Y958135D03*
X53975Y948135D03*
X43815Y958135D03*
X43815Y948135D03*
X118745Y913845D03*
X118745Y923845D03*
X118745Y937975D03*
X118745Y947975D03*
X31115Y937815D03*
X31115Y927815D03*
X179705Y812720D03*
X179705Y802720D03*
X160655Y812720D03*
X160655Y802720D03*
X170180Y812720D03*
X170180Y802720D03*
D26*
X41300Y977455D03*
X41300Y969455D03*
X60300Y969455D03*
X60300Y977455D03*
D18*
X166450Y694690D03*
X176450Y694690D03*
D27*
X28274Y916915D03*
X28274Y907415D03*
X28274Y897915D03*
X54276Y897915D03*
X54276Y916915D03*
D18*
X118745Y899080D03*
X118745Y889080D03*
X118745Y864950D03*
X118745Y874950D03*
X87550Y720090D03*
X77550Y720090D03*
D28*
X151520Y709930D03*
X168520Y709930D03*
D18*
X64770Y720010D03*
X64770Y710010D03*
D29*
X98211Y712241D02*
X106929Y712241D01*
X98211Y712241D02*
X98211Y716459D01*
X106929Y716459D01*
X106929Y712241D01*
X106929Y715141D02*
X98211Y715141D01*
X98211Y702741D02*
X106929Y702741D01*
X98211Y702741D02*
X98211Y706959D01*
X106929Y706959D01*
X106929Y702741D01*
X106929Y705641D02*
X98211Y705641D01*
X98211Y693241D02*
X106929Y693241D01*
X98211Y693241D02*
X98211Y697459D01*
X106929Y697459D01*
X106929Y693241D01*
X106929Y696141D02*
X98211Y696141D01*
X124211Y693241D02*
X132929Y693241D01*
X124211Y693241D02*
X124211Y697459D01*
X132929Y697459D01*
X132929Y693241D01*
X132929Y696141D02*
X124211Y696141D01*
X124211Y702741D02*
X132929Y702741D01*
X124211Y702741D02*
X124211Y706959D01*
X132929Y706959D01*
X132929Y702741D01*
X132929Y705641D02*
X124211Y705641D01*
X124211Y712241D02*
X132929Y712241D01*
X124211Y712241D02*
X124211Y716459D01*
X132929Y716459D01*
X132929Y712241D01*
X132929Y715141D02*
X124211Y715141D01*
D30*
X133510Y746100D03*
X133510Y727100D03*
X154510Y736600D03*
D18*
X64690Y699770D03*
X54690Y699770D03*
X87550Y709930D03*
X77550Y709930D03*
X87550Y699770D03*
X77550Y699770D03*
X53340Y728900D03*
X53340Y718900D03*
X53340Y739220D03*
X53340Y749220D03*
X25400Y964010D03*
X25400Y974010D03*
D31*
X0Y949960D03*
D32*
X-5080Y949960D03*
D31*
X0Y924560D03*
D32*
X-5080Y924560D03*
D31*
X0Y899160D03*
D32*
X-5080Y899160D03*
D31*
X0Y975360D03*
D32*
X-5080Y975360D03*
D31*
X0Y873760D03*
D32*
X-5080Y873760D03*
D31*
X0Y848360D03*
D32*
X-5080Y848360D03*
D31*
X0Y822960D03*
D32*
X-5080Y822960D03*
D31*
X0Y797560D03*
D32*
X-5080Y797560D03*
D31*
X0Y772160D03*
D32*
X-5080Y772160D03*
D31*
X0Y746760D03*
D32*
X-5080Y746760D03*
D31*
X0Y721360D03*
D32*
X-5080Y721360D03*
D31*
X0Y695960D03*
D32*
X-5080Y695960D03*
D31*
X203200Y695960D03*
D32*
X208280Y695960D03*
D31*
X203200Y721360D03*
D32*
X208280Y721360D03*
D31*
X203200Y746760D03*
D32*
X208280Y746760D03*
D31*
X203200Y772160D03*
D32*
X208280Y772160D03*
D31*
X203200Y797560D03*
D32*
X208280Y797560D03*
D31*
X203200Y822960D03*
D32*
X208280Y822960D03*
D31*
X203200Y848360D03*
D32*
X208280Y848360D03*
D31*
X203200Y873760D03*
D32*
X208280Y873760D03*
D31*
X203200Y899160D03*
D32*
X208280Y899160D03*
D31*
X203200Y924560D03*
D32*
X208280Y924560D03*
D31*
X203200Y949960D03*
D32*
X208280Y949960D03*
D31*
X203200Y975360D03*
D32*
X208280Y975360D03*
D33*
X82550Y680085D02*
X31750Y680085D01*
X120650Y680085D02*
X171450Y680085D01*
X171450Y991235D02*
X120650Y991235D01*
X82550Y991235D02*
X31750Y991235D01*
D34*
X176410Y777790D03*
X171410Y777790D03*
X166410Y777790D03*
X161410Y777790D03*
X161410Y751290D03*
X166410Y751290D03*
X171410Y751290D03*
X176410Y751290D03*
D18*
X177800Y739060D03*
X177800Y729060D03*
X167640Y739060D03*
X167640Y729060D03*
D10*
X449580Y991235D03*
X271780Y680085D03*
D11*
X372110Y806450D03*
D12*
X344610Y772450D03*
X349610Y772450D03*
X354610Y772450D03*
X359610Y772450D03*
X364610Y772450D03*
X369610Y772450D03*
X374610Y772450D03*
X379610Y772450D03*
X384610Y772450D03*
X389610Y772450D03*
X394610Y772450D03*
X399610Y772450D03*
D13*
X406110Y778950D03*
X406110Y783950D03*
X406110Y788950D03*
X406110Y793950D03*
X406110Y798950D03*
X406110Y803950D03*
X406110Y808950D03*
X406110Y813950D03*
X406110Y818950D03*
X406110Y823950D03*
X406110Y828950D03*
X406110Y833950D03*
D12*
X399610Y840450D03*
X394610Y840450D03*
X389610Y840450D03*
X384610Y840450D03*
X379610Y840450D03*
X374610Y840450D03*
X369610Y840450D03*
X364610Y840450D03*
X359610Y840450D03*
X354610Y840450D03*
X349610Y840450D03*
X344610Y840450D03*
D13*
X338110Y833950D03*
X338110Y828950D03*
X338110Y823950D03*
X338110Y818950D03*
X338110Y813950D03*
X338110Y808950D03*
X338110Y803950D03*
X338110Y798950D03*
X338110Y793950D03*
X338110Y788950D03*
X338110Y783950D03*
X338110Y778950D03*
D14*
X344290Y918950D03*
X349290Y918950D03*
X354290Y918950D03*
X359290Y918950D03*
D15*
X366290Y925950D03*
X366290Y930950D03*
X366290Y935950D03*
X366290Y940950D03*
D14*
X359290Y947950D03*
X354290Y947950D03*
X349290Y947950D03*
X344290Y947950D03*
D15*
X337290Y940950D03*
X337290Y935950D03*
X337290Y930950D03*
X337290Y925950D03*
D16*
X351790Y933450D03*
D17*
X395400Y956460D03*
X395400Y949960D03*
X395400Y943460D03*
X417400Y943460D03*
X417400Y949960D03*
X417400Y956460D03*
D18*
X394890Y969645D03*
X384890Y969645D03*
X394335Y930830D03*
X394335Y920830D03*
X430530Y939880D03*
X430530Y949880D03*
D19*
X416780Y909320D03*
X444280Y909320D03*
D20*
X430530Y924570D03*
X430530Y894070D03*
D18*
X296465Y695325D03*
X286465Y695325D03*
D21*
X299235Y727705D03*
X292735Y727705D03*
X286235Y727705D03*
X286235Y711205D03*
X299235Y711205D03*
D18*
X299640Y740410D03*
X289640Y740410D03*
X415210Y694690D03*
X405210Y694690D03*
X417910Y969645D03*
X427910Y969645D03*
X425370Y880110D03*
X415370Y880110D03*
X438785Y849075D03*
X438785Y859075D03*
X419735Y849075D03*
X419735Y859075D03*
X429260Y849075D03*
X429260Y859075D03*
X438785Y824310D03*
X438785Y834310D03*
X419735Y824310D03*
X419735Y834310D03*
X429260Y824310D03*
X429260Y834310D03*
X327660Y753030D03*
X327660Y743030D03*
X346710Y753030D03*
X346710Y743030D03*
X337185Y753030D03*
X337185Y743030D03*
X356235Y753030D03*
X356235Y743030D03*
X375285Y753030D03*
X375285Y743030D03*
X365760Y753030D03*
X365760Y743030D03*
X306150Y762635D03*
X316150Y762635D03*
X316150Y772160D03*
X306150Y772160D03*
X294005Y870665D03*
X294005Y880665D03*
X303530Y860980D03*
X303530Y850980D03*
X322580Y860980D03*
X322580Y850980D03*
X313055Y860980D03*
X313055Y850980D03*
X316150Y781685D03*
X306150Y781685D03*
X316150Y791210D03*
X306150Y791210D03*
X316150Y810260D03*
X306150Y810260D03*
X316150Y800735D03*
X306150Y800735D03*
D22*
X291450Y828980D03*
X291450Y819480D03*
X305450Y819480D03*
X305450Y828980D03*
D18*
X322500Y838200D03*
X312500Y838200D03*
X292180Y838200D03*
X302180Y838200D03*
X315040Y828040D03*
X325040Y828040D03*
X322580Y870665D03*
X322580Y880665D03*
X313055Y870665D03*
X313055Y880665D03*
X303530Y870665D03*
X303530Y880665D03*
X354330Y852250D03*
X354330Y862250D03*
X354330Y882730D03*
X354330Y892730D03*
X364410Y872490D03*
X354410Y872490D03*
D23*
X354330Y901192D03*
X354330Y909828D03*
D18*
X335995Y979170D03*
X345995Y979170D03*
X345995Y969010D03*
X335995Y969010D03*
X333375Y897335D03*
X333375Y907335D03*
X333375Y877650D03*
X333375Y887650D03*
D24*
X318262Y935990D03*
X326898Y935990D03*
D18*
X309245Y937815D03*
X309245Y927815D03*
X299720Y937815D03*
X299720Y927815D03*
D24*
X348107Y958215D03*
X356743Y958215D03*
X357632Y969010D03*
X366268Y969010D03*
X403098Y858520D03*
X394462Y858520D03*
X403098Y909320D03*
X394462Y909320D03*
D25*
X394335Y879920D03*
X394335Y887920D03*
D18*
X375285Y959565D03*
X375285Y969565D03*
X323215Y958135D03*
X323215Y948135D03*
X313055Y958135D03*
X313055Y948135D03*
X302895Y958135D03*
X302895Y948135D03*
X377825Y913845D03*
X377825Y923845D03*
X377825Y937975D03*
X377825Y947975D03*
X290195Y937815D03*
X290195Y927815D03*
X438785Y812720D03*
X438785Y802720D03*
X419735Y812720D03*
X419735Y802720D03*
X429260Y812720D03*
X429260Y802720D03*
D26*
X300380Y977455D03*
X300380Y969455D03*
X319380Y969455D03*
X319380Y977455D03*
D18*
X425530Y694690D03*
X435530Y694690D03*
D27*
X287354Y916915D03*
X287354Y907415D03*
X287354Y897915D03*
X313356Y897915D03*
X313356Y916915D03*
D18*
X377825Y899080D03*
X377825Y889080D03*
X377825Y864950D03*
X377825Y874950D03*
X346630Y720090D03*
X336630Y720090D03*
D28*
X410600Y709930D03*
X427600Y709930D03*
D18*
X323850Y720010D03*
X323850Y710010D03*
D29*
X357291Y712241D02*
X366009Y712241D01*
X357291Y712241D02*
X357291Y716459D01*
X366009Y716459D01*
X366009Y712241D01*
X366009Y715141D02*
X357291Y715141D01*
X357291Y702741D02*
X366009Y702741D01*
X357291Y702741D02*
X357291Y706959D01*
X366009Y706959D01*
X366009Y702741D01*
X366009Y705641D02*
X357291Y705641D01*
X357291Y693241D02*
X366009Y693241D01*
X357291Y693241D02*
X357291Y697459D01*
X366009Y697459D01*
X366009Y693241D01*
X366009Y696141D02*
X357291Y696141D01*
X383291Y693241D02*
X392009Y693241D01*
X383291Y693241D02*
X383291Y697459D01*
X392009Y697459D01*
X392009Y693241D01*
X392009Y696141D02*
X383291Y696141D01*
X383291Y702741D02*
X392009Y702741D01*
X383291Y702741D02*
X383291Y706959D01*
X392009Y706959D01*
X392009Y702741D01*
X392009Y705641D02*
X383291Y705641D01*
X383291Y712241D02*
X392009Y712241D01*
X383291Y712241D02*
X383291Y716459D01*
X392009Y716459D01*
X392009Y712241D01*
X392009Y715141D02*
X383291Y715141D01*
D30*
X392590Y746100D03*
X392590Y727100D03*
X413590Y736600D03*
D18*
X323770Y699770D03*
X313770Y699770D03*
X346630Y709930D03*
X336630Y709930D03*
X346630Y699770D03*
X336630Y699770D03*
X312420Y728900D03*
X312420Y718900D03*
X312420Y739220D03*
X312420Y749220D03*
X284480Y964010D03*
X284480Y974010D03*
D31*
X259080Y949960D03*
D32*
X254000Y949960D03*
D31*
X259080Y924560D03*
D32*
X254000Y924560D03*
D31*
X259080Y899160D03*
D32*
X254000Y899160D03*
D31*
X259080Y975360D03*
D32*
X254000Y975360D03*
D31*
X259080Y873760D03*
D32*
X254000Y873760D03*
D31*
X259080Y848360D03*
D32*
X254000Y848360D03*
D31*
X259080Y822960D03*
D32*
X254000Y822960D03*
D31*
X259080Y797560D03*
D32*
X254000Y797560D03*
D31*
X259080Y772160D03*
D32*
X254000Y772160D03*
D31*
X259080Y746760D03*
D32*
X254000Y746760D03*
D31*
X259080Y721360D03*
D32*
X254000Y721360D03*
D31*
X259080Y695960D03*
D32*
X254000Y695960D03*
D31*
X462280Y695960D03*
D32*
X467360Y695960D03*
D31*
X462280Y721360D03*
D32*
X467360Y721360D03*
D31*
X462280Y746760D03*
D32*
X467360Y746760D03*
D31*
X462280Y772160D03*
D32*
X467360Y772160D03*
D31*
X462280Y797560D03*
D32*
X467360Y797560D03*
D31*
X462280Y822960D03*
D32*
X467360Y822960D03*
D31*
X462280Y848360D03*
D32*
X467360Y848360D03*
D31*
X462280Y873760D03*
D32*
X467360Y873760D03*
D31*
X462280Y899160D03*
D32*
X467360Y899160D03*
D31*
X462280Y924560D03*
D32*
X467360Y924560D03*
D31*
X462280Y949960D03*
D32*
X467360Y949960D03*
D31*
X462280Y975360D03*
D32*
X467360Y975360D03*
D33*
X341630Y680085D02*
X290830Y680085D01*
X379730Y680085D02*
X430530Y680085D01*
X430530Y991235D02*
X379730Y991235D01*
X341630Y991235D02*
X290830Y991235D01*
D34*
X435490Y777790D03*
X430490Y777790D03*
X425490Y777790D03*
X420490Y777790D03*
X420490Y751290D03*
X425490Y751290D03*
X430490Y751290D03*
X435490Y751290D03*
D18*
X436880Y739060D03*
X436880Y729060D03*
X426720Y739060D03*
X426720Y729060D03*
D10*
X708660Y991235D03*
X530860Y680085D03*
D11*
X631190Y806450D03*
D12*
X603690Y772450D03*
X608690Y772450D03*
X613690Y772450D03*
X618690Y772450D03*
X623690Y772450D03*
X628690Y772450D03*
X633690Y772450D03*
X638690Y772450D03*
X643690Y772450D03*
X648690Y772450D03*
X653690Y772450D03*
X658690Y772450D03*
D13*
X665190Y778950D03*
X665190Y783950D03*
X665190Y788950D03*
X665190Y793950D03*
X665190Y798950D03*
X665190Y803950D03*
X665190Y808950D03*
X665190Y813950D03*
X665190Y818950D03*
X665190Y823950D03*
X665190Y828950D03*
X665190Y833950D03*
D12*
X658690Y840450D03*
X653690Y840450D03*
X648690Y840450D03*
X643690Y840450D03*
X638690Y840450D03*
X633690Y840450D03*
X628690Y840450D03*
X623690Y840450D03*
X618690Y840450D03*
X613690Y840450D03*
X608690Y840450D03*
X603690Y840450D03*
D13*
X597190Y833950D03*
X597190Y828950D03*
X597190Y823950D03*
X597190Y818950D03*
X597190Y813950D03*
X597190Y808950D03*
X597190Y803950D03*
X597190Y798950D03*
X597190Y793950D03*
X597190Y788950D03*
X597190Y783950D03*
X597190Y778950D03*
D14*
X603370Y918950D03*
X608370Y918950D03*
X613370Y918950D03*
X618370Y918950D03*
D15*
X625370Y925950D03*
X625370Y930950D03*
X625370Y935950D03*
X625370Y940950D03*
D14*
X618370Y947950D03*
X613370Y947950D03*
X608370Y947950D03*
X603370Y947950D03*
D15*
X596370Y940950D03*
X596370Y935950D03*
X596370Y930950D03*
X596370Y925950D03*
D16*
X610870Y933450D03*
D17*
X654480Y956460D03*
X654480Y949960D03*
X654480Y943460D03*
X676480Y943460D03*
X676480Y949960D03*
X676480Y956460D03*
D18*
X653970Y969645D03*
X643970Y969645D03*
X653415Y930830D03*
X653415Y920830D03*
X689610Y939880D03*
X689610Y949880D03*
D19*
X675860Y909320D03*
X703360Y909320D03*
D20*
X689610Y924570D03*
X689610Y894070D03*
D18*
X555545Y695325D03*
X545545Y695325D03*
D21*
X558315Y727705D03*
X551815Y727705D03*
X545315Y727705D03*
X545315Y711205D03*
X558315Y711205D03*
D18*
X558720Y740410D03*
X548720Y740410D03*
X674290Y694690D03*
X664290Y694690D03*
X676990Y969645D03*
X686990Y969645D03*
X684450Y880110D03*
X674450Y880110D03*
X697865Y849075D03*
X697865Y859075D03*
X678815Y849075D03*
X678815Y859075D03*
X688340Y849075D03*
X688340Y859075D03*
X697865Y824310D03*
X697865Y834310D03*
X678815Y824310D03*
X678815Y834310D03*
X688340Y824310D03*
X688340Y834310D03*
X586740Y753030D03*
X586740Y743030D03*
X605790Y753030D03*
X605790Y743030D03*
X596265Y753030D03*
X596265Y743030D03*
X615315Y753030D03*
X615315Y743030D03*
X634365Y753030D03*
X634365Y743030D03*
X624840Y753030D03*
X624840Y743030D03*
X565230Y762635D03*
X575230Y762635D03*
X575230Y772160D03*
X565230Y772160D03*
X553085Y870665D03*
X553085Y880665D03*
X562610Y860980D03*
X562610Y850980D03*
X581660Y860980D03*
X581660Y850980D03*
X572135Y860980D03*
X572135Y850980D03*
X575230Y781685D03*
X565230Y781685D03*
X575230Y791210D03*
X565230Y791210D03*
X575230Y810260D03*
X565230Y810260D03*
X575230Y800735D03*
X565230Y800735D03*
D22*
X550530Y828980D03*
X550530Y819480D03*
X564530Y819480D03*
X564530Y828980D03*
D18*
X581580Y838200D03*
X571580Y838200D03*
X551260Y838200D03*
X561260Y838200D03*
X574120Y828040D03*
X584120Y828040D03*
X581660Y870665D03*
X581660Y880665D03*
X572135Y870665D03*
X572135Y880665D03*
X562610Y870665D03*
X562610Y880665D03*
X613410Y852250D03*
X613410Y862250D03*
X613410Y882730D03*
X613410Y892730D03*
X623490Y872490D03*
X613490Y872490D03*
D23*
X613410Y901192D03*
X613410Y909828D03*
D18*
X595075Y979170D03*
X605075Y979170D03*
X605075Y969010D03*
X595075Y969010D03*
X592455Y897335D03*
X592455Y907335D03*
X592455Y877650D03*
X592455Y887650D03*
D24*
X577342Y935990D03*
X585978Y935990D03*
D18*
X568325Y937815D03*
X568325Y927815D03*
X558800Y937815D03*
X558800Y927815D03*
D24*
X607187Y958215D03*
X615823Y958215D03*
X616712Y969010D03*
X625348Y969010D03*
X662178Y858520D03*
X653542Y858520D03*
X662178Y909320D03*
X653542Y909320D03*
D25*
X653415Y879920D03*
X653415Y887920D03*
D18*
X634365Y959565D03*
X634365Y969565D03*
X582295Y958135D03*
X582295Y948135D03*
X572135Y958135D03*
X572135Y948135D03*
X561975Y958135D03*
X561975Y948135D03*
X636905Y913845D03*
X636905Y923845D03*
X636905Y937975D03*
X636905Y947975D03*
X549275Y937815D03*
X549275Y927815D03*
X697865Y812720D03*
X697865Y802720D03*
X678815Y812720D03*
X678815Y802720D03*
X688340Y812720D03*
X688340Y802720D03*
D26*
X559460Y977455D03*
X559460Y969455D03*
X578460Y969455D03*
X578460Y977455D03*
D18*
X684610Y694690D03*
X694610Y694690D03*
D27*
X546434Y916915D03*
X546434Y907415D03*
X546434Y897915D03*
X572436Y897915D03*
X572436Y916915D03*
D18*
X636905Y899080D03*
X636905Y889080D03*
X636905Y864950D03*
X636905Y874950D03*
X605710Y720090D03*
X595710Y720090D03*
D28*
X669680Y709930D03*
X686680Y709930D03*
D18*
X582930Y720010D03*
X582930Y710010D03*
D29*
X616371Y712241D02*
X625089Y712241D01*
X616371Y712241D02*
X616371Y716459D01*
X625089Y716459D01*
X625089Y712241D01*
X625089Y715141D02*
X616371Y715141D01*
X616371Y702741D02*
X625089Y702741D01*
X616371Y702741D02*
X616371Y706959D01*
X625089Y706959D01*
X625089Y702741D01*
X625089Y705641D02*
X616371Y705641D01*
X616371Y693241D02*
X625089Y693241D01*
X616371Y693241D02*
X616371Y697459D01*
X625089Y697459D01*
X625089Y693241D01*
X625089Y696141D02*
X616371Y696141D01*
X642371Y693241D02*
X651089Y693241D01*
X642371Y693241D02*
X642371Y697459D01*
X651089Y697459D01*
X651089Y693241D01*
X651089Y696141D02*
X642371Y696141D01*
X642371Y702741D02*
X651089Y702741D01*
X642371Y702741D02*
X642371Y706959D01*
X651089Y706959D01*
X651089Y702741D01*
X651089Y705641D02*
X642371Y705641D01*
X642371Y712241D02*
X651089Y712241D01*
X642371Y712241D02*
X642371Y716459D01*
X651089Y716459D01*
X651089Y712241D01*
X651089Y715141D02*
X642371Y715141D01*
D30*
X651670Y746100D03*
X651670Y727100D03*
X672670Y736600D03*
D18*
X582850Y699770D03*
X572850Y699770D03*
X605710Y709930D03*
X595710Y709930D03*
X605710Y699770D03*
X595710Y699770D03*
X571500Y728900D03*
X571500Y718900D03*
X571500Y739220D03*
X571500Y749220D03*
X543560Y964010D03*
X543560Y974010D03*
D31*
X518160Y949960D03*
D32*
X513080Y949960D03*
D31*
X518160Y924560D03*
D32*
X513080Y924560D03*
D31*
X518160Y899160D03*
D32*
X513080Y899160D03*
D31*
X518160Y975360D03*
D32*
X513080Y975360D03*
D31*
X518160Y873760D03*
D32*
X513080Y873760D03*
D31*
X518160Y848360D03*
D32*
X513080Y848360D03*
D31*
X518160Y822960D03*
D32*
X513080Y822960D03*
D31*
X518160Y797560D03*
D32*
X513080Y797560D03*
D31*
X518160Y772160D03*
D32*
X513080Y772160D03*
D31*
X518160Y746760D03*
D32*
X513080Y746760D03*
D31*
X518160Y721360D03*
D32*
X513080Y721360D03*
D31*
X518160Y695960D03*
D32*
X513080Y695960D03*
D31*
X721360Y695960D03*
D32*
X726440Y695960D03*
D31*
X721360Y721360D03*
D32*
X726440Y721360D03*
D31*
X721360Y746760D03*
D32*
X726440Y746760D03*
D31*
X721360Y772160D03*
D32*
X726440Y772160D03*
D31*
X721360Y797560D03*
D32*
X726440Y797560D03*
D31*
X721360Y822960D03*
D32*
X726440Y822960D03*
D31*
X721360Y848360D03*
D32*
X726440Y848360D03*
D31*
X721360Y873760D03*
D32*
X726440Y873760D03*
D31*
X721360Y899160D03*
D32*
X726440Y899160D03*
D31*
X721360Y924560D03*
D32*
X726440Y924560D03*
D31*
X721360Y949960D03*
D32*
X726440Y949960D03*
D31*
X721360Y975360D03*
D32*
X726440Y975360D03*
D33*
X600710Y680085D02*
X549910Y680085D01*
X638810Y680085D02*
X689610Y680085D01*
X689610Y991235D02*
X638810Y991235D01*
X600710Y991235D02*
X549910Y991235D01*
D34*
X694570Y777790D03*
X689570Y777790D03*
X684570Y777790D03*
X679570Y777790D03*
X679570Y751290D03*
X684570Y751290D03*
X689570Y751290D03*
X694570Y751290D03*
D18*
X695960Y739060D03*
X695960Y729060D03*
X685800Y739060D03*
X685800Y729060D03*
D10*
X967740Y991235D03*
X789940Y680085D03*
D11*
X890270Y806450D03*
D12*
X862770Y772450D03*
X867770Y772450D03*
X872770Y772450D03*
X877770Y772450D03*
X882770Y772450D03*
X887770Y772450D03*
X892770Y772450D03*
X897770Y772450D03*
X902770Y772450D03*
X907770Y772450D03*
X912770Y772450D03*
X917770Y772450D03*
D13*
X924270Y778950D03*
X924270Y783950D03*
X924270Y788950D03*
X924270Y793950D03*
X924270Y798950D03*
X924270Y803950D03*
X924270Y808950D03*
X924270Y813950D03*
X924270Y818950D03*
X924270Y823950D03*
X924270Y828950D03*
X924270Y833950D03*
D12*
X917770Y840450D03*
X912770Y840450D03*
X907770Y840450D03*
X902770Y840450D03*
X897770Y840450D03*
X892770Y840450D03*
X887770Y840450D03*
X882770Y840450D03*
X877770Y840450D03*
X872770Y840450D03*
X867770Y840450D03*
X862770Y840450D03*
D13*
X856270Y833950D03*
X856270Y828950D03*
X856270Y823950D03*
X856270Y818950D03*
X856270Y813950D03*
X856270Y808950D03*
X856270Y803950D03*
X856270Y798950D03*
X856270Y793950D03*
X856270Y788950D03*
X856270Y783950D03*
X856270Y778950D03*
D14*
X862450Y918950D03*
X867450Y918950D03*
X872450Y918950D03*
X877450Y918950D03*
D15*
X884450Y925950D03*
X884450Y930950D03*
X884450Y935950D03*
X884450Y940950D03*
D14*
X877450Y947950D03*
X872450Y947950D03*
X867450Y947950D03*
X862450Y947950D03*
D15*
X855450Y940950D03*
X855450Y935950D03*
X855450Y930950D03*
X855450Y925950D03*
D16*
X869950Y933450D03*
D17*
X913560Y956460D03*
X913560Y949960D03*
X913560Y943460D03*
X935560Y943460D03*
X935560Y949960D03*
X935560Y956460D03*
D18*
X913050Y969645D03*
X903050Y969645D03*
X912495Y930830D03*
X912495Y920830D03*
X948690Y939880D03*
X948690Y949880D03*
D19*
X934940Y909320D03*
X962440Y909320D03*
D20*
X948690Y924570D03*
X948690Y894070D03*
D18*
X814625Y695325D03*
X804625Y695325D03*
D21*
X817395Y727705D03*
X810895Y727705D03*
X804395Y727705D03*
X804395Y711205D03*
X817395Y711205D03*
D18*
X817800Y740410D03*
X807800Y740410D03*
X933370Y694690D03*
X923370Y694690D03*
X936070Y969645D03*
X946070Y969645D03*
X943530Y880110D03*
X933530Y880110D03*
X956945Y849075D03*
X956945Y859075D03*
X937895Y849075D03*
X937895Y859075D03*
X947420Y849075D03*
X947420Y859075D03*
X956945Y824310D03*
X956945Y834310D03*
X937895Y824310D03*
X937895Y834310D03*
X947420Y824310D03*
X947420Y834310D03*
X845820Y753030D03*
X845820Y743030D03*
X864870Y753030D03*
X864870Y743030D03*
X855345Y753030D03*
X855345Y743030D03*
X874395Y753030D03*
X874395Y743030D03*
X893445Y753030D03*
X893445Y743030D03*
X883920Y753030D03*
X883920Y743030D03*
X824310Y762635D03*
X834310Y762635D03*
X834310Y772160D03*
X824310Y772160D03*
X812165Y870665D03*
X812165Y880665D03*
X821690Y860980D03*
X821690Y850980D03*
X840740Y860980D03*
X840740Y850980D03*
X831215Y860980D03*
X831215Y850980D03*
X834310Y781685D03*
X824310Y781685D03*
X834310Y791210D03*
X824310Y791210D03*
X834310Y810260D03*
X824310Y810260D03*
X834310Y800735D03*
X824310Y800735D03*
D22*
X809610Y828980D03*
X809610Y819480D03*
X823610Y819480D03*
X823610Y828980D03*
D18*
X840660Y838200D03*
X830660Y838200D03*
X810340Y838200D03*
X820340Y838200D03*
X833200Y828040D03*
X843200Y828040D03*
X840740Y870665D03*
X840740Y880665D03*
X831215Y870665D03*
X831215Y880665D03*
X821690Y870665D03*
X821690Y880665D03*
X872490Y852250D03*
X872490Y862250D03*
X872490Y882730D03*
X872490Y892730D03*
X882570Y872490D03*
X872570Y872490D03*
D23*
X872490Y901192D03*
X872490Y909828D03*
D18*
X854155Y979170D03*
X864155Y979170D03*
X864155Y969010D03*
X854155Y969010D03*
X851535Y897335D03*
X851535Y907335D03*
X851535Y877650D03*
X851535Y887650D03*
D24*
X836422Y935990D03*
X845058Y935990D03*
D18*
X827405Y937815D03*
X827405Y927815D03*
X817880Y937815D03*
X817880Y927815D03*
D24*
X866267Y958215D03*
X874903Y958215D03*
X875792Y969010D03*
X884428Y969010D03*
X921258Y858520D03*
X912622Y858520D03*
X921258Y909320D03*
X912622Y909320D03*
D25*
X912495Y879920D03*
X912495Y887920D03*
D18*
X893445Y959565D03*
X893445Y969565D03*
X841375Y958135D03*
X841375Y948135D03*
X831215Y958135D03*
X831215Y948135D03*
X821055Y958135D03*
X821055Y948135D03*
X895985Y913845D03*
X895985Y923845D03*
X895985Y937975D03*
X895985Y947975D03*
X808355Y937815D03*
X808355Y927815D03*
X956945Y812720D03*
X956945Y802720D03*
X937895Y812720D03*
X937895Y802720D03*
X947420Y812720D03*
X947420Y802720D03*
D26*
X818540Y977455D03*
X818540Y969455D03*
X837540Y969455D03*
X837540Y977455D03*
D18*
X943690Y694690D03*
X953690Y694690D03*
D27*
X805514Y916915D03*
X805514Y907415D03*
X805514Y897915D03*
X831516Y897915D03*
X831516Y916915D03*
D18*
X895985Y899080D03*
X895985Y889080D03*
X895985Y864950D03*
X895985Y874950D03*
X864790Y720090D03*
X854790Y720090D03*
D28*
X928760Y709930D03*
X945760Y709930D03*
D18*
X842010Y720010D03*
X842010Y710010D03*
D29*
X875451Y712241D02*
X884169Y712241D01*
X875451Y712241D02*
X875451Y716459D01*
X884169Y716459D01*
X884169Y712241D01*
X884169Y715141D02*
X875451Y715141D01*
X875451Y702741D02*
X884169Y702741D01*
X875451Y702741D02*
X875451Y706959D01*
X884169Y706959D01*
X884169Y702741D01*
X884169Y705641D02*
X875451Y705641D01*
X875451Y693241D02*
X884169Y693241D01*
X875451Y693241D02*
X875451Y697459D01*
X884169Y697459D01*
X884169Y693241D01*
X884169Y696141D02*
X875451Y696141D01*
X901451Y693241D02*
X910169Y693241D01*
X901451Y693241D02*
X901451Y697459D01*
X910169Y697459D01*
X910169Y693241D01*
X910169Y696141D02*
X901451Y696141D01*
X901451Y702741D02*
X910169Y702741D01*
X901451Y702741D02*
X901451Y706959D01*
X910169Y706959D01*
X910169Y702741D01*
X910169Y705641D02*
X901451Y705641D01*
X901451Y712241D02*
X910169Y712241D01*
X901451Y712241D02*
X901451Y716459D01*
X910169Y716459D01*
X910169Y712241D01*
X910169Y715141D02*
X901451Y715141D01*
D30*
X910750Y746100D03*
X910750Y727100D03*
X931750Y736600D03*
D18*
X841930Y699770D03*
X831930Y699770D03*
X864790Y709930D03*
X854790Y709930D03*
X864790Y699770D03*
X854790Y699770D03*
X830580Y728900D03*
X830580Y718900D03*
X830580Y739220D03*
X830580Y749220D03*
X802640Y964010D03*
X802640Y974010D03*
D31*
X777240Y949960D03*
D32*
X772160Y949960D03*
D31*
X777240Y924560D03*
D32*
X772160Y924560D03*
D31*
X777240Y899160D03*
D32*
X772160Y899160D03*
D31*
X777240Y975360D03*
D32*
X772160Y975360D03*
D31*
X777240Y873760D03*
D32*
X772160Y873760D03*
D31*
X777240Y848360D03*
D32*
X772160Y848360D03*
D31*
X777240Y822960D03*
D32*
X772160Y822960D03*
D31*
X777240Y797560D03*
D32*
X772160Y797560D03*
D31*
X777240Y772160D03*
D32*
X772160Y772160D03*
D31*
X777240Y746760D03*
D32*
X772160Y746760D03*
D31*
X777240Y721360D03*
D32*
X772160Y721360D03*
D31*
X777240Y695960D03*
D32*
X772160Y695960D03*
D31*
X980440Y695960D03*
D32*
X985520Y695960D03*
D31*
X980440Y721360D03*
D32*
X985520Y721360D03*
D31*
X980440Y746760D03*
D32*
X985520Y746760D03*
D31*
X980440Y772160D03*
D32*
X985520Y772160D03*
D31*
X980440Y797560D03*
D32*
X985520Y797560D03*
D31*
X980440Y822960D03*
D32*
X985520Y822960D03*
D31*
X980440Y848360D03*
D32*
X985520Y848360D03*
D31*
X980440Y873760D03*
D32*
X985520Y873760D03*
D31*
X980440Y899160D03*
D32*
X985520Y899160D03*
D31*
X980440Y924560D03*
D32*
X985520Y924560D03*
D31*
X980440Y949960D03*
D32*
X985520Y949960D03*
D31*
X980440Y975360D03*
D32*
X985520Y975360D03*
D33*
X859790Y680085D02*
X808990Y680085D01*
X897890Y680085D02*
X948690Y680085D01*
X948690Y991235D02*
X897890Y991235D01*
X859790Y991235D02*
X808990Y991235D01*
D34*
X953650Y777790D03*
X948650Y777790D03*
X943650Y777790D03*
X938650Y777790D03*
X938650Y751290D03*
X943650Y751290D03*
X948650Y751290D03*
X953650Y751290D03*
D18*
X955040Y739060D03*
X955040Y729060D03*
X944880Y739060D03*
X944880Y729060D03*
D10*
X1226820Y991235D03*
X1049020Y680085D03*
D11*
X1149350Y806450D03*
D12*
X1121850Y772450D03*
X1126850Y772450D03*
X1131850Y772450D03*
X1136850Y772450D03*
X1141850Y772450D03*
X1146850Y772450D03*
X1151850Y772450D03*
X1156850Y772450D03*
X1161850Y772450D03*
X1166850Y772450D03*
X1171850Y772450D03*
X1176850Y772450D03*
D13*
X1183350Y778950D03*
X1183350Y783950D03*
X1183350Y788950D03*
X1183350Y793950D03*
X1183350Y798950D03*
X1183350Y803950D03*
X1183350Y808950D03*
X1183350Y813950D03*
X1183350Y818950D03*
X1183350Y823950D03*
X1183350Y828950D03*
X1183350Y833950D03*
D12*
X1176850Y840450D03*
X1171850Y840450D03*
X1166850Y840450D03*
X1161850Y840450D03*
X1156850Y840450D03*
X1151850Y840450D03*
X1146850Y840450D03*
X1141850Y840450D03*
X1136850Y840450D03*
X1131850Y840450D03*
X1126850Y840450D03*
X1121850Y840450D03*
D13*
X1115350Y833950D03*
X1115350Y828950D03*
X1115350Y823950D03*
X1115350Y818950D03*
X1115350Y813950D03*
X1115350Y808950D03*
X1115350Y803950D03*
X1115350Y798950D03*
X1115350Y793950D03*
X1115350Y788950D03*
X1115350Y783950D03*
X1115350Y778950D03*
D14*
X1121530Y918950D03*
X1126530Y918950D03*
X1131530Y918950D03*
X1136530Y918950D03*
D15*
X1143530Y925950D03*
X1143530Y930950D03*
X1143530Y935950D03*
X1143530Y940950D03*
D14*
X1136530Y947950D03*
X1131530Y947950D03*
X1126530Y947950D03*
X1121530Y947950D03*
D15*
X1114530Y940950D03*
X1114530Y935950D03*
X1114530Y930950D03*
X1114530Y925950D03*
D16*
X1129030Y933450D03*
D17*
X1172640Y956460D03*
X1172640Y949960D03*
X1172640Y943460D03*
X1194640Y943460D03*
X1194640Y949960D03*
X1194640Y956460D03*
D18*
X1172130Y969645D03*
X1162130Y969645D03*
X1171575Y930830D03*
X1171575Y920830D03*
X1207770Y939880D03*
X1207770Y949880D03*
D19*
X1194020Y909320D03*
X1221520Y909320D03*
D20*
X1207770Y924570D03*
X1207770Y894070D03*
D18*
X1073705Y695325D03*
X1063705Y695325D03*
D21*
X1076475Y727705D03*
X1069975Y727705D03*
X1063475Y727705D03*
X1063475Y711205D03*
X1076475Y711205D03*
D18*
X1076880Y740410D03*
X1066880Y740410D03*
X1192450Y694690D03*
X1182450Y694690D03*
X1195150Y969645D03*
X1205150Y969645D03*
X1202610Y880110D03*
X1192610Y880110D03*
X1216025Y849075D03*
X1216025Y859075D03*
X1196975Y849075D03*
X1196975Y859075D03*
X1206500Y849075D03*
X1206500Y859075D03*
X1216025Y824310D03*
X1216025Y834310D03*
X1196975Y824310D03*
X1196975Y834310D03*
X1206500Y824310D03*
X1206500Y834310D03*
X1104900Y753030D03*
X1104900Y743030D03*
X1123950Y753030D03*
X1123950Y743030D03*
X1114425Y753030D03*
X1114425Y743030D03*
X1133475Y753030D03*
X1133475Y743030D03*
X1152525Y753030D03*
X1152525Y743030D03*
X1143000Y753030D03*
X1143000Y743030D03*
X1083390Y762635D03*
X1093390Y762635D03*
X1093390Y772160D03*
X1083390Y772160D03*
X1071245Y870665D03*
X1071245Y880665D03*
X1080770Y860980D03*
X1080770Y850980D03*
X1099820Y860980D03*
X1099820Y850980D03*
X1090295Y860980D03*
X1090295Y850980D03*
X1093390Y781685D03*
X1083390Y781685D03*
X1093390Y791210D03*
X1083390Y791210D03*
X1093390Y810260D03*
X1083390Y810260D03*
X1093390Y800735D03*
X1083390Y800735D03*
D22*
X1068690Y828980D03*
X1068690Y819480D03*
X1082690Y819480D03*
X1082690Y828980D03*
D18*
X1099740Y838200D03*
X1089740Y838200D03*
X1069420Y838200D03*
X1079420Y838200D03*
X1092280Y828040D03*
X1102280Y828040D03*
X1099820Y870665D03*
X1099820Y880665D03*
X1090295Y870665D03*
X1090295Y880665D03*
X1080770Y870665D03*
X1080770Y880665D03*
X1131570Y852250D03*
X1131570Y862250D03*
X1131570Y882730D03*
X1131570Y892730D03*
X1141650Y872490D03*
X1131650Y872490D03*
D23*
X1131570Y901192D03*
X1131570Y909828D03*
D18*
X1113235Y979170D03*
X1123235Y979170D03*
X1123235Y969010D03*
X1113235Y969010D03*
X1110615Y897335D03*
X1110615Y907335D03*
X1110615Y877650D03*
X1110615Y887650D03*
D24*
X1095502Y935990D03*
X1104138Y935990D03*
D18*
X1086485Y937815D03*
X1086485Y927815D03*
X1076960Y937815D03*
X1076960Y927815D03*
D24*
X1125347Y958215D03*
X1133983Y958215D03*
X1134872Y969010D03*
X1143508Y969010D03*
X1180338Y858520D03*
X1171702Y858520D03*
X1180338Y909320D03*
X1171702Y909320D03*
D25*
X1171575Y879920D03*
X1171575Y887920D03*
D18*
X1152525Y959565D03*
X1152525Y969565D03*
X1100455Y958135D03*
X1100455Y948135D03*
X1090295Y958135D03*
X1090295Y948135D03*
X1080135Y958135D03*
X1080135Y948135D03*
X1155065Y913845D03*
X1155065Y923845D03*
X1155065Y937975D03*
X1155065Y947975D03*
X1067435Y937815D03*
X1067435Y927815D03*
X1216025Y812720D03*
X1216025Y802720D03*
X1196975Y812720D03*
X1196975Y802720D03*
X1206500Y812720D03*
X1206500Y802720D03*
D26*
X1077620Y977455D03*
X1077620Y969455D03*
X1096620Y969455D03*
X1096620Y977455D03*
D18*
X1202770Y694690D03*
X1212770Y694690D03*
D27*
X1064594Y916915D03*
X1064594Y907415D03*
X1064594Y897915D03*
X1090596Y897915D03*
X1090596Y916915D03*
D18*
X1155065Y899080D03*
X1155065Y889080D03*
X1155065Y864950D03*
X1155065Y874950D03*
X1123870Y720090D03*
X1113870Y720090D03*
D28*
X1187840Y709930D03*
X1204840Y709930D03*
D18*
X1101090Y720010D03*
X1101090Y710010D03*
D29*
X1134531Y712241D02*
X1143249Y712241D01*
X1134531Y712241D02*
X1134531Y716459D01*
X1143249Y716459D01*
X1143249Y712241D01*
X1143249Y715141D02*
X1134531Y715141D01*
X1134531Y702741D02*
X1143249Y702741D01*
X1134531Y702741D02*
X1134531Y706959D01*
X1143249Y706959D01*
X1143249Y702741D01*
X1143249Y705641D02*
X1134531Y705641D01*
X1134531Y693241D02*
X1143249Y693241D01*
X1134531Y693241D02*
X1134531Y697459D01*
X1143249Y697459D01*
X1143249Y693241D01*
X1143249Y696141D02*
X1134531Y696141D01*
X1160531Y693241D02*
X1169249Y693241D01*
X1160531Y693241D02*
X1160531Y697459D01*
X1169249Y697459D01*
X1169249Y693241D01*
X1169249Y696141D02*
X1160531Y696141D01*
X1160531Y702741D02*
X1169249Y702741D01*
X1160531Y702741D02*
X1160531Y706959D01*
X1169249Y706959D01*
X1169249Y702741D01*
X1169249Y705641D02*
X1160531Y705641D01*
X1160531Y712241D02*
X1169249Y712241D01*
X1160531Y712241D02*
X1160531Y716459D01*
X1169249Y716459D01*
X1169249Y712241D01*
X1169249Y715141D02*
X1160531Y715141D01*
D30*
X1169830Y746100D03*
X1169830Y727100D03*
X1190830Y736600D03*
D18*
X1101010Y699770D03*
X1091010Y699770D03*
X1123870Y709930D03*
X1113870Y709930D03*
X1123870Y699770D03*
X1113870Y699770D03*
X1089660Y728900D03*
X1089660Y718900D03*
X1089660Y739220D03*
X1089660Y749220D03*
X1061720Y964010D03*
X1061720Y974010D03*
D31*
X1036320Y949960D03*
D32*
X1031240Y949960D03*
D31*
X1036320Y924560D03*
D32*
X1031240Y924560D03*
D31*
X1036320Y899160D03*
D32*
X1031240Y899160D03*
D31*
X1036320Y975360D03*
D32*
X1031240Y975360D03*
D31*
X1036320Y873760D03*
D32*
X1031240Y873760D03*
D31*
X1036320Y848360D03*
D32*
X1031240Y848360D03*
D31*
X1036320Y822960D03*
D32*
X1031240Y822960D03*
D31*
X1036320Y797560D03*
D32*
X1031240Y797560D03*
D31*
X1036320Y772160D03*
D32*
X1031240Y772160D03*
D31*
X1036320Y746760D03*
D32*
X1031240Y746760D03*
D31*
X1036320Y721360D03*
D32*
X1031240Y721360D03*
D31*
X1036320Y695960D03*
D32*
X1031240Y695960D03*
D31*
X1239520Y695960D03*
D32*
X1244600Y695960D03*
D31*
X1239520Y721360D03*
D32*
X1244600Y721360D03*
D31*
X1239520Y746760D03*
D32*
X1244600Y746760D03*
D31*
X1239520Y772160D03*
D32*
X1244600Y772160D03*
D31*
X1239520Y797560D03*
D32*
X1244600Y797560D03*
D31*
X1239520Y822960D03*
D32*
X1244600Y822960D03*
D31*
X1239520Y848360D03*
D32*
X1244600Y848360D03*
D31*
X1239520Y873760D03*
D32*
X1244600Y873760D03*
D31*
X1239520Y899160D03*
D32*
X1244600Y899160D03*
D31*
X1239520Y924560D03*
D32*
X1244600Y924560D03*
D31*
X1239520Y949960D03*
D32*
X1244600Y949960D03*
D31*
X1239520Y975360D03*
D32*
X1244600Y975360D03*
D33*
X1118870Y680085D02*
X1068070Y680085D01*
X1156970Y680085D02*
X1207770Y680085D01*
X1207770Y991235D02*
X1156970Y991235D01*
X1118870Y991235D02*
X1068070Y991235D01*
D34*
X1212730Y777790D03*
X1207730Y777790D03*
X1202730Y777790D03*
X1197730Y777790D03*
X1197730Y751290D03*
X1202730Y751290D03*
X1207730Y751290D03*
X1212730Y751290D03*
D18*
X1214120Y739060D03*
X1214120Y729060D03*
X1203960Y739060D03*
X1203960Y729060D03*
D10*
X190500Y1326515D03*
X12700Y1015365D03*
D11*
X113030Y1141730D03*
D12*
X85530Y1107730D03*
X90530Y1107730D03*
X95530Y1107730D03*
X100530Y1107730D03*
X105530Y1107730D03*
X110530Y1107730D03*
X115530Y1107730D03*
X120530Y1107730D03*
X125530Y1107730D03*
X130530Y1107730D03*
X135530Y1107730D03*
X140530Y1107730D03*
D13*
X147030Y1114230D03*
X147030Y1119230D03*
X147030Y1124230D03*
X147030Y1129230D03*
X147030Y1134230D03*
X147030Y1139230D03*
X147030Y1144230D03*
X147030Y1149230D03*
X147030Y1154230D03*
X147030Y1159230D03*
X147030Y1164230D03*
X147030Y1169230D03*
D12*
X140530Y1175730D03*
X135530Y1175730D03*
X130530Y1175730D03*
X125530Y1175730D03*
X120530Y1175730D03*
X115530Y1175730D03*
X110530Y1175730D03*
X105530Y1175730D03*
X100530Y1175730D03*
X95530Y1175730D03*
X90530Y1175730D03*
X85530Y1175730D03*
D13*
X79030Y1169230D03*
X79030Y1164230D03*
X79030Y1159230D03*
X79030Y1154230D03*
X79030Y1149230D03*
X79030Y1144230D03*
X79030Y1139230D03*
X79030Y1134230D03*
X79030Y1129230D03*
X79030Y1124230D03*
X79030Y1119230D03*
X79030Y1114230D03*
D14*
X85210Y1254230D03*
X90210Y1254230D03*
X95210Y1254230D03*
X100210Y1254230D03*
D15*
X107210Y1261230D03*
X107210Y1266230D03*
X107210Y1271230D03*
X107210Y1276230D03*
D14*
X100210Y1283230D03*
X95210Y1283230D03*
X90210Y1283230D03*
X85210Y1283230D03*
D15*
X78210Y1276230D03*
X78210Y1271230D03*
X78210Y1266230D03*
X78210Y1261230D03*
D16*
X92710Y1268730D03*
D17*
X136320Y1291740D03*
X136320Y1285240D03*
X136320Y1278740D03*
X158320Y1278740D03*
X158320Y1285240D03*
X158320Y1291740D03*
D18*
X135810Y1304925D03*
X125810Y1304925D03*
X135255Y1266110D03*
X135255Y1256110D03*
X171450Y1275160D03*
X171450Y1285160D03*
D19*
X157700Y1244600D03*
X185200Y1244600D03*
D20*
X171450Y1259850D03*
X171450Y1229350D03*
D18*
X37385Y1030605D03*
X27385Y1030605D03*
D21*
X40155Y1062985D03*
X33655Y1062985D03*
X27155Y1062985D03*
X27155Y1046485D03*
X40155Y1046485D03*
D18*
X40560Y1075690D03*
X30560Y1075690D03*
X156130Y1029970D03*
X146130Y1029970D03*
X158830Y1304925D03*
X168830Y1304925D03*
X166290Y1215390D03*
X156290Y1215390D03*
X179705Y1184355D03*
X179705Y1194355D03*
X160655Y1184355D03*
X160655Y1194355D03*
X170180Y1184355D03*
X170180Y1194355D03*
X179705Y1159590D03*
X179705Y1169590D03*
X160655Y1159590D03*
X160655Y1169590D03*
X170180Y1159590D03*
X170180Y1169590D03*
X68580Y1088310D03*
X68580Y1078310D03*
X87630Y1088310D03*
X87630Y1078310D03*
X78105Y1088310D03*
X78105Y1078310D03*
X97155Y1088310D03*
X97155Y1078310D03*
X116205Y1088310D03*
X116205Y1078310D03*
X106680Y1088310D03*
X106680Y1078310D03*
X47070Y1097915D03*
X57070Y1097915D03*
X57070Y1107440D03*
X47070Y1107440D03*
X34925Y1205945D03*
X34925Y1215945D03*
X44450Y1196260D03*
X44450Y1186260D03*
X63500Y1196260D03*
X63500Y1186260D03*
X53975Y1196260D03*
X53975Y1186260D03*
X57070Y1116965D03*
X47070Y1116965D03*
X57070Y1126490D03*
X47070Y1126490D03*
X57070Y1145540D03*
X47070Y1145540D03*
X57070Y1136015D03*
X47070Y1136015D03*
D22*
X32370Y1164260D03*
X32370Y1154760D03*
X46370Y1154760D03*
X46370Y1164260D03*
D18*
X63420Y1173480D03*
X53420Y1173480D03*
X33100Y1173480D03*
X43100Y1173480D03*
X55960Y1163320D03*
X65960Y1163320D03*
X63500Y1205945D03*
X63500Y1215945D03*
X53975Y1205945D03*
X53975Y1215945D03*
X44450Y1205945D03*
X44450Y1215945D03*
X95250Y1187530D03*
X95250Y1197530D03*
X95250Y1218010D03*
X95250Y1228010D03*
X105330Y1207770D03*
X95330Y1207770D03*
D23*
X95250Y1236472D03*
X95250Y1245108D03*
D18*
X76915Y1314450D03*
X86915Y1314450D03*
X86915Y1304290D03*
X76915Y1304290D03*
X74295Y1232615D03*
X74295Y1242615D03*
X74295Y1212930D03*
X74295Y1222930D03*
D24*
X59182Y1271270D03*
X67818Y1271270D03*
D18*
X50165Y1273095D03*
X50165Y1263095D03*
X40640Y1273095D03*
X40640Y1263095D03*
D24*
X89027Y1293495D03*
X97663Y1293495D03*
X98552Y1304290D03*
X107188Y1304290D03*
X144018Y1193800D03*
X135382Y1193800D03*
X144018Y1244600D03*
X135382Y1244600D03*
D25*
X135255Y1215200D03*
X135255Y1223200D03*
D18*
X116205Y1294845D03*
X116205Y1304845D03*
X64135Y1293415D03*
X64135Y1283415D03*
X53975Y1293415D03*
X53975Y1283415D03*
X43815Y1293415D03*
X43815Y1283415D03*
X118745Y1249125D03*
X118745Y1259125D03*
X118745Y1273255D03*
X118745Y1283255D03*
X31115Y1273095D03*
X31115Y1263095D03*
X179705Y1148000D03*
X179705Y1138000D03*
X160655Y1148000D03*
X160655Y1138000D03*
X170180Y1148000D03*
X170180Y1138000D03*
D26*
X41300Y1312735D03*
X41300Y1304735D03*
X60300Y1304735D03*
X60300Y1312735D03*
D18*
X166450Y1029970D03*
X176450Y1029970D03*
D27*
X28274Y1252195D03*
X28274Y1242695D03*
X28274Y1233195D03*
X54276Y1233195D03*
X54276Y1252195D03*
D18*
X118745Y1234360D03*
X118745Y1224360D03*
X118745Y1200230D03*
X118745Y1210230D03*
X87550Y1055370D03*
X77550Y1055370D03*
D28*
X151520Y1045210D03*
X168520Y1045210D03*
D18*
X64770Y1055290D03*
X64770Y1045290D03*
D29*
X98211Y1047521D02*
X106929Y1047521D01*
X98211Y1047521D02*
X98211Y1051739D01*
X106929Y1051739D01*
X106929Y1047521D01*
X106929Y1050421D02*
X98211Y1050421D01*
X98211Y1038021D02*
X106929Y1038021D01*
X98211Y1038021D02*
X98211Y1042239D01*
X106929Y1042239D01*
X106929Y1038021D01*
X106929Y1040921D02*
X98211Y1040921D01*
X98211Y1028521D02*
X106929Y1028521D01*
X98211Y1028521D02*
X98211Y1032739D01*
X106929Y1032739D01*
X106929Y1028521D01*
X106929Y1031421D02*
X98211Y1031421D01*
X124211Y1028521D02*
X132929Y1028521D01*
X124211Y1028521D02*
X124211Y1032739D01*
X132929Y1032739D01*
X132929Y1028521D01*
X132929Y1031421D02*
X124211Y1031421D01*
X124211Y1038021D02*
X132929Y1038021D01*
X124211Y1038021D02*
X124211Y1042239D01*
X132929Y1042239D01*
X132929Y1038021D01*
X132929Y1040921D02*
X124211Y1040921D01*
X124211Y1047521D02*
X132929Y1047521D01*
X124211Y1047521D02*
X124211Y1051739D01*
X132929Y1051739D01*
X132929Y1047521D01*
X132929Y1050421D02*
X124211Y1050421D01*
D30*
X133510Y1081380D03*
X133510Y1062380D03*
X154510Y1071880D03*
D18*
X64690Y1035050D03*
X54690Y1035050D03*
X87550Y1045210D03*
X77550Y1045210D03*
X87550Y1035050D03*
X77550Y1035050D03*
X53340Y1064180D03*
X53340Y1054180D03*
X53340Y1074500D03*
X53340Y1084500D03*
X25400Y1299290D03*
X25400Y1309290D03*
D31*
X0Y1285240D03*
D32*
X-5080Y1285240D03*
D31*
X0Y1259840D03*
D32*
X-5080Y1259840D03*
D31*
X0Y1234440D03*
D32*
X-5080Y1234440D03*
D31*
X0Y1310640D03*
D32*
X-5080Y1310640D03*
D31*
X0Y1209040D03*
D32*
X-5080Y1209040D03*
D31*
X0Y1183640D03*
D32*
X-5080Y1183640D03*
D31*
X0Y1158240D03*
D32*
X-5080Y1158240D03*
D31*
X0Y1132840D03*
D32*
X-5080Y1132840D03*
D31*
X0Y1107440D03*
D32*
X-5080Y1107440D03*
D31*
X0Y1082040D03*
D32*
X-5080Y1082040D03*
D31*
X0Y1056640D03*
D32*
X-5080Y1056640D03*
D31*
X0Y1031240D03*
D32*
X-5080Y1031240D03*
D31*
X203200Y1031240D03*
D32*
X208280Y1031240D03*
D31*
X203200Y1056640D03*
D32*
X208280Y1056640D03*
D31*
X203200Y1082040D03*
D32*
X208280Y1082040D03*
D31*
X203200Y1107440D03*
D32*
X208280Y1107440D03*
D31*
X203200Y1132840D03*
D32*
X208280Y1132840D03*
D31*
X203200Y1158240D03*
D32*
X208280Y1158240D03*
D31*
X203200Y1183640D03*
D32*
X208280Y1183640D03*
D31*
X203200Y1209040D03*
D32*
X208280Y1209040D03*
D31*
X203200Y1234440D03*
D32*
X208280Y1234440D03*
D31*
X203200Y1259840D03*
D32*
X208280Y1259840D03*
D31*
X203200Y1285240D03*
D32*
X208280Y1285240D03*
D31*
X203200Y1310640D03*
D32*
X208280Y1310640D03*
D33*
X82550Y1015365D02*
X31750Y1015365D01*
X120650Y1015365D02*
X171450Y1015365D01*
X171450Y1326515D02*
X120650Y1326515D01*
X82550Y1326515D02*
X31750Y1326515D01*
D34*
X176410Y1113070D03*
X171410Y1113070D03*
X166410Y1113070D03*
X161410Y1113070D03*
X161410Y1086570D03*
X166410Y1086570D03*
X171410Y1086570D03*
X176410Y1086570D03*
D18*
X177800Y1074340D03*
X177800Y1064340D03*
X167640Y1074340D03*
X167640Y1064340D03*
D10*
X449580Y1326515D03*
X271780Y1015365D03*
D11*
X372110Y1141730D03*
D12*
X344610Y1107730D03*
X349610Y1107730D03*
X354610Y1107730D03*
X359610Y1107730D03*
X364610Y1107730D03*
X369610Y1107730D03*
X374610Y1107730D03*
X379610Y1107730D03*
X384610Y1107730D03*
X389610Y1107730D03*
X394610Y1107730D03*
X399610Y1107730D03*
D13*
X406110Y1114230D03*
X406110Y1119230D03*
X406110Y1124230D03*
X406110Y1129230D03*
X406110Y1134230D03*
X406110Y1139230D03*
X406110Y1144230D03*
X406110Y1149230D03*
X406110Y1154230D03*
X406110Y1159230D03*
X406110Y1164230D03*
X406110Y1169230D03*
D12*
X399610Y1175730D03*
X394610Y1175730D03*
X389610Y1175730D03*
X384610Y1175730D03*
X379610Y1175730D03*
X374610Y1175730D03*
X369610Y1175730D03*
X364610Y1175730D03*
X359610Y1175730D03*
X354610Y1175730D03*
X349610Y1175730D03*
X344610Y1175730D03*
D13*
X338110Y1169230D03*
X338110Y1164230D03*
X338110Y1159230D03*
X338110Y1154230D03*
X338110Y1149230D03*
X338110Y1144230D03*
X338110Y1139230D03*
X338110Y1134230D03*
X338110Y1129230D03*
X338110Y1124230D03*
X338110Y1119230D03*
X338110Y1114230D03*
D14*
X344290Y1254230D03*
X349290Y1254230D03*
X354290Y1254230D03*
X359290Y1254230D03*
D15*
X366290Y1261230D03*
X366290Y1266230D03*
X366290Y1271230D03*
X366290Y1276230D03*
D14*
X359290Y1283230D03*
X354290Y1283230D03*
X349290Y1283230D03*
X344290Y1283230D03*
D15*
X337290Y1276230D03*
X337290Y1271230D03*
X337290Y1266230D03*
X337290Y1261230D03*
D16*
X351790Y1268730D03*
D17*
X395400Y1291740D03*
X395400Y1285240D03*
X395400Y1278740D03*
X417400Y1278740D03*
X417400Y1285240D03*
X417400Y1291740D03*
D18*
X394890Y1304925D03*
X384890Y1304925D03*
X394335Y1266110D03*
X394335Y1256110D03*
X430530Y1275160D03*
X430530Y1285160D03*
D19*
X416780Y1244600D03*
X444280Y1244600D03*
D20*
X430530Y1259850D03*
X430530Y1229350D03*
D18*
X296465Y1030605D03*
X286465Y1030605D03*
D21*
X299235Y1062985D03*
X292735Y1062985D03*
X286235Y1062985D03*
X286235Y1046485D03*
X299235Y1046485D03*
D18*
X299640Y1075690D03*
X289640Y1075690D03*
X415210Y1029970D03*
X405210Y1029970D03*
X417910Y1304925D03*
X427910Y1304925D03*
X425370Y1215390D03*
X415370Y1215390D03*
X438785Y1184355D03*
X438785Y1194355D03*
X419735Y1184355D03*
X419735Y1194355D03*
X429260Y1184355D03*
X429260Y1194355D03*
X438785Y1159590D03*
X438785Y1169590D03*
X419735Y1159590D03*
X419735Y1169590D03*
X429260Y1159590D03*
X429260Y1169590D03*
X327660Y1088310D03*
X327660Y1078310D03*
X346710Y1088310D03*
X346710Y1078310D03*
X337185Y1088310D03*
X337185Y1078310D03*
X356235Y1088310D03*
X356235Y1078310D03*
X375285Y1088310D03*
X375285Y1078310D03*
X365760Y1088310D03*
X365760Y1078310D03*
X306150Y1097915D03*
X316150Y1097915D03*
X316150Y1107440D03*
X306150Y1107440D03*
X294005Y1205945D03*
X294005Y1215945D03*
X303530Y1196260D03*
X303530Y1186260D03*
X322580Y1196260D03*
X322580Y1186260D03*
X313055Y1196260D03*
X313055Y1186260D03*
X316150Y1116965D03*
X306150Y1116965D03*
X316150Y1126490D03*
X306150Y1126490D03*
X316150Y1145540D03*
X306150Y1145540D03*
X316150Y1136015D03*
X306150Y1136015D03*
D22*
X291450Y1164260D03*
X291450Y1154760D03*
X305450Y1154760D03*
X305450Y1164260D03*
D18*
X322500Y1173480D03*
X312500Y1173480D03*
X292180Y1173480D03*
X302180Y1173480D03*
X315040Y1163320D03*
X325040Y1163320D03*
X322580Y1205945D03*
X322580Y1215945D03*
X313055Y1205945D03*
X313055Y1215945D03*
X303530Y1205945D03*
X303530Y1215945D03*
X354330Y1187530D03*
X354330Y1197530D03*
X354330Y1218010D03*
X354330Y1228010D03*
X364410Y1207770D03*
X354410Y1207770D03*
D23*
X354330Y1236472D03*
X354330Y1245108D03*
D18*
X335995Y1314450D03*
X345995Y1314450D03*
X345995Y1304290D03*
X335995Y1304290D03*
X333375Y1232615D03*
X333375Y1242615D03*
X333375Y1212930D03*
X333375Y1222930D03*
D24*
X318262Y1271270D03*
X326898Y1271270D03*
D18*
X309245Y1273095D03*
X309245Y1263095D03*
X299720Y1273095D03*
X299720Y1263095D03*
D24*
X348107Y1293495D03*
X356743Y1293495D03*
X357632Y1304290D03*
X366268Y1304290D03*
X403098Y1193800D03*
X394462Y1193800D03*
X403098Y1244600D03*
X394462Y1244600D03*
D25*
X394335Y1215200D03*
X394335Y1223200D03*
D18*
X375285Y1294845D03*
X375285Y1304845D03*
X323215Y1293415D03*
X323215Y1283415D03*
X313055Y1293415D03*
X313055Y1283415D03*
X302895Y1293415D03*
X302895Y1283415D03*
X377825Y1249125D03*
X377825Y1259125D03*
X377825Y1273255D03*
X377825Y1283255D03*
X290195Y1273095D03*
X290195Y1263095D03*
X438785Y1148000D03*
X438785Y1138000D03*
X419735Y1148000D03*
X419735Y1138000D03*
X429260Y1148000D03*
X429260Y1138000D03*
D26*
X300380Y1312735D03*
X300380Y1304735D03*
X319380Y1304735D03*
X319380Y1312735D03*
D18*
X425530Y1029970D03*
X435530Y1029970D03*
D27*
X287354Y1252195D03*
X287354Y1242695D03*
X287354Y1233195D03*
X313356Y1233195D03*
X313356Y1252195D03*
D18*
X377825Y1234360D03*
X377825Y1224360D03*
X377825Y1200230D03*
X377825Y1210230D03*
X346630Y1055370D03*
X336630Y1055370D03*
D28*
X410600Y1045210D03*
X427600Y1045210D03*
D18*
X323850Y1055290D03*
X323850Y1045290D03*
D29*
X357291Y1047521D02*
X366009Y1047521D01*
X357291Y1047521D02*
X357291Y1051739D01*
X366009Y1051739D01*
X366009Y1047521D01*
X366009Y1050421D02*
X357291Y1050421D01*
X357291Y1038021D02*
X366009Y1038021D01*
X357291Y1038021D02*
X357291Y1042239D01*
X366009Y1042239D01*
X366009Y1038021D01*
X366009Y1040921D02*
X357291Y1040921D01*
X357291Y1028521D02*
X366009Y1028521D01*
X357291Y1028521D02*
X357291Y1032739D01*
X366009Y1032739D01*
X366009Y1028521D01*
X366009Y1031421D02*
X357291Y1031421D01*
X383291Y1028521D02*
X392009Y1028521D01*
X383291Y1028521D02*
X383291Y1032739D01*
X392009Y1032739D01*
X392009Y1028521D01*
X392009Y1031421D02*
X383291Y1031421D01*
X383291Y1038021D02*
X392009Y1038021D01*
X383291Y1038021D02*
X383291Y1042239D01*
X392009Y1042239D01*
X392009Y1038021D01*
X392009Y1040921D02*
X383291Y1040921D01*
X383291Y1047521D02*
X392009Y1047521D01*
X383291Y1047521D02*
X383291Y1051739D01*
X392009Y1051739D01*
X392009Y1047521D01*
X392009Y1050421D02*
X383291Y1050421D01*
D30*
X392590Y1081380D03*
X392590Y1062380D03*
X413590Y1071880D03*
D18*
X323770Y1035050D03*
X313770Y1035050D03*
X346630Y1045210D03*
X336630Y1045210D03*
X346630Y1035050D03*
X336630Y1035050D03*
X312420Y1064180D03*
X312420Y1054180D03*
X312420Y1074500D03*
X312420Y1084500D03*
X284480Y1299290D03*
X284480Y1309290D03*
D31*
X259080Y1285240D03*
D32*
X254000Y1285240D03*
D31*
X259080Y1259840D03*
D32*
X254000Y1259840D03*
D31*
X259080Y1234440D03*
D32*
X254000Y1234440D03*
D31*
X259080Y1310640D03*
D32*
X254000Y1310640D03*
D31*
X259080Y1209040D03*
D32*
X254000Y1209040D03*
D31*
X259080Y1183640D03*
D32*
X254000Y1183640D03*
D31*
X259080Y1158240D03*
D32*
X254000Y1158240D03*
D31*
X259080Y1132840D03*
D32*
X254000Y1132840D03*
D31*
X259080Y1107440D03*
D32*
X254000Y1107440D03*
D31*
X259080Y1082040D03*
D32*
X254000Y1082040D03*
D31*
X259080Y1056640D03*
D32*
X254000Y1056640D03*
D31*
X259080Y1031240D03*
D32*
X254000Y1031240D03*
D31*
X462280Y1031240D03*
D32*
X467360Y1031240D03*
D31*
X462280Y1056640D03*
D32*
X467360Y1056640D03*
D31*
X462280Y1082040D03*
D32*
X467360Y1082040D03*
D31*
X462280Y1107440D03*
D32*
X467360Y1107440D03*
D31*
X462280Y1132840D03*
D32*
X467360Y1132840D03*
D31*
X462280Y1158240D03*
D32*
X467360Y1158240D03*
D31*
X462280Y1183640D03*
D32*
X467360Y1183640D03*
D31*
X462280Y1209040D03*
D32*
X467360Y1209040D03*
D31*
X462280Y1234440D03*
D32*
X467360Y1234440D03*
D31*
X462280Y1259840D03*
D32*
X467360Y1259840D03*
D31*
X462280Y1285240D03*
D32*
X467360Y1285240D03*
D31*
X462280Y1310640D03*
D32*
X467360Y1310640D03*
D33*
X341630Y1015365D02*
X290830Y1015365D01*
X379730Y1015365D02*
X430530Y1015365D01*
X430530Y1326515D02*
X379730Y1326515D01*
X341630Y1326515D02*
X290830Y1326515D01*
D34*
X435490Y1113070D03*
X430490Y1113070D03*
X425490Y1113070D03*
X420490Y1113070D03*
X420490Y1086570D03*
X425490Y1086570D03*
X430490Y1086570D03*
X435490Y1086570D03*
D18*
X436880Y1074340D03*
X436880Y1064340D03*
X426720Y1074340D03*
X426720Y1064340D03*
D10*
X708660Y1326515D03*
X530860Y1015365D03*
D11*
X631190Y1141730D03*
D12*
X603690Y1107730D03*
X608690Y1107730D03*
X613690Y1107730D03*
X618690Y1107730D03*
X623690Y1107730D03*
X628690Y1107730D03*
X633690Y1107730D03*
X638690Y1107730D03*
X643690Y1107730D03*
X648690Y1107730D03*
X653690Y1107730D03*
X658690Y1107730D03*
D13*
X665190Y1114230D03*
X665190Y1119230D03*
X665190Y1124230D03*
X665190Y1129230D03*
X665190Y1134230D03*
X665190Y1139230D03*
X665190Y1144230D03*
X665190Y1149230D03*
X665190Y1154230D03*
X665190Y1159230D03*
X665190Y1164230D03*
X665190Y1169230D03*
D12*
X658690Y1175730D03*
X653690Y1175730D03*
X648690Y1175730D03*
X643690Y1175730D03*
X638690Y1175730D03*
X633690Y1175730D03*
X628690Y1175730D03*
X623690Y1175730D03*
X618690Y1175730D03*
X613690Y1175730D03*
X608690Y1175730D03*
X603690Y1175730D03*
D13*
X597190Y1169230D03*
X597190Y1164230D03*
X597190Y1159230D03*
X597190Y1154230D03*
X597190Y1149230D03*
X597190Y1144230D03*
X597190Y1139230D03*
X597190Y1134230D03*
X597190Y1129230D03*
X597190Y1124230D03*
X597190Y1119230D03*
X597190Y1114230D03*
D14*
X603370Y1254230D03*
X608370Y1254230D03*
X613370Y1254230D03*
X618370Y1254230D03*
D15*
X625370Y1261230D03*
X625370Y1266230D03*
X625370Y1271230D03*
X625370Y1276230D03*
D14*
X618370Y1283230D03*
X613370Y1283230D03*
X608370Y1283230D03*
X603370Y1283230D03*
D15*
X596370Y1276230D03*
X596370Y1271230D03*
X596370Y1266230D03*
X596370Y1261230D03*
D16*
X610870Y1268730D03*
D17*
X654480Y1291740D03*
X654480Y1285240D03*
X654480Y1278740D03*
X676480Y1278740D03*
X676480Y1285240D03*
X676480Y1291740D03*
D18*
X653970Y1304925D03*
X643970Y1304925D03*
X653415Y1266110D03*
X653415Y1256110D03*
X689610Y1275160D03*
X689610Y1285160D03*
D19*
X675860Y1244600D03*
X703360Y1244600D03*
D20*
X689610Y1259850D03*
X689610Y1229350D03*
D18*
X555545Y1030605D03*
X545545Y1030605D03*
D21*
X558315Y1062985D03*
X551815Y1062985D03*
X545315Y1062985D03*
X545315Y1046485D03*
X558315Y1046485D03*
D18*
X558720Y1075690D03*
X548720Y1075690D03*
X674290Y1029970D03*
X664290Y1029970D03*
X676990Y1304925D03*
X686990Y1304925D03*
X684450Y1215390D03*
X674450Y1215390D03*
X697865Y1184355D03*
X697865Y1194355D03*
X678815Y1184355D03*
X678815Y1194355D03*
X688340Y1184355D03*
X688340Y1194355D03*
X697865Y1159590D03*
X697865Y1169590D03*
X678815Y1159590D03*
X678815Y1169590D03*
X688340Y1159590D03*
X688340Y1169590D03*
X586740Y1088310D03*
X586740Y1078310D03*
X605790Y1088310D03*
X605790Y1078310D03*
X596265Y1088310D03*
X596265Y1078310D03*
X615315Y1088310D03*
X615315Y1078310D03*
X634365Y1088310D03*
X634365Y1078310D03*
X624840Y1088310D03*
X624840Y1078310D03*
X565230Y1097915D03*
X575230Y1097915D03*
X575230Y1107440D03*
X565230Y1107440D03*
X553085Y1205945D03*
X553085Y1215945D03*
X562610Y1196260D03*
X562610Y1186260D03*
X581660Y1196260D03*
X581660Y1186260D03*
X572135Y1196260D03*
X572135Y1186260D03*
X575230Y1116965D03*
X565230Y1116965D03*
X575230Y1126490D03*
X565230Y1126490D03*
X575230Y1145540D03*
X565230Y1145540D03*
X575230Y1136015D03*
X565230Y1136015D03*
D22*
X550530Y1164260D03*
X550530Y1154760D03*
X564530Y1154760D03*
X564530Y1164260D03*
D18*
X581580Y1173480D03*
X571580Y1173480D03*
X551260Y1173480D03*
X561260Y1173480D03*
X574120Y1163320D03*
X584120Y1163320D03*
X581660Y1205945D03*
X581660Y1215945D03*
X572135Y1205945D03*
X572135Y1215945D03*
X562610Y1205945D03*
X562610Y1215945D03*
X613410Y1187530D03*
X613410Y1197530D03*
X613410Y1218010D03*
X613410Y1228010D03*
X623490Y1207770D03*
X613490Y1207770D03*
D23*
X613410Y1236472D03*
X613410Y1245108D03*
D18*
X595075Y1314450D03*
X605075Y1314450D03*
X605075Y1304290D03*
X595075Y1304290D03*
X592455Y1232615D03*
X592455Y1242615D03*
X592455Y1212930D03*
X592455Y1222930D03*
D24*
X577342Y1271270D03*
X585978Y1271270D03*
D18*
X568325Y1273095D03*
X568325Y1263095D03*
X558800Y1273095D03*
X558800Y1263095D03*
D24*
X607187Y1293495D03*
X615823Y1293495D03*
X616712Y1304290D03*
X625348Y1304290D03*
X662178Y1193800D03*
X653542Y1193800D03*
X662178Y1244600D03*
X653542Y1244600D03*
D25*
X653415Y1215200D03*
X653415Y1223200D03*
D18*
X634365Y1294845D03*
X634365Y1304845D03*
X582295Y1293415D03*
X582295Y1283415D03*
X572135Y1293415D03*
X572135Y1283415D03*
X561975Y1293415D03*
X561975Y1283415D03*
X636905Y1249125D03*
X636905Y1259125D03*
X636905Y1273255D03*
X636905Y1283255D03*
X549275Y1273095D03*
X549275Y1263095D03*
X697865Y1148000D03*
X697865Y1138000D03*
X678815Y1148000D03*
X678815Y1138000D03*
X688340Y1148000D03*
X688340Y1138000D03*
D26*
X559460Y1312735D03*
X559460Y1304735D03*
X578460Y1304735D03*
X578460Y1312735D03*
D18*
X684610Y1029970D03*
X694610Y1029970D03*
D27*
X546434Y1252195D03*
X546434Y1242695D03*
X546434Y1233195D03*
X572436Y1233195D03*
X572436Y1252195D03*
D18*
X636905Y1234360D03*
X636905Y1224360D03*
X636905Y1200230D03*
X636905Y1210230D03*
X605710Y1055370D03*
X595710Y1055370D03*
D28*
X669680Y1045210D03*
X686680Y1045210D03*
D18*
X582930Y1055290D03*
X582930Y1045290D03*
D29*
X616371Y1047521D02*
X625089Y1047521D01*
X616371Y1047521D02*
X616371Y1051739D01*
X625089Y1051739D01*
X625089Y1047521D01*
X625089Y1050421D02*
X616371Y1050421D01*
X616371Y1038021D02*
X625089Y1038021D01*
X616371Y1038021D02*
X616371Y1042239D01*
X625089Y1042239D01*
X625089Y1038021D01*
X625089Y1040921D02*
X616371Y1040921D01*
X616371Y1028521D02*
X625089Y1028521D01*
X616371Y1028521D02*
X616371Y1032739D01*
X625089Y1032739D01*
X625089Y1028521D01*
X625089Y1031421D02*
X616371Y1031421D01*
X642371Y1028521D02*
X651089Y1028521D01*
X642371Y1028521D02*
X642371Y1032739D01*
X651089Y1032739D01*
X651089Y1028521D01*
X651089Y1031421D02*
X642371Y1031421D01*
X642371Y1038021D02*
X651089Y1038021D01*
X642371Y1038021D02*
X642371Y1042239D01*
X651089Y1042239D01*
X651089Y1038021D01*
X651089Y1040921D02*
X642371Y1040921D01*
X642371Y1047521D02*
X651089Y1047521D01*
X642371Y1047521D02*
X642371Y1051739D01*
X651089Y1051739D01*
X651089Y1047521D01*
X651089Y1050421D02*
X642371Y1050421D01*
D30*
X651670Y1081380D03*
X651670Y1062380D03*
X672670Y1071880D03*
D18*
X582850Y1035050D03*
X572850Y1035050D03*
X605710Y1045210D03*
X595710Y1045210D03*
X605710Y1035050D03*
X595710Y1035050D03*
X571500Y1064180D03*
X571500Y1054180D03*
X571500Y1074500D03*
X571500Y1084500D03*
X543560Y1299290D03*
X543560Y1309290D03*
D31*
X518160Y1285240D03*
D32*
X513080Y1285240D03*
D31*
X518160Y1259840D03*
D32*
X513080Y1259840D03*
D31*
X518160Y1234440D03*
D32*
X513080Y1234440D03*
D31*
X518160Y1310640D03*
D32*
X513080Y1310640D03*
D31*
X518160Y1209040D03*
D32*
X513080Y1209040D03*
D31*
X518160Y1183640D03*
D32*
X513080Y1183640D03*
D31*
X518160Y1158240D03*
D32*
X513080Y1158240D03*
D31*
X518160Y1132840D03*
D32*
X513080Y1132840D03*
D31*
X518160Y1107440D03*
D32*
X513080Y1107440D03*
D31*
X518160Y1082040D03*
D32*
X513080Y1082040D03*
D31*
X518160Y1056640D03*
D32*
X513080Y1056640D03*
D31*
X518160Y1031240D03*
D32*
X513080Y1031240D03*
D31*
X721360Y1031240D03*
D32*
X726440Y1031240D03*
D31*
X721360Y1056640D03*
D32*
X726440Y1056640D03*
D31*
X721360Y1082040D03*
D32*
X726440Y1082040D03*
D31*
X721360Y1107440D03*
D32*
X726440Y1107440D03*
D31*
X721360Y1132840D03*
D32*
X726440Y1132840D03*
D31*
X721360Y1158240D03*
D32*
X726440Y1158240D03*
D31*
X721360Y1183640D03*
D32*
X726440Y1183640D03*
D31*
X721360Y1209040D03*
D32*
X726440Y1209040D03*
D31*
X721360Y1234440D03*
D32*
X726440Y1234440D03*
D31*
X721360Y1259840D03*
D32*
X726440Y1259840D03*
D31*
X721360Y1285240D03*
D32*
X726440Y1285240D03*
D31*
X721360Y1310640D03*
D32*
X726440Y1310640D03*
D33*
X600710Y1015365D02*
X549910Y1015365D01*
X638810Y1015365D02*
X689610Y1015365D01*
X689610Y1326515D02*
X638810Y1326515D01*
X600710Y1326515D02*
X549910Y1326515D01*
D34*
X694570Y1113070D03*
X689570Y1113070D03*
X684570Y1113070D03*
X679570Y1113070D03*
X679570Y1086570D03*
X684570Y1086570D03*
X689570Y1086570D03*
X694570Y1086570D03*
D18*
X695960Y1074340D03*
X695960Y1064340D03*
X685800Y1074340D03*
X685800Y1064340D03*
D10*
X967740Y1326515D03*
X789940Y1015365D03*
D11*
X890270Y1141730D03*
D12*
X862770Y1107730D03*
X867770Y1107730D03*
X872770Y1107730D03*
X877770Y1107730D03*
X882770Y1107730D03*
X887770Y1107730D03*
X892770Y1107730D03*
X897770Y1107730D03*
X902770Y1107730D03*
X907770Y1107730D03*
X912770Y1107730D03*
X917770Y1107730D03*
D13*
X924270Y1114230D03*
X924270Y1119230D03*
X924270Y1124230D03*
X924270Y1129230D03*
X924270Y1134230D03*
X924270Y1139230D03*
X924270Y1144230D03*
X924270Y1149230D03*
X924270Y1154230D03*
X924270Y1159230D03*
X924270Y1164230D03*
X924270Y1169230D03*
D12*
X917770Y1175730D03*
X912770Y1175730D03*
X907770Y1175730D03*
X902770Y1175730D03*
X897770Y1175730D03*
X892770Y1175730D03*
X887770Y1175730D03*
X882770Y1175730D03*
X877770Y1175730D03*
X872770Y1175730D03*
X867770Y1175730D03*
X862770Y1175730D03*
D13*
X856270Y1169230D03*
X856270Y1164230D03*
X856270Y1159230D03*
X856270Y1154230D03*
X856270Y1149230D03*
X856270Y1144230D03*
X856270Y1139230D03*
X856270Y1134230D03*
X856270Y1129230D03*
X856270Y1124230D03*
X856270Y1119230D03*
X856270Y1114230D03*
D14*
X862450Y1254230D03*
X867450Y1254230D03*
X872450Y1254230D03*
X877450Y1254230D03*
D15*
X884450Y1261230D03*
X884450Y1266230D03*
X884450Y1271230D03*
X884450Y1276230D03*
D14*
X877450Y1283230D03*
X872450Y1283230D03*
X867450Y1283230D03*
X862450Y1283230D03*
D15*
X855450Y1276230D03*
X855450Y1271230D03*
X855450Y1266230D03*
X855450Y1261230D03*
D16*
X869950Y1268730D03*
D17*
X913560Y1291740D03*
X913560Y1285240D03*
X913560Y1278740D03*
X935560Y1278740D03*
X935560Y1285240D03*
X935560Y1291740D03*
D18*
X913050Y1304925D03*
X903050Y1304925D03*
X912495Y1266110D03*
X912495Y1256110D03*
X948690Y1275160D03*
X948690Y1285160D03*
D19*
X934940Y1244600D03*
X962440Y1244600D03*
D20*
X948690Y1259850D03*
X948690Y1229350D03*
D18*
X814625Y1030605D03*
X804625Y1030605D03*
D21*
X817395Y1062985D03*
X810895Y1062985D03*
X804395Y1062985D03*
X804395Y1046485D03*
X817395Y1046485D03*
D18*
X817800Y1075690D03*
X807800Y1075690D03*
X933370Y1029970D03*
X923370Y1029970D03*
X936070Y1304925D03*
X946070Y1304925D03*
X943530Y1215390D03*
X933530Y1215390D03*
X956945Y1184355D03*
X956945Y1194355D03*
X937895Y1184355D03*
X937895Y1194355D03*
X947420Y1184355D03*
X947420Y1194355D03*
X956945Y1159590D03*
X956945Y1169590D03*
X937895Y1159590D03*
X937895Y1169590D03*
X947420Y1159590D03*
X947420Y1169590D03*
X845820Y1088310D03*
X845820Y1078310D03*
X864870Y1088310D03*
X864870Y1078310D03*
X855345Y1088310D03*
X855345Y1078310D03*
X874395Y1088310D03*
X874395Y1078310D03*
X893445Y1088310D03*
X893445Y1078310D03*
X883920Y1088310D03*
X883920Y1078310D03*
X824310Y1097915D03*
X834310Y1097915D03*
X834310Y1107440D03*
X824310Y1107440D03*
X812165Y1205945D03*
X812165Y1215945D03*
X821690Y1196260D03*
X821690Y1186260D03*
X840740Y1196260D03*
X840740Y1186260D03*
X831215Y1196260D03*
X831215Y1186260D03*
X834310Y1116965D03*
X824310Y1116965D03*
X834310Y1126490D03*
X824310Y1126490D03*
X834310Y1145540D03*
X824310Y1145540D03*
X834310Y1136015D03*
X824310Y1136015D03*
D22*
X809610Y1164260D03*
X809610Y1154760D03*
X823610Y1154760D03*
X823610Y1164260D03*
D18*
X840660Y1173480D03*
X830660Y1173480D03*
X810340Y1173480D03*
X820340Y1173480D03*
X833200Y1163320D03*
X843200Y1163320D03*
X840740Y1205945D03*
X840740Y1215945D03*
X831215Y1205945D03*
X831215Y1215945D03*
X821690Y1205945D03*
X821690Y1215945D03*
X872490Y1187530D03*
X872490Y1197530D03*
X872490Y1218010D03*
X872490Y1228010D03*
X882570Y1207770D03*
X872570Y1207770D03*
D23*
X872490Y1236472D03*
X872490Y1245108D03*
D18*
X854155Y1314450D03*
X864155Y1314450D03*
X864155Y1304290D03*
X854155Y1304290D03*
X851535Y1232615D03*
X851535Y1242615D03*
X851535Y1212930D03*
X851535Y1222930D03*
D24*
X836422Y1271270D03*
X845058Y1271270D03*
D18*
X827405Y1273095D03*
X827405Y1263095D03*
X817880Y1273095D03*
X817880Y1263095D03*
D24*
X866267Y1293495D03*
X874903Y1293495D03*
X875792Y1304290D03*
X884428Y1304290D03*
X921258Y1193800D03*
X912622Y1193800D03*
X921258Y1244600D03*
X912622Y1244600D03*
D25*
X912495Y1215200D03*
X912495Y1223200D03*
D18*
X893445Y1294845D03*
X893445Y1304845D03*
X841375Y1293415D03*
X841375Y1283415D03*
X831215Y1293415D03*
X831215Y1283415D03*
X821055Y1293415D03*
X821055Y1283415D03*
X895985Y1249125D03*
X895985Y1259125D03*
X895985Y1273255D03*
X895985Y1283255D03*
X808355Y1273095D03*
X808355Y1263095D03*
X956945Y1148000D03*
X956945Y1138000D03*
X937895Y1148000D03*
X937895Y1138000D03*
X947420Y1148000D03*
X947420Y1138000D03*
D26*
X818540Y1312735D03*
X818540Y1304735D03*
X837540Y1304735D03*
X837540Y1312735D03*
D18*
X943690Y1029970D03*
X953690Y1029970D03*
D27*
X805514Y1252195D03*
X805514Y1242695D03*
X805514Y1233195D03*
X831516Y1233195D03*
X831516Y1252195D03*
D18*
X895985Y1234360D03*
X895985Y1224360D03*
X895985Y1200230D03*
X895985Y1210230D03*
X864790Y1055370D03*
X854790Y1055370D03*
D28*
X928760Y1045210D03*
X945760Y1045210D03*
D18*
X842010Y1055290D03*
X842010Y1045290D03*
D29*
X875451Y1047521D02*
X884169Y1047521D01*
X875451Y1047521D02*
X875451Y1051739D01*
X884169Y1051739D01*
X884169Y1047521D01*
X884169Y1050421D02*
X875451Y1050421D01*
X875451Y1038021D02*
X884169Y1038021D01*
X875451Y1038021D02*
X875451Y1042239D01*
X884169Y1042239D01*
X884169Y1038021D01*
X884169Y1040921D02*
X875451Y1040921D01*
X875451Y1028521D02*
X884169Y1028521D01*
X875451Y1028521D02*
X875451Y1032739D01*
X884169Y1032739D01*
X884169Y1028521D01*
X884169Y1031421D02*
X875451Y1031421D01*
X901451Y1028521D02*
X910169Y1028521D01*
X901451Y1028521D02*
X901451Y1032739D01*
X910169Y1032739D01*
X910169Y1028521D01*
X910169Y1031421D02*
X901451Y1031421D01*
X901451Y1038021D02*
X910169Y1038021D01*
X901451Y1038021D02*
X901451Y1042239D01*
X910169Y1042239D01*
X910169Y1038021D01*
X910169Y1040921D02*
X901451Y1040921D01*
X901451Y1047521D02*
X910169Y1047521D01*
X901451Y1047521D02*
X901451Y1051739D01*
X910169Y1051739D01*
X910169Y1047521D01*
X910169Y1050421D02*
X901451Y1050421D01*
D30*
X910750Y1081380D03*
X910750Y1062380D03*
X931750Y1071880D03*
D18*
X841930Y1035050D03*
X831930Y1035050D03*
X864790Y1045210D03*
X854790Y1045210D03*
X864790Y1035050D03*
X854790Y1035050D03*
X830580Y1064180D03*
X830580Y1054180D03*
X830580Y1074500D03*
X830580Y1084500D03*
X802640Y1299290D03*
X802640Y1309290D03*
D31*
X777240Y1285240D03*
D32*
X772160Y1285240D03*
D31*
X777240Y1259840D03*
D32*
X772160Y1259840D03*
D31*
X777240Y1234440D03*
D32*
X772160Y1234440D03*
D31*
X777240Y1310640D03*
D32*
X772160Y1310640D03*
D31*
X777240Y1209040D03*
D32*
X772160Y1209040D03*
D31*
X777240Y1183640D03*
D32*
X772160Y1183640D03*
D31*
X777240Y1158240D03*
D32*
X772160Y1158240D03*
D31*
X777240Y1132840D03*
D32*
X772160Y1132840D03*
D31*
X777240Y1107440D03*
D32*
X772160Y1107440D03*
D31*
X777240Y1082040D03*
D32*
X772160Y1082040D03*
D31*
X777240Y1056640D03*
D32*
X772160Y1056640D03*
D31*
X777240Y1031240D03*
D32*
X772160Y1031240D03*
D31*
X980440Y1031240D03*
D32*
X985520Y1031240D03*
D31*
X980440Y1056640D03*
D32*
X985520Y1056640D03*
D31*
X980440Y1082040D03*
D32*
X985520Y1082040D03*
D31*
X980440Y1107440D03*
D32*
X985520Y1107440D03*
D31*
X980440Y1132840D03*
D32*
X985520Y1132840D03*
D31*
X980440Y1158240D03*
D32*
X985520Y1158240D03*
D31*
X980440Y1183640D03*
D32*
X985520Y1183640D03*
D31*
X980440Y1209040D03*
D32*
X985520Y1209040D03*
D31*
X980440Y1234440D03*
D32*
X985520Y1234440D03*
D31*
X980440Y1259840D03*
D32*
X985520Y1259840D03*
D31*
X980440Y1285240D03*
D32*
X985520Y1285240D03*
D31*
X980440Y1310640D03*
D32*
X985520Y1310640D03*
D33*
X859790Y1015365D02*
X808990Y1015365D01*
X897890Y1015365D02*
X948690Y1015365D01*
X948690Y1326515D02*
X897890Y1326515D01*
X859790Y1326515D02*
X808990Y1326515D01*
D34*
X953650Y1113070D03*
X948650Y1113070D03*
X943650Y1113070D03*
X938650Y1113070D03*
X938650Y1086570D03*
X943650Y1086570D03*
X948650Y1086570D03*
X953650Y1086570D03*
D18*
X955040Y1074340D03*
X955040Y1064340D03*
X944880Y1074340D03*
X944880Y1064340D03*
D10*
X1226820Y1326515D03*
X1049020Y1015365D03*
D11*
X1149350Y1141730D03*
D12*
X1121850Y1107730D03*
X1126850Y1107730D03*
X1131850Y1107730D03*
X1136850Y1107730D03*
X1141850Y1107730D03*
X1146850Y1107730D03*
X1151850Y1107730D03*
X1156850Y1107730D03*
X1161850Y1107730D03*
X1166850Y1107730D03*
X1171850Y1107730D03*
X1176850Y1107730D03*
D13*
X1183350Y1114230D03*
X1183350Y1119230D03*
X1183350Y1124230D03*
X1183350Y1129230D03*
X1183350Y1134230D03*
X1183350Y1139230D03*
X1183350Y1144230D03*
X1183350Y1149230D03*
X1183350Y1154230D03*
X1183350Y1159230D03*
X1183350Y1164230D03*
X1183350Y1169230D03*
D12*
X1176850Y1175730D03*
X1171850Y1175730D03*
X1166850Y1175730D03*
X1161850Y1175730D03*
X1156850Y1175730D03*
X1151850Y1175730D03*
X1146850Y1175730D03*
X1141850Y1175730D03*
X1136850Y1175730D03*
X1131850Y1175730D03*
X1126850Y1175730D03*
X1121850Y1175730D03*
D13*
X1115350Y1169230D03*
X1115350Y1164230D03*
X1115350Y1159230D03*
X1115350Y1154230D03*
X1115350Y1149230D03*
X1115350Y1144230D03*
X1115350Y1139230D03*
X1115350Y1134230D03*
X1115350Y1129230D03*
X1115350Y1124230D03*
X1115350Y1119230D03*
X1115350Y1114230D03*
D14*
X1121530Y1254230D03*
X1126530Y1254230D03*
X1131530Y1254230D03*
X1136530Y1254230D03*
D15*
X1143530Y1261230D03*
X1143530Y1266230D03*
X1143530Y1271230D03*
X1143530Y1276230D03*
D14*
X1136530Y1283230D03*
X1131530Y1283230D03*
X1126530Y1283230D03*
X1121530Y1283230D03*
D15*
X1114530Y1276230D03*
X1114530Y1271230D03*
X1114530Y1266230D03*
X1114530Y1261230D03*
D16*
X1129030Y1268730D03*
D17*
X1172640Y1291740D03*
X1172640Y1285240D03*
X1172640Y1278740D03*
X1194640Y1278740D03*
X1194640Y1285240D03*
X1194640Y1291740D03*
D18*
X1172130Y1304925D03*
X1162130Y1304925D03*
X1171575Y1266110D03*
X1171575Y1256110D03*
X1207770Y1275160D03*
X1207770Y1285160D03*
D19*
X1194020Y1244600D03*
X1221520Y1244600D03*
D20*
X1207770Y1259850D03*
X1207770Y1229350D03*
D18*
X1073705Y1030605D03*
X1063705Y1030605D03*
D21*
X1076475Y1062985D03*
X1069975Y1062985D03*
X1063475Y1062985D03*
X1063475Y1046485D03*
X1076475Y1046485D03*
D18*
X1076880Y1075690D03*
X1066880Y1075690D03*
X1192450Y1029970D03*
X1182450Y1029970D03*
X1195150Y1304925D03*
X1205150Y1304925D03*
X1202610Y1215390D03*
X1192610Y1215390D03*
X1216025Y1184355D03*
X1216025Y1194355D03*
X1196975Y1184355D03*
X1196975Y1194355D03*
X1206500Y1184355D03*
X1206500Y1194355D03*
X1216025Y1159590D03*
X1216025Y1169590D03*
X1196975Y1159590D03*
X1196975Y1169590D03*
X1206500Y1159590D03*
X1206500Y1169590D03*
X1104900Y1088310D03*
X1104900Y1078310D03*
X1123950Y1088310D03*
X1123950Y1078310D03*
X1114425Y1088310D03*
X1114425Y1078310D03*
X1133475Y1088310D03*
X1133475Y1078310D03*
X1152525Y1088310D03*
X1152525Y1078310D03*
X1143000Y1088310D03*
X1143000Y1078310D03*
X1083390Y1097915D03*
X1093390Y1097915D03*
X1093390Y1107440D03*
X1083390Y1107440D03*
X1071245Y1205945D03*
X1071245Y1215945D03*
X1080770Y1196260D03*
X1080770Y1186260D03*
X1099820Y1196260D03*
X1099820Y1186260D03*
X1090295Y1196260D03*
X1090295Y1186260D03*
X1093390Y1116965D03*
X1083390Y1116965D03*
X1093390Y1126490D03*
X1083390Y1126490D03*
X1093390Y1145540D03*
X1083390Y1145540D03*
X1093390Y1136015D03*
X1083390Y1136015D03*
D22*
X1068690Y1164260D03*
X1068690Y1154760D03*
X1082690Y1154760D03*
X1082690Y1164260D03*
D18*
X1099740Y1173480D03*
X1089740Y1173480D03*
X1069420Y1173480D03*
X1079420Y1173480D03*
X1092280Y1163320D03*
X1102280Y1163320D03*
X1099820Y1205945D03*
X1099820Y1215945D03*
X1090295Y1205945D03*
X1090295Y1215945D03*
X1080770Y1205945D03*
X1080770Y1215945D03*
X1131570Y1187530D03*
X1131570Y1197530D03*
X1131570Y1218010D03*
X1131570Y1228010D03*
X1141650Y1207770D03*
X1131650Y1207770D03*
D23*
X1131570Y1236472D03*
X1131570Y1245108D03*
D18*
X1113235Y1314450D03*
X1123235Y1314450D03*
X1123235Y1304290D03*
X1113235Y1304290D03*
X1110615Y1232615D03*
X1110615Y1242615D03*
X1110615Y1212930D03*
X1110615Y1222930D03*
D24*
X1095502Y1271270D03*
X1104138Y1271270D03*
D18*
X1086485Y1273095D03*
X1086485Y1263095D03*
X1076960Y1273095D03*
X1076960Y1263095D03*
D24*
X1125347Y1293495D03*
X1133983Y1293495D03*
X1134872Y1304290D03*
X1143508Y1304290D03*
X1180338Y1193800D03*
X1171702Y1193800D03*
X1180338Y1244600D03*
X1171702Y1244600D03*
D25*
X1171575Y1215200D03*
X1171575Y1223200D03*
D18*
X1152525Y1294845D03*
X1152525Y1304845D03*
X1100455Y1293415D03*
X1100455Y1283415D03*
X1090295Y1293415D03*
X1090295Y1283415D03*
X1080135Y1293415D03*
X1080135Y1283415D03*
X1155065Y1249125D03*
X1155065Y1259125D03*
X1155065Y1273255D03*
X1155065Y1283255D03*
X1067435Y1273095D03*
X1067435Y1263095D03*
X1216025Y1148000D03*
X1216025Y1138000D03*
X1196975Y1148000D03*
X1196975Y1138000D03*
X1206500Y1148000D03*
X1206500Y1138000D03*
D26*
X1077620Y1312735D03*
X1077620Y1304735D03*
X1096620Y1304735D03*
X1096620Y1312735D03*
D18*
X1202770Y1029970D03*
X1212770Y1029970D03*
D27*
X1064594Y1252195D03*
X1064594Y1242695D03*
X1064594Y1233195D03*
X1090596Y1233195D03*
X1090596Y1252195D03*
D18*
X1155065Y1234360D03*
X1155065Y1224360D03*
X1155065Y1200230D03*
X1155065Y1210230D03*
X1123870Y1055370D03*
X1113870Y1055370D03*
D28*
X1187840Y1045210D03*
X1204840Y1045210D03*
D18*
X1101090Y1055290D03*
X1101090Y1045290D03*
D29*
X1134531Y1047521D02*
X1143249Y1047521D01*
X1134531Y1047521D02*
X1134531Y1051739D01*
X1143249Y1051739D01*
X1143249Y1047521D01*
X1143249Y1050421D02*
X1134531Y1050421D01*
X1134531Y1038021D02*
X1143249Y1038021D01*
X1134531Y1038021D02*
X1134531Y1042239D01*
X1143249Y1042239D01*
X1143249Y1038021D01*
X1143249Y1040921D02*
X1134531Y1040921D01*
X1134531Y1028521D02*
X1143249Y1028521D01*
X1134531Y1028521D02*
X1134531Y1032739D01*
X1143249Y1032739D01*
X1143249Y1028521D01*
X1143249Y1031421D02*
X1134531Y1031421D01*
X1160531Y1028521D02*
X1169249Y1028521D01*
X1160531Y1028521D02*
X1160531Y1032739D01*
X1169249Y1032739D01*
X1169249Y1028521D01*
X1169249Y1031421D02*
X1160531Y1031421D01*
X1160531Y1038021D02*
X1169249Y1038021D01*
X1160531Y1038021D02*
X1160531Y1042239D01*
X1169249Y1042239D01*
X1169249Y1038021D01*
X1169249Y1040921D02*
X1160531Y1040921D01*
X1160531Y1047521D02*
X1169249Y1047521D01*
X1160531Y1047521D02*
X1160531Y1051739D01*
X1169249Y1051739D01*
X1169249Y1047521D01*
X1169249Y1050421D02*
X1160531Y1050421D01*
D30*
X1169830Y1081380D03*
X1169830Y1062380D03*
X1190830Y1071880D03*
D18*
X1101010Y1035050D03*
X1091010Y1035050D03*
X1123870Y1045210D03*
X1113870Y1045210D03*
X1123870Y1035050D03*
X1113870Y1035050D03*
X1089660Y1064180D03*
X1089660Y1054180D03*
X1089660Y1074500D03*
X1089660Y1084500D03*
X1061720Y1299290D03*
X1061720Y1309290D03*
D31*
X1036320Y1285240D03*
D32*
X1031240Y1285240D03*
D31*
X1036320Y1259840D03*
D32*
X1031240Y1259840D03*
D31*
X1036320Y1234440D03*
D32*
X1031240Y1234440D03*
D31*
X1036320Y1310640D03*
D32*
X1031240Y1310640D03*
D31*
X1036320Y1209040D03*
D32*
X1031240Y1209040D03*
D31*
X1036320Y1183640D03*
D32*
X1031240Y1183640D03*
D31*
X1036320Y1158240D03*
D32*
X1031240Y1158240D03*
D31*
X1036320Y1132840D03*
D32*
X1031240Y1132840D03*
D31*
X1036320Y1107440D03*
D32*
X1031240Y1107440D03*
D31*
X1036320Y1082040D03*
D32*
X1031240Y1082040D03*
D31*
X1036320Y1056640D03*
D32*
X1031240Y1056640D03*
D31*
X1036320Y1031240D03*
D32*
X1031240Y1031240D03*
D31*
X1239520Y1031240D03*
D32*
X1244600Y1031240D03*
D31*
X1239520Y1056640D03*
D32*
X1244600Y1056640D03*
D31*
X1239520Y1082040D03*
D32*
X1244600Y1082040D03*
D31*
X1239520Y1107440D03*
D32*
X1244600Y1107440D03*
D31*
X1239520Y1132840D03*
D32*
X1244600Y1132840D03*
D31*
X1239520Y1158240D03*
D32*
X1244600Y1158240D03*
D31*
X1239520Y1183640D03*
D32*
X1244600Y1183640D03*
D31*
X1239520Y1209040D03*
D32*
X1244600Y1209040D03*
D31*
X1239520Y1234440D03*
D32*
X1244600Y1234440D03*
D31*
X1239520Y1259840D03*
D32*
X1244600Y1259840D03*
D31*
X1239520Y1285240D03*
D32*
X1244600Y1285240D03*
D31*
X1239520Y1310640D03*
D32*
X1244600Y1310640D03*
D33*
X1118870Y1015365D02*
X1068070Y1015365D01*
X1156970Y1015365D02*
X1207770Y1015365D01*
X1207770Y1326515D02*
X1156970Y1326515D01*
X1118870Y1326515D02*
X1068070Y1326515D01*
D34*
X1212730Y1113070D03*
X1207730Y1113070D03*
X1202730Y1113070D03*
X1197730Y1113070D03*
X1197730Y1086570D03*
X1202730Y1086570D03*
X1207730Y1086570D03*
X1212730Y1086570D03*
D18*
X1214120Y1074340D03*
X1214120Y1064340D03*
X1203960Y1074340D03*
X1203960Y1064340D03*
D10*
X119380Y1356995D03*
X1271905Y1356995D03*
D35*
X110325Y-20955D02*
X110328Y-20733D01*
X110336Y-20511D01*
X110350Y-20289D01*
X110369Y-20067D01*
X110393Y-19847D01*
X110423Y-19626D01*
X110458Y-19407D01*
X110499Y-19188D01*
X110545Y-18971D01*
X110596Y-18755D01*
X110653Y-18540D01*
X110715Y-18326D01*
X110782Y-18115D01*
X110854Y-17904D01*
X110932Y-17696D01*
X111014Y-17490D01*
X111102Y-17286D01*
X111194Y-17083D01*
X111292Y-16884D01*
X111394Y-16687D01*
X111501Y-16492D01*
X111613Y-16300D01*
X111730Y-16111D01*
X111851Y-15924D01*
X111977Y-15741D01*
X112107Y-15561D01*
X112242Y-15384D01*
X112380Y-15211D01*
X112523Y-15041D01*
X112671Y-14874D01*
X112822Y-14711D01*
X112977Y-14552D01*
X113136Y-14397D01*
X113299Y-14246D01*
X113466Y-14098D01*
X113636Y-13955D01*
X113809Y-13817D01*
X113986Y-13682D01*
X114166Y-13552D01*
X114349Y-13426D01*
X114536Y-13305D01*
X114725Y-13188D01*
X114917Y-13076D01*
X115112Y-12969D01*
X115309Y-12867D01*
X115508Y-12769D01*
X115711Y-12677D01*
X115915Y-12589D01*
X116121Y-12507D01*
X116329Y-12429D01*
X116540Y-12357D01*
X116751Y-12290D01*
X116965Y-12228D01*
X117180Y-12171D01*
X117396Y-12120D01*
X117613Y-12074D01*
X117832Y-12033D01*
X118051Y-11998D01*
X118272Y-11968D01*
X118492Y-11944D01*
X118714Y-11925D01*
X118936Y-11911D01*
X119158Y-11903D01*
X119380Y-11900D01*
X119602Y-11903D01*
X119824Y-11911D01*
X120046Y-11925D01*
X120268Y-11944D01*
X120488Y-11968D01*
X120709Y-11998D01*
X120928Y-12033D01*
X121147Y-12074D01*
X121364Y-12120D01*
X121580Y-12171D01*
X121795Y-12228D01*
X122009Y-12290D01*
X122220Y-12357D01*
X122431Y-12429D01*
X122639Y-12507D01*
X122845Y-12589D01*
X123049Y-12677D01*
X123252Y-12769D01*
X123451Y-12867D01*
X123648Y-12969D01*
X123843Y-13076D01*
X124035Y-13188D01*
X124224Y-13305D01*
X124411Y-13426D01*
X124594Y-13552D01*
X124774Y-13682D01*
X124951Y-13817D01*
X125124Y-13955D01*
X125294Y-14098D01*
X125461Y-14246D01*
X125624Y-14397D01*
X125783Y-14552D01*
X125938Y-14711D01*
X126089Y-14874D01*
X126237Y-15041D01*
X126380Y-15211D01*
X126518Y-15384D01*
X126653Y-15561D01*
X126783Y-15741D01*
X126909Y-15924D01*
X127030Y-16111D01*
X127147Y-16300D01*
X127259Y-16492D01*
X127366Y-16687D01*
X127468Y-16884D01*
X127566Y-17083D01*
X127658Y-17286D01*
X127746Y-17490D01*
X127828Y-17696D01*
X127906Y-17904D01*
X127978Y-18115D01*
X128045Y-18326D01*
X128107Y-18540D01*
X128164Y-18755D01*
X128215Y-18971D01*
X128261Y-19188D01*
X128302Y-19407D01*
X128337Y-19626D01*
X128367Y-19847D01*
X128391Y-20067D01*
X128410Y-20289D01*
X128424Y-20511D01*
X128432Y-20733D01*
X128435Y-20955D01*
X128432Y-21177D01*
X128424Y-21399D01*
X128410Y-21621D01*
X128391Y-21843D01*
X128367Y-22063D01*
X128337Y-22284D01*
X128302Y-22503D01*
X128261Y-22722D01*
X128215Y-22939D01*
X128164Y-23155D01*
X128107Y-23370D01*
X128045Y-23584D01*
X127978Y-23795D01*
X127906Y-24006D01*
X127828Y-24214D01*
X127746Y-24420D01*
X127658Y-24624D01*
X127566Y-24827D01*
X127468Y-25026D01*
X127366Y-25223D01*
X127259Y-25418D01*
X127147Y-25610D01*
X127030Y-25799D01*
X126909Y-25986D01*
X126783Y-26169D01*
X126653Y-26349D01*
X126518Y-26526D01*
X126380Y-26699D01*
X126237Y-26869D01*
X126089Y-27036D01*
X125938Y-27199D01*
X125783Y-27358D01*
X125624Y-27513D01*
X125461Y-27664D01*
X125294Y-27812D01*
X125124Y-27955D01*
X124951Y-28093D01*
X124774Y-28228D01*
X124594Y-28358D01*
X124411Y-28484D01*
X124224Y-28605D01*
X124035Y-28722D01*
X123843Y-28834D01*
X123648Y-28941D01*
X123451Y-29043D01*
X123252Y-29141D01*
X123049Y-29233D01*
X122845Y-29321D01*
X122639Y-29403D01*
X122431Y-29481D01*
X122220Y-29553D01*
X122009Y-29620D01*
X121795Y-29682D01*
X121580Y-29739D01*
X121364Y-29790D01*
X121147Y-29836D01*
X120928Y-29877D01*
X120709Y-29912D01*
X120488Y-29942D01*
X120268Y-29966D01*
X120046Y-29985D01*
X119824Y-29999D01*
X119602Y-30007D01*
X119380Y-30010D01*
X119158Y-30007D01*
X118936Y-29999D01*
X118714Y-29985D01*
X118492Y-29966D01*
X118272Y-29942D01*
X118051Y-29912D01*
X117832Y-29877D01*
X117613Y-29836D01*
X117396Y-29790D01*
X117180Y-29739D01*
X116965Y-29682D01*
X116751Y-29620D01*
X116540Y-29553D01*
X116329Y-29481D01*
X116121Y-29403D01*
X115915Y-29321D01*
X115711Y-29233D01*
X115508Y-29141D01*
X115309Y-29043D01*
X115112Y-28941D01*
X114917Y-28834D01*
X114725Y-28722D01*
X114536Y-28605D01*
X114349Y-28484D01*
X114166Y-28358D01*
X113986Y-28228D01*
X113809Y-28093D01*
X113636Y-27955D01*
X113466Y-27812D01*
X113299Y-27664D01*
X113136Y-27513D01*
X112977Y-27358D01*
X112822Y-27199D01*
X112671Y-27036D01*
X112523Y-26869D01*
X112380Y-26699D01*
X112242Y-26526D01*
X112107Y-26349D01*
X111977Y-26169D01*
X111851Y-25986D01*
X111730Y-25799D01*
X111613Y-25610D01*
X111501Y-25418D01*
X111394Y-25223D01*
X111292Y-25026D01*
X111194Y-24827D01*
X111102Y-24624D01*
X111014Y-24420D01*
X110932Y-24214D01*
X110854Y-24006D01*
X110782Y-23795D01*
X110715Y-23584D01*
X110653Y-23370D01*
X110596Y-23155D01*
X110545Y-22939D01*
X110499Y-22722D01*
X110458Y-22503D01*
X110423Y-22284D01*
X110393Y-22063D01*
X110369Y-21843D01*
X110350Y-21621D01*
X110336Y-21399D01*
X110328Y-21177D01*
X110325Y-20955D01*
D36*
X119380Y-20955D03*
M02*
