M48
;GenerationSoftware,Autodesk,EAGLE,9.6.2*%
;CreationDate,2020-12-18T10:56:15Z*%
FMAT,2
ICI,OFF
METRIC,TZ,000.000
T3C0.200
T2C0.300
T1C1.999
%
G90
M71
T1
X124460Y27940
X72644Y120904
X-508Y27940
X-508Y25400
X-508Y22860
X-508Y30480
X-508Y20320
X-508Y17780
X-508Y15240
X-508Y12700
X-508Y10160
X-508Y7620
X-508Y5080
X-508Y2540
X20828Y2540
X20828Y5080
X20828Y7620
X20828Y10160
X20828Y12700
X20828Y15240
X20828Y17780
X20828Y20320
X20828Y22860
X20828Y25400
X20828Y27940
X20828Y30480
X25400Y27940
X25400Y25400
X25400Y22860
X25400Y30480
X25400Y20320
X25400Y17780
X25400Y15240
X25400Y12700
X25400Y10160
X25400Y7620
X25400Y5080
X25400Y2540
X46736Y2540
X46736Y5080
X46736Y7620
X46736Y10160
X46736Y12700
X46736Y15240
X46736Y17780
X46736Y20320
X46736Y22860
X46736Y25400
X46736Y27940
X46736Y30480
X51308Y27940
X51308Y25400
X51308Y22860
X51308Y30480
X51308Y20320
X51308Y17780
X51308Y15240
X51308Y12700
X51308Y10160
X51308Y7620
X51308Y5080
X51308Y2540
X72644Y2540
X72644Y5080
X72644Y7620
X72644Y10160
X72644Y12700
X72644Y15240
X72644Y17780
X72644Y20320
X72644Y22860
X72644Y25400
X72644Y27940
X72644Y30480
X77216Y27940
X77216Y25400
X77216Y22860
X77216Y30480
X77216Y20320
X77216Y17780
X77216Y15240
X77216Y12700
X77216Y10160
X77216Y7620
X77216Y5080
X77216Y2540
X98552Y2540
X98552Y5080
X98552Y7620
X98552Y10160
X98552Y12700
X98552Y15240
X98552Y17780
X98552Y20320
X98552Y22860
X98552Y25400
X98552Y27940
X98552Y30480
X103124Y27940
X103124Y25400
X103124Y22860
X103124Y30480
X103124Y20320
X103124Y17780
X103124Y15240
X103124Y12700
X103124Y10160
X103124Y7620
X103124Y5080
X103124Y2540
X124460Y2540
X124460Y5080
X124460Y7620
X124460Y10160
X124460Y12700
X124460Y15240
X124460Y17780
X124460Y20320
X124460Y22860
X124460Y25400
X124460Y61468
X124460Y30480
X-508Y61468
X-508Y58928
X-508Y56388
X-508Y64008
X-508Y53848
X-508Y51308
X-508Y48768
X-508Y46228
X-508Y43688
X-508Y41148
X-508Y38608
X-508Y36068
X20828Y36068
X20828Y38608
X20828Y41148
X20828Y43688
X20828Y46228
X20828Y48768
X20828Y51308
X20828Y53848
X20828Y56388
X20828Y58928
X20828Y61468
X20828Y64008
X25400Y61468
X25400Y58928
X25400Y56388
X25400Y64008
X25400Y53848
X25400Y51308
X25400Y48768
X25400Y46228
X25400Y43688
X25400Y41148
X25400Y38608
X25400Y36068
X46736Y36068
X46736Y38608
X46736Y41148
X46736Y43688
X46736Y46228
X46736Y48768
X46736Y51308
X46736Y53848
X46736Y56388
X46736Y58928
X46736Y61468
X46736Y64008
X51308Y61468
X51308Y58928
X51308Y56388
X51308Y64008
X51308Y53848
X51308Y51308
X51308Y48768
X51308Y46228
X51308Y43688
X51308Y41148
X51308Y38608
X51308Y36068
X72644Y36068
X72644Y38608
X72644Y41148
X72644Y43688
X72644Y46228
X72644Y48768
X72644Y51308
X72644Y53848
X72644Y56388
X72644Y58928
X72644Y61468
X72644Y64008
X77216Y61468
X77216Y58928
X77216Y56388
X77216Y64008
X77216Y53848
X77216Y51308
X77216Y48768
X77216Y46228
X77216Y43688
X77216Y41148
X77216Y38608
X77216Y36068
X98552Y36068
X98552Y38608
X98552Y41148
X98552Y43688
X98552Y46228
X98552Y48768
X98552Y51308
X98552Y53848
X98552Y56388
X98552Y58928
X98552Y61468
X98552Y64008
X103124Y61468
X103124Y58928
X103124Y56388
X103124Y64008
X103124Y53848
X103124Y51308
X103124Y48768
X103124Y46228
X103124Y43688
X103124Y41148
X103124Y38608
X103124Y36068
X124460Y36068
X124460Y38608
X124460Y41148
X124460Y43688
X124460Y46228
X124460Y48768
X124460Y51308
X124460Y53848
X124460Y56388
X124460Y58928
X124460Y131064
X124460Y64008
X-508Y94996
X-508Y92456
X-508Y89916
X-508Y97536
X-508Y87376
X-508Y84836
X-508Y82296
X-508Y79756
X-508Y77216
X-508Y74676
X-508Y72136
X-508Y69596
X20828Y69596
X20828Y72136
X20828Y74676
X20828Y77216
X20828Y79756
X20828Y82296
X20828Y84836
X20828Y87376
X20828Y89916
X20828Y92456
X20828Y94996
X20828Y97536
X25400Y94996
X25400Y92456
X25400Y89916
X25400Y97536
X25400Y87376
X25400Y84836
X25400Y82296
X25400Y79756
X25400Y77216
X25400Y74676
X25400Y72136
X25400Y69596
X46736Y69596
X46736Y72136
X46736Y74676
X46736Y77216
X46736Y79756
X46736Y82296
X46736Y84836
X46736Y87376
X46736Y89916
X46736Y92456
X46736Y94996
X46736Y97536
X51308Y94996
X51308Y92456
X51308Y89916
X51308Y97536
X51308Y87376
X51308Y84836
X51308Y82296
X51308Y79756
X51308Y77216
X51308Y74676
X51308Y72136
X51308Y69596
X72644Y69596
X72644Y72136
X72644Y74676
X72644Y77216
X72644Y79756
X72644Y82296
X72644Y84836
X72644Y87376
X72644Y89916
X72644Y92456
X72644Y94996
X72644Y97536
X77216Y94996
X77216Y92456
X77216Y89916
X77216Y97536
X77216Y87376
X77216Y84836
X77216Y82296
X77216Y79756
X77216Y77216
X77216Y74676
X77216Y72136
X77216Y69596
X98552Y69596
X98552Y72136
X98552Y74676
X98552Y77216
X98552Y79756
X98552Y82296
X98552Y84836
X98552Y87376
X98552Y89916
X98552Y92456
X98552Y94996
X98552Y97536
X103124Y94996
X103124Y92456
X103124Y89916
X103124Y97536
X103124Y87376
X103124Y84836
X103124Y82296
X103124Y79756
X103124Y77216
X103124Y74676
X103124Y72136
X103124Y69596
X124460Y69596
X124460Y72136
X124460Y74676
X124460Y77216
X124460Y79756
X124460Y82296
X124460Y84836
X124460Y87376
X124460Y89916
X124460Y92456
X124460Y94996
X124460Y97536
X-508Y128524
X-508Y125984
X-508Y123444
X-508Y131064
X-508Y120904
X-508Y118364
X-508Y115824
X-508Y113284
X-508Y110744
X-508Y108204
X-508Y105664
X-508Y103124
X20828Y103124
X20828Y105664
X20828Y108204
X20828Y110744
X20828Y113284
X20828Y115824
X20828Y118364
X20828Y120904
X20828Y123444
X20828Y125984
X20828Y128524
X20828Y131064
X25400Y128524
X25400Y125984
X25400Y123444
X25400Y131064
X25400Y120904
X25400Y118364
X25400Y115824
X25400Y113284
X25400Y110744
X25400Y108204
X25400Y105664
X25400Y103124
X46736Y103124
X46736Y105664
X46736Y108204
X46736Y110744
X46736Y113284
X46736Y115824
X46736Y118364
X46736Y120904
X46736Y123444
X46736Y125984
X46736Y128524
X46736Y131064
X51308Y128524
X51308Y125984
X51308Y123444
X51308Y131064
X51308Y120904
X51308Y118364
X51308Y115824
X51308Y113284
X51308Y110744
X51308Y108204
X51308Y105664
X51308Y103124
X72644Y103124
X72644Y105664
X72644Y108204
X72644Y110744
X72644Y113284
X72644Y115824
X72644Y118364
X72644Y123444
X72644Y125984
X72644Y128524
X72644Y131064
X77216Y128524
X77216Y125984
X77216Y123444
X77216Y131064
X77216Y120904
X77216Y118364
X77216Y115824
X77216Y113284
X77216Y110744
X77216Y108204
X77216Y105664
X77216Y103124
X98552Y103124
X98552Y105664
X98552Y108204
X98552Y110744
X98552Y113284
X98552Y115824
X98552Y118364
X98552Y120904
X98552Y123444
X98552Y125984
X98552Y128524
X98552Y131064
X103124Y128524
X103124Y125984
X103124Y123444
X103124Y131064
X103124Y120904
X103124Y118364
X103124Y115824
X103124Y113284
X103124Y110744
X103124Y108204
X103124Y105664
X103124Y103124
X124460Y103124
X124460Y105664
X124460Y108204
X124460Y110744
X124460Y113284
X124460Y115824
X124460Y118364
X124460Y120904
X124460Y123444
X124460Y125984
X124460Y128524
T2
X123952Y131064
X0Y27940
X0Y25400
X0Y22860
X0Y30480
X0Y20320
X0Y17780
X0Y15240
X0Y12700
X0Y10160
X0Y7620
X0Y5080
X0Y2540
X20320Y2540
X20320Y5080
X20320Y7620
X20320Y10160
X20320Y12700
X20320Y15240
X20320Y17780
X20320Y20320
X20320Y22860
X20320Y25400
X20320Y27940
X20320Y30480
X25908Y27940
X25908Y25400
X25908Y22860
X25908Y30480
X25908Y20320
X25908Y17780
X25908Y15240
X25908Y12700
X25908Y10160
X25908Y7620
X25908Y5080
X25908Y2540
X46228Y2540
X46228Y5080
X46228Y7620
X46228Y10160
X46228Y12700
X46228Y15240
X46228Y17780
X46228Y20320
X46228Y22860
X46228Y25400
X46228Y27940
X46228Y30480
X51816Y27940
X51816Y25400
X51816Y22860
X51816Y30480
X51816Y20320
X51816Y17780
X51816Y15240
X51816Y12700
X51816Y10160
X51816Y7620
X51816Y5080
X51816Y2540
X72136Y2540
X72136Y5080
X72136Y7620
X72136Y10160
X72136Y12700
X72136Y15240
X72136Y17780
X72136Y20320
X72136Y22860
X72136Y25400
X72136Y27940
X72136Y30480
X77724Y27940
X77724Y25400
X77724Y22860
X77724Y30480
X77724Y20320
X77724Y17780
X77724Y15240
X77724Y12700
X77724Y10160
X77724Y7620
X77724Y5080
X77724Y2540
X98044Y2540
X98044Y5080
X98044Y7620
X98044Y10160
X98044Y12700
X98044Y15240
X98044Y17780
X98044Y20320
X98044Y22860
X98044Y25400
X98044Y27940
X98044Y30480
X103632Y27940
X103632Y25400
X103632Y22860
X103632Y30480
X103632Y20320
X103632Y17780
X103632Y15240
X103632Y12700
X103632Y10160
X103632Y7620
X103632Y5080
X103632Y2540
X123952Y2540
X123952Y5080
X123952Y7620
X123952Y10160
X123952Y12700
X123952Y15240
X123952Y17780
X123952Y20320
X123952Y22860
X123952Y25400
X123952Y27940
X123952Y30480
X0Y61468
X0Y58928
X0Y56388
X0Y64008
X0Y53848
X0Y51308
X0Y48768
X0Y46228
X0Y43688
X0Y41148
X0Y38608
X0Y36068
X20320Y36068
X20320Y38608
X20320Y41148
X20320Y43688
X20320Y46228
X20320Y48768
X20320Y51308
X20320Y53848
X20320Y56388
X20320Y58928
X20320Y61468
X20320Y64008
X25908Y61468
X25908Y58928
X25908Y56388
X25908Y64008
X25908Y53848
X25908Y51308
X25908Y48768
X25908Y46228
X25908Y43688
X25908Y41148
X25908Y38608
X25908Y36068
X46228Y36068
X46228Y38608
X46228Y41148
X46228Y43688
X46228Y46228
X46228Y48768
X46228Y51308
X46228Y53848
X46228Y56388
X46228Y58928
X46228Y61468
X46228Y64008
X51816Y61468
X51816Y58928
X51816Y56388
X51816Y64008
X51816Y53848
X51816Y51308
X51816Y48768
X51816Y46228
X51816Y43688
X51816Y41148
X51816Y38608
X51816Y36068
X72136Y36068
X72136Y38608
X72136Y41148
X72136Y43688
X72136Y46228
X72136Y48768
X72136Y51308
X72136Y53848
X72136Y56388
X72136Y58928
X72136Y61468
X72136Y64008
X77724Y61468
X77724Y58928
X77724Y56388
X77724Y64008
X77724Y53848
X77724Y51308
X77724Y48768
X77724Y46228
X77724Y43688
X77724Y41148
X77724Y38608
X77724Y36068
X98044Y36068
X98044Y38608
X98044Y41148
X98044Y43688
X98044Y46228
X98044Y48768
X98044Y51308
X98044Y53848
X98044Y56388
X98044Y58928
X98044Y61468
X98044Y64008
X103632Y61468
X103632Y58928
X103632Y56388
X103632Y64008
X103632Y53848
X103632Y51308
X103632Y48768
X103632Y46228
X103632Y43688
X103632Y41148
X103632Y38608
X103632Y36068
X123952Y36068
X123952Y38608
X123952Y41148
X123952Y43688
X123952Y46228
X123952Y48768
X123952Y51308
X123952Y53848
X123952Y56388
X123952Y58928
X123952Y61468
X123952Y64008
X0Y94996
X0Y92456
X0Y89916
X0Y97536
X0Y87376
X0Y84836
X0Y82296
X0Y79756
X0Y77216
X0Y74676
X0Y72136
X0Y69596
X20320Y69596
X20320Y72136
X20320Y74676
X20320Y77216
X20320Y79756
X20320Y82296
X20320Y84836
X20320Y87376
X20320Y89916
X20320Y92456
X20320Y94996
X20320Y97536
X25908Y94996
X25908Y92456
X25908Y89916
X25908Y97536
X25908Y87376
X25908Y84836
X25908Y82296
X25908Y79756
X25908Y77216
X25908Y74676
X25908Y72136
X25908Y69596
X46228Y69596
X46228Y72136
X46228Y74676
X46228Y77216
X46228Y79756
X46228Y82296
X46228Y84836
X46228Y87376
X46228Y89916
X46228Y92456
X46228Y94996
X46228Y97536
X51816Y94996
X51816Y92456
X51816Y89916
X51816Y97536
X51816Y87376
X51816Y84836
X51816Y82296
X51816Y79756
X51816Y77216
X51816Y74676
X51816Y72136
X51816Y69596
X72136Y69596
X72136Y72136
X72136Y74676
X72136Y77216
X72136Y79756
X72136Y82296
X72136Y84836
X72136Y87376
X72136Y89916
X72136Y92456
X72136Y94996
X72136Y97536
X77724Y94996
X77724Y92456
X77724Y89916
X77724Y97536
X77724Y87376
X77724Y84836
X77724Y82296
X77724Y79756
X77724Y77216
X77724Y74676
X77724Y72136
X77724Y69596
X98044Y69596
X98044Y72136
X98044Y74676
X98044Y77216
X98044Y79756
X98044Y82296
X98044Y84836
X98044Y87376
X98044Y89916
X98044Y92456
X98044Y94996
X98044Y97536
X103632Y94996
X103632Y92456
X103632Y89916
X103632Y97536
X103632Y87376
X103632Y84836
X103632Y82296
X103632Y79756
X103632Y77216
X103632Y74676
X103632Y72136
X103632Y69596
X123952Y69596
X123952Y72136
X123952Y74676
X123952Y77216
X123952Y79756
X123952Y82296
X123952Y84836
X123952Y87376
X123952Y89916
X123952Y92456
X123952Y94996
X123952Y97536
X0Y128524
X0Y125984
X0Y123444
X0Y131064
X0Y120904
X0Y118364
X0Y115824
X0Y113284
X0Y110744
X0Y108204
X0Y105664
X0Y103124
X20320Y103124
X20320Y105664
X20320Y108204
X20320Y110744
X20320Y113284
X20320Y115824
X20320Y118364
X20320Y120904
X20320Y123444
X20320Y125984
X20320Y128524
X20320Y131064
X25908Y128524
X25908Y125984
X25908Y123444
X25908Y131064
X25908Y120904
X25908Y118364
X25908Y115824
X25908Y113284
X25908Y110744
X25908Y108204
X25908Y105664
X25908Y103124
X46228Y103124
X46228Y105664
X46228Y108204
X46228Y110744
X46228Y113284
X46228Y115824
X46228Y118364
X46228Y120904
X46228Y123444
X46228Y125984
X46228Y128524
X46228Y131064
X51816Y128524
X51816Y125984
X51816Y123444
X51816Y131064
X51816Y120904
X51816Y118364
X51816Y115824
X51816Y113284
X51816Y110744
X51816Y108204
X51816Y105664
X51816Y103124
X72136Y103124
X72136Y105664
X72136Y108204
X72136Y110744
X72136Y113284
X72136Y115824
X72136Y118364
X72136Y120904
X72136Y123444
X72136Y125984
X72136Y128524
X72136Y131064
X77724Y128524
X77724Y125984
X77724Y123444
X77724Y131064
X77724Y120904
X77724Y118364
X77724Y115824
X77724Y113284
X77724Y110744
X77724Y108204
X77724Y105664
X77724Y103124
X98044Y103124
X98044Y105664
X98044Y108204
X98044Y110744
X98044Y113284
X98044Y115824
X98044Y118364
X98044Y120904
X98044Y123444
X98044Y125984
X98044Y128524
X98044Y131064
X103632Y128524
X103632Y125984
X103632Y123444
X103632Y131064
X103632Y120904
X103632Y118364
X103632Y115824
X103632Y113284
X103632Y110744
X103632Y108204
X103632Y105664
X103632Y103124
X123952Y103124
X123952Y105664
X123952Y108204
X123952Y110744
X123952Y113284
X123952Y115824
X123952Y118364
X123952Y120904
X123952Y123444
X123952Y125984
X123952Y128524
T3
X7493Y43053
X7493Y43561
X7239Y44069
X6794Y44577
X3492Y55245
X3937Y46037
X6858Y40069
X17463Y45402
X15748Y53657
X2667Y36195
X2667Y37084
X2667Y38989
X7302Y42482
X12418Y41811
X11947Y42672
X11874Y52197
X8763Y51183
X10109Y51183
X12427Y51246
X3238Y64262
X8001Y61468
X6921Y64325
X6604Y59055
X7556Y61150
X6985Y63373
X11874Y59563
X11874Y54673
X13716Y35822
X11176Y38354
X16383Y35941
X40132Y51181
X38608Y51689
X38608Y56134
X38608Y54864
X38608Y53594
X38608Y52324
X40323Y52959
X40323Y51689
X40323Y55499
X40323Y56769
X36449Y49530
X37973Y49530
X39624Y49530
X39624Y47117
X39624Y48387
X37973Y47117
X36449Y47117
X34798Y47117
X34798Y49530
X34798Y48387
X34798Y44704
X36449Y44704
X37973Y44704
X39624Y44704
X39624Y45847
X34798Y45847
X40323Y54229
X40323Y58039
X40323Y59309
X38608Y57404
X38608Y58674
X38608Y59944
X36449Y51625
X36449Y52959
X36449Y54864
X36449Y56134
X36449Y57404
X36703Y58420
X34544Y57404
X34544Y56134
X34544Y54864
X34544Y53594
X34544Y52324
X34544Y51689
X42799Y62357
X41910Y59055
X44069Y59817
X44069Y61087
X44069Y55753
X42037Y55753
X37084Y51689
X38037Y51689
X32258Y48514
X29845Y48514
X34671Y59817
X35179Y60325
X35687Y59817
X35179Y59309
X35179Y59817
X29845Y46672
X29845Y45148
X34227Y40005
X37021Y40005
X30416Y37275
X31623Y37275
X30099Y35814
X33020Y51498
X30353Y55245
X31813Y55308
X29464Y61214
X31686Y59245
X33338Y58039
X29146Y63436
X29718Y57213
X43053Y46037
X42926Y53100
X42990Y50687
X32258Y38291
X31115Y38799
X37783Y57086
X38608Y61468
X40577Y61468
X40577Y60198
X36576Y64262
X38481Y64262
X39497Y64262
X42799Y64262
X36576Y62484
X36830Y61341
X38354Y62484
X37592Y64262
X41021Y64262
X35687Y64262
X39688Y37275
X39688Y36640
X41847Y44005
X41847Y42863
X32512Y35751
X34290Y36259
X44958Y62738
X44069Y61849
X29781Y42418
X44640Y37275
X44894Y39942
X28511Y64706
X36703Y35243
X36068Y34481
X27495Y36068
X27495Y39878
X27368Y60198
X27495Y65596
X27495Y62738
X36068Y65596
X44640Y64008
X44640Y50038
X44640Y46228
X44640Y42418
X44640Y34449
X31369Y57213
X44640Y43688
X41275Y48930
X41783Y62674
X41275Y48387
X41740Y60261
X44069Y54102
X43815Y50673
X29845Y47498
X41021Y43307
X42164Y44831
X41783Y45212
X41402Y45593
X35433Y42926
X35941Y42926
X36449Y42926
X34925Y42926
X33401Y43053
X33401Y43561
X33147Y44069
X32702Y44577
X29400Y55245
X29845Y46037
X32766Y40069
X43371Y45402
X41656Y53657
X28575Y36195
X28575Y37084
X28575Y38989
X33211Y42482
X38326Y41811
X37856Y42672
X37783Y52197
X34671Y51183
X36017Y51183
X38335Y51246
X29146Y64262
X33909Y61468
X32830Y64325
X32512Y59055
X33465Y61150
X32893Y63373
X37783Y59563
X37783Y54673
X39624Y35822
X37084Y38354
X42291Y35941
X66040Y51181
X64516Y51689
X64516Y56134
X64516Y54864
X64516Y53594
X64516Y52324
X66231Y52959
X66231Y51689
X66231Y55499
X66231Y56769
X62357Y49530
X63881Y49530
X65532Y49530
X65532Y47117
X65532Y48387
X63881Y47117
X62357Y47117
X60706Y47117
X60706Y49530
X60706Y48387
X60706Y44704
X62357Y44704
X63881Y44704
X65532Y44704
X65532Y45847
X60706Y45847
X66231Y54229
X66231Y58039
X66231Y59309
X64516Y57404
X64516Y58674
X64516Y59944
X62357Y51625
X62357Y52959
X62357Y54864
X62357Y56134
X62357Y57404
X62611Y58420
X60452Y57404
X60452Y56134
X60452Y54864
X60452Y53594
X60452Y52324
X60452Y51689
X68707Y62357
X67818Y59055
X69977Y59817
X69977Y61087
X69977Y55753
X67945Y55753
X62992Y51689
X63944Y51689
X58166Y48514
X55753Y48514
X60579Y59817
X61087Y60325
X61595Y59817
X61087Y59309
X61087Y59817
X55753Y46672
X55753Y45148
X60134Y40005
X62928Y40005
X56324Y37275
X57531Y37275
X56007Y35814
X58928Y51498
X56261Y55245
X57721Y55308
X55372Y61214
X57594Y59245
X59245Y58039
X55054Y63436
X55626Y57213
X68961Y46037
X68834Y53100
X68898Y50687
X58166Y38291
X57023Y38799
X63690Y57086
X64516Y61468
X66485Y61468
X66485Y60198
X62484Y64262
X64389Y64262
X65405Y64262
X68707Y64262
X62484Y62484
X62738Y61341
X64262Y62484
X63500Y64262
X66929Y64262
X61595Y64262
X65596Y37275
X65596Y36640
X67755Y44005
X67755Y42863
X58420Y35751
X60198Y36259
X70866Y62738
X69977Y61849
X55689Y42418
X70549Y37275
X70803Y39942
X54419Y64706
X62611Y35243
X61976Y34481
X53403Y36068
X53403Y39878
X53276Y60198
X53403Y65596
X53403Y62738
X61976Y65596
X70549Y64008
X70549Y50038
X70549Y46228
X70549Y42418
X70549Y34449
X57277Y57213
X70549Y43688
X67183Y48930
X67691Y62674
X67183Y48387
X67648Y60261
X69977Y54102
X69723Y50673
X55753Y47498
X66929Y43307
X68072Y44831
X67691Y45212
X67310Y45593
X61341Y42926
X61849Y42926
X62357Y42926
X60833Y42926
X59309Y43053
X59309Y43561
X59055Y44069
X58610Y44577
X55308Y55245
X55753Y46037
X58674Y40069
X69279Y45402
X67564Y53657
X54483Y36195
X54483Y37084
X54483Y38989
X59118Y42482
X64234Y41811
X63763Y42672
X63690Y52197
X60579Y51183
X61925Y51183
X64243Y51246
X55054Y64262
X59817Y61468
X58737Y64325
X58420Y59055
X59372Y61150
X58801Y63373
X63690Y59563
X63690Y54673
X65532Y35822
X62992Y38354
X68199Y35941
X91948Y51181
X90424Y51689
X90424Y56134
X90424Y54864
X90424Y53594
X90424Y52324
X92138Y52959
X92138Y51689
X92138Y55499
X92138Y56769
X88265Y49530
X89789Y49530
X91440Y49530
X91440Y47117
X91440Y48387
X89789Y47117
X88265Y47117
X86614Y47117
X86614Y49530
X86614Y48387
X86614Y44704
X88265Y44704
X89789Y44704
X91440Y44704
X91440Y45847
X86614Y45847
X92138Y54229
X92138Y58039
X92138Y59309
X90424Y57404
X90424Y58674
X90424Y59944
X88265Y51625
X88265Y52959
X88265Y54864
X88265Y56134
X88265Y57404
X88519Y58420
X86360Y57404
X86360Y56134
X86360Y54864
X86360Y53594
X86360Y52324
X86360Y51689
X94615Y62357
X93726Y59055
X95885Y59817
X95885Y61087
X95885Y55753
X93853Y55753
X88900Y51689
X89852Y51689
X84074Y48514
X81661Y48514
X86487Y59817
X86995Y60325
X87503Y59817
X86995Y59309
X86995Y59817
X81661Y46672
X81661Y45148
X86043Y40005
X88836Y40005
X82233Y37275
X83439Y37275
X81915Y35814
X84836Y51498
X82169Y55245
X83630Y55308
X81280Y61214
X83503Y59245
X85154Y58039
X80963Y63436
X81534Y57213
X94869Y46037
X94742Y53100
X94805Y50687
X84074Y38291
X82931Y38799
X89598Y57086
X90424Y61468
X92392Y61468
X92392Y60198
X88392Y64262
X90297Y64262
X91313Y64262
X94615Y64262
X88392Y62484
X88646Y61341
X90170Y62484
X89408Y64262
X92837Y64262
X87503Y64262
X91503Y37275
X91503Y36640
X93662Y44005
X93662Y42863
X84328Y35751
X86106Y36259
X96774Y62738
X95885Y61849
X81598Y42418
X96456Y37275
X96710Y39942
X80328Y64706
X88519Y35243
X87884Y34481
X79312Y36068
X79312Y39878
X79185Y60198
X79312Y65596
X79312Y62738
X87884Y65596
X96456Y64008
X96456Y50038
X96456Y46228
X96456Y42418
X96456Y34449
X83185Y57213
X96456Y43688
X93091Y48930
X93599Y62674
X93091Y48387
X93556Y60261
X95885Y54102
X95631Y50673
X81661Y47498
X92837Y43307
X93980Y44831
X93599Y45212
X93218Y45593
X87249Y42926
X87757Y42926
X88265Y42926
X86741Y42926
X85217Y43053
X85217Y43561
X84963Y44069
X84519Y44577
X81217Y55245
X81661Y46037
X84582Y40069
X95186Y45402
X93472Y53657
X80391Y36195
X80391Y37084
X80391Y38989
X85027Y42482
X90142Y41811
X89671Y42672
X89598Y52197
X86487Y51183
X87833Y51183
X90151Y51246
X80963Y64262
X85725Y61468
X84646Y64325
X84328Y59055
X85281Y61150
X84709Y63373
X89598Y59563
X89598Y54673
X91440Y35822
X88900Y38354
X94107Y35941
X117856Y51181
X116332Y51689
X116332Y56134
X116332Y54864
X116332Y53594
X116332Y52324
X118046Y52959
X118046Y51689
X118046Y55499
X118046Y56769
X114173Y49530
X115697Y49530
X117348Y49530
X117348Y47117
X117348Y48387
X115697Y47117
X114173Y47117
X112522Y47117
X112522Y49530
X112522Y48387
X112522Y44704
X114173Y44704
X115697Y44704
X117348Y44704
X117348Y45847
X112522Y45847
X118046Y54229
X118046Y58039
X118046Y59309
X116332Y57404
X116332Y58674
X116332Y59944
X114173Y51625
X114173Y52959
X114173Y54864
X114173Y56134
X114173Y57404
X114427Y58420
X112268Y57404
X112268Y56134
X112268Y54864
X112268Y53594
X112268Y52324
X112268Y51689
X120523Y62357
X119634Y59055
X121793Y59817
X121793Y61087
X121793Y55753
X119761Y55753
X114808Y51689
X115760Y51689
X109982Y48514
X107569Y48514
X112395Y59817
X112903Y60325
X113411Y59817
X112903Y59309
X112903Y59817
X107569Y46672
X107569Y45148
X111950Y40005
X114744Y40005
X108140Y37275
X109347Y37275
X107823Y35814
X110744Y51498
X108077Y55245
X109537Y55308
X107188Y61214
X109410Y59245
X111061Y58039
X106870Y63436
X107442Y57213
X120777Y46037
X120650Y53100
X120713Y50687
X109982Y38291
X108839Y38799
X115506Y57086
X116332Y61468
X118300Y61468
X118300Y60198
X114300Y64262
X116205Y64262
X117221Y64262
X120523Y64262
X114300Y62484
X114554Y61341
X116078Y62484
X115316Y64262
X118745Y64262
X113411Y64262
X117411Y37275
X117411Y36640
X119570Y44005
X119570Y42863
X110236Y35751
X112014Y36259
X122682Y62738
X121793Y61849
X107505Y42418
X122364Y37275
X122618Y39942
X106235Y64706
X114427Y35243
X113792Y34481
X105219Y36068
X105219Y39878
X105092Y60198
X105219Y65596
X105219Y62738
X113792Y65596
X122364Y64008
X122364Y50038
X122364Y46228
X122364Y42418
X122364Y34449
X109093Y57213
X122364Y43688
X118999Y48930
X119507Y62674
X118999Y48387
X119464Y60261
X121793Y54102
X121539Y50673
X107569Y47498
X118745Y43307
X119888Y44831
X119507Y45212
X119126Y45593
X113157Y42926
X113665Y42926
X114173Y42926
X112649Y42926
X111125Y43053
X111125Y43561
X110871Y44069
X110426Y44577
X107124Y55245
X107569Y46037
X110490Y40069
X121094Y45402
X119380Y53657
X106299Y36195
X106299Y37084
X106299Y38989
X110934Y42482
X116050Y41811
X115579Y42672
X115506Y52197
X112395Y51183
X113741Y51183
X116059Y51246
X106870Y64262
X111633Y61468
X110553Y64325
X110236Y59055
X111188Y61150
X110617Y63373
X115506Y59563
X115506Y54673
X117348Y35822
X114808Y38354
X120015Y35941
X14224Y84709
X12700Y85217
X12700Y89662
X12700Y88392
X12700Y87122
X12700Y85852
X14414Y86487
X14414Y85217
X14414Y89027
X14414Y90297
X10541Y83058
X12065Y83058
X13716Y83058
X13716Y80645
X13716Y81915
X12065Y80645
X10541Y80645
X8890Y80645
X8890Y83058
X8890Y81915
X8890Y78232
X10541Y78232
X12065Y78232
X13716Y78232
X13716Y79375
X8890Y79375
X14414Y87757
X14414Y91567
X14414Y92837
X12700Y90932
X12700Y92202
X12700Y93472
X10541Y85154
X10541Y86487
X10541Y88392
X10541Y89662
X10541Y90932
X10795Y91948
X8636Y90932
X8636Y89662
X8636Y88392
X8636Y87122
X8636Y85852
X8636Y85217
X16891Y95885
X16002Y92583
X18161Y93345
X18161Y94615
X18161Y89281
X16129Y89281
X11176Y85217
X12128Y85217
X6350Y82042
X3937Y82042
X8763Y93345
X9271Y93853
X9779Y93345
X9271Y92837
X9271Y93345
X3937Y80201
X3937Y78677
X8319Y73533
X11112Y73533
X4509Y70803
X5715Y70803
X4191Y69342
X7112Y85027
X4445Y88773
X5905Y88836
X3556Y94742
X5778Y92773
X7429Y91567
X3238Y96964
X3810Y90741
X17145Y79566
X17018Y86628
X17082Y84215
X6350Y71819
X5207Y72327
X11874Y90614
X12700Y94996
X14668Y94996
X14668Y93726
X10668Y97790
X12573Y97790
X13589Y97790
X16891Y97790
X10668Y96012
X10922Y94869
X12446Y96012
X11684Y97790
X15113Y97790
X9779Y97790
X13779Y70803
X13779Y70168
X15938Y77534
X15938Y76391
X6604Y69279
X8382Y69787
X19050Y96266
X18161Y95377
X3873Y75946
X18733Y70803
X18987Y73470
X2604Y98234
X10795Y68771
X10160Y68009
X1587Y69596
X1587Y73406
X1460Y93726
X1587Y99123
X1587Y96266
X10160Y99123
X18733Y97536
X18733Y83566
X18733Y79756
X18733Y75946
X18733Y67977
X5461Y90741
X18733Y77216
X15367Y82458
X15875Y96202
X15367Y81915
X15832Y93789
X18161Y87630
X17907Y84201
X3937Y81026
X15113Y76835
X16256Y78359
X15875Y78740
X15494Y79121
X9525Y76454
X10033Y76454
X10541Y76454
X9017Y76454
X7493Y76581
X7493Y77089
X7239Y77597
X6794Y78105
X3492Y88773
X3937Y79566
X6858Y73597
X17463Y78931
X15748Y87186
X2667Y69723
X2667Y70612
X2667Y72517
X7302Y76010
X12418Y75339
X11947Y76200
X11874Y85725
X8763Y84711
X10109Y84711
X12427Y84774
X3238Y97790
X8001Y94996
X6921Y97853
X6604Y92583
X7556Y94678
X6985Y96901
X11874Y93091
X11874Y88201
X13716Y69350
X11176Y71882
X16383Y69469
X40132Y84709
X38608Y85217
X38608Y89662
X38608Y88392
X38608Y87122
X38608Y85852
X40323Y86487
X40323Y85217
X40323Y89027
X40323Y90297
X36449Y83058
X37973Y83058
X39624Y83058
X39624Y80645
X39624Y81915
X37973Y80645
X36449Y80645
X34798Y80645
X34798Y83058
X34798Y81915
X34798Y78232
X36449Y78232
X37973Y78232
X39624Y78232
X39624Y79375
X34798Y79375
X40323Y87757
X40323Y91567
X40323Y92837
X38608Y90932
X38608Y92202
X38608Y93472
X36449Y85154
X36449Y86487
X36449Y88392
X36449Y89662
X36449Y90932
X36703Y91948
X34544Y90932
X34544Y89662
X34544Y88392
X34544Y87122
X34544Y85852
X34544Y85217
X42799Y95885
X41910Y92583
X44069Y93345
X44069Y94615
X44069Y89281
X42037Y89281
X37084Y85217
X38037Y85217
X32258Y82042
X29845Y82042
X34671Y93345
X35179Y93853
X35687Y93345
X35179Y92837
X35179Y93345
X29845Y80201
X29845Y78677
X34227Y73533
X37021Y73533
X30416Y70803
X31623Y70803
X30099Y69342
X33020Y85027
X30353Y88773
X31813Y88836
X29464Y94742
X31686Y92773
X33338Y91567
X29146Y96964
X29718Y90741
X43053Y79566
X42926Y86628
X42990Y84215
X32258Y71819
X31115Y72327
X37783Y90614
X38608Y94996
X40577Y94996
X40577Y93726
X36576Y97790
X38481Y97790
X39497Y97790
X42799Y97790
X36576Y96012
X36830Y94869
X38354Y96012
X37592Y97790
X41021Y97790
X35687Y97790
X39688Y70803
X39688Y70168
X41847Y77534
X41847Y76391
X32512Y69279
X34290Y69787
X44958Y96266
X44069Y95377
X29781Y75946
X44640Y70803
X44894Y73470
X28511Y98234
X36703Y68771
X36068Y68009
X27495Y69596
X27495Y73406
X27368Y93726
X27495Y99123
X27495Y96266
X36068Y99123
X44640Y97536
X44640Y83566
X44640Y79756
X44640Y75946
X44640Y67977
X31369Y90741
X44640Y77216
X41275Y82458
X41783Y96202
X41275Y81915
X41740Y93789
X44069Y87630
X43815Y84201
X29845Y81026
X41021Y76835
X42164Y78359
X41783Y78740
X41402Y79121
X35433Y76454
X35941Y76454
X36449Y76454
X34925Y76454
X33401Y76581
X33401Y77089
X33147Y77597
X32702Y78105
X29400Y88773
X29845Y79566
X32766Y73597
X43371Y78931
X41656Y87186
X28575Y69723
X28575Y70612
X28575Y72517
X33211Y76010
X38326Y75339
X37856Y76200
X37783Y85725
X34671Y84711
X36017Y84711
X38335Y84774
X29146Y97790
X33909Y94996
X32830Y97853
X32512Y92583
X33465Y94678
X32893Y96901
X37783Y93091
X37783Y88201
X39624Y69350
X37084Y71882
X42291Y69469
X66040Y84709
X64516Y85217
X64516Y89662
X64516Y88392
X64516Y87122
X64516Y85852
X66231Y86487
X66231Y85217
X66231Y89027
X66231Y90297
X62357Y83058
X63881Y83058
X65532Y83058
X65532Y80645
X65532Y81915
X63881Y80645
X62357Y80645
X60706Y80645
X60706Y83058
X60706Y81915
X60706Y78232
X62357Y78232
X63881Y78232
X65532Y78232
X65532Y79375
X60706Y79375
X66231Y87757
X66231Y91567
X66231Y92837
X64516Y90932
X64516Y92202
X64516Y93472
X62357Y85154
X62357Y86487
X62357Y88392
X62357Y89662
X62357Y90932
X62611Y91948
X60452Y90932
X60452Y89662
X60452Y88392
X60452Y87122
X60452Y85852
X60452Y85217
X68707Y95885
X67818Y92583
X69977Y93345
X69977Y94615
X69977Y89281
X67945Y89281
X62992Y85217
X63944Y85217
X58166Y82042
X55753Y82042
X60579Y93345
X61087Y93853
X61595Y93345
X61087Y92837
X61087Y93345
X55753Y80201
X55753Y78677
X60134Y73533
X62928Y73533
X56324Y70803
X57531Y70803
X56007Y69342
X58928Y85027
X56261Y88773
X57721Y88836
X55372Y94742
X57594Y92773
X59245Y91567
X55054Y96964
X55626Y90741
X68961Y79566
X68834Y86628
X68898Y84215
X58166Y71819
X57023Y72327
X63690Y90614
X64516Y94996
X66485Y94996
X66485Y93726
X62484Y97790
X64389Y97790
X65405Y97790
X68707Y97790
X62484Y96012
X62738Y94869
X64262Y96012
X63500Y97790
X66929Y97790
X61595Y97790
X65596Y70803
X65596Y70168
X67755Y77534
X67755Y76391
X58420Y69279
X60198Y69787
X70866Y96266
X69977Y95377
X55689Y75946
X70549Y70803
X70803Y73470
X54419Y98234
X62611Y68771
X61976Y68009
X53403Y69596
X53403Y73406
X53276Y93726
X53403Y99123
X53403Y96266
X61976Y99123
X70549Y97536
X70549Y83566
X70549Y79756
X70549Y75946
X70549Y67977
X57277Y90741
X70549Y77216
X67183Y82458
X67691Y96202
X67183Y81915
X67648Y93789
X69977Y87630
X69723Y84201
X55753Y81026
X66929Y76835
X68072Y78359
X67691Y78740
X67310Y79121
X61341Y76454
X61849Y76454
X62357Y76454
X60833Y76454
X59309Y76581
X59309Y77089
X59055Y77597
X58610Y78105
X55308Y88773
X55753Y79566
X58674Y73597
X69279Y78931
X67564Y87186
X54483Y69723
X54483Y70612
X54483Y72517
X59118Y76010
X64234Y75339
X63763Y76200
X88519Y24892
X60579Y84711
X61925Y84711
X64243Y84774
X55054Y97790
X59817Y94996
X58737Y97853
X58420Y92583
X59372Y94678
X58801Y96901
X63690Y93091
X63690Y88201
X65532Y69350
X62992Y71882
X68199Y69469
X91948Y84709
X90424Y85217
X90424Y89662
X90424Y88392
X90424Y87122
X90424Y85852
X92138Y86487
X92138Y85217
X92138Y89027
X92138Y90297
X88265Y83058
X89789Y83058
X91440Y83058
X91440Y80645
X91440Y81915
X89789Y80645
X88265Y80645
X86614Y80645
X86614Y83058
X86614Y81915
X86614Y78232
X88265Y78232
X89789Y78232
X91440Y78232
X91440Y79375
X86614Y79375
X92138Y87757
X92138Y91567
X92138Y92837
X90424Y90932
X90424Y92202
X90424Y93472
X88265Y85154
X88265Y86487
X88265Y88392
X88265Y89662
X88265Y90932
X88519Y91948
X86360Y90932
X86360Y89662
X86360Y88392
X86360Y87122
X86360Y85852
X86360Y85217
X94615Y95885
X93726Y92583
X95885Y93345
X95885Y94615
X95885Y89281
X93853Y89281
X88900Y85217
X89852Y85217
X84074Y82042
X81661Y82042
X86487Y93345
X86995Y93853
X87503Y93345
X86995Y92837
X86995Y93345
X81661Y80201
X81661Y78677
X86043Y73533
X88836Y73533
X82233Y70803
X83439Y70803
X81915Y69342
X84836Y85027
X82169Y88773
X83630Y88836
X81280Y94742
X83503Y92773
X85154Y91567
X80963Y96964
X81534Y90741
X94869Y79566
X94742Y86628
X94805Y84215
X84074Y71819
X82931Y72327
X89598Y90614
X90424Y94996
X92392Y94996
X92392Y93726
X88392Y97790
X90297Y97790
X91313Y97790
X94615Y97790
X88392Y96012
X88646Y94869
X90170Y96012
X89408Y97790
X92837Y97790
X87503Y97790
X91503Y70803
X91503Y70168
X93662Y77534
X93662Y76391
X84328Y69279
X86106Y69787
X96774Y96266
X95885Y95377
X81598Y75946
X96456Y70803
X96710Y73470
X80328Y98234
X88519Y68771
X87884Y68009
X79312Y69596
X79312Y73406
X79185Y93726
X79312Y99123
X79312Y96266
X87884Y99123
X96456Y97536
X96456Y83566
X96456Y79756
X96456Y75946
X96456Y67977
X83185Y90741
X96456Y77216
X93091Y82458
X93599Y96202
X93091Y81915
X93556Y93789
X95885Y87630
X95631Y84201
X81661Y81026
X92837Y76835
X93980Y78359
X93599Y78740
X93218Y79121
X87249Y76454
X87757Y76454
X88265Y76454
X86741Y76454
X85217Y76581
X85217Y77089
X84963Y77597
X84519Y78105
X81217Y88773
X81661Y79566
X84582Y73597
X95186Y78931
X93472Y87186
X80391Y69723
X80391Y70612
X80391Y72517
X85027Y76010
X90142Y75339
X89671Y76200
X89598Y85725
X86487Y84711
X87833Y84711
X90151Y84774
X80963Y97790
X85725Y94996
X84646Y97853
X84328Y92583
X85281Y94678
X84709Y96901
X89598Y93091
X89598Y88201
X91440Y69350
X88900Y71882
X94107Y69469
X117856Y84709
X116332Y85217
X116332Y89662
X116332Y88392
X116332Y87122
X116332Y85852
X118046Y86487
X118046Y85217
X118046Y89027
X118046Y90297
X114173Y83058
X115697Y83058
X117348Y83058
X117348Y80645
X117348Y81915
X115697Y80645
X114173Y80645
X112522Y80645
X112522Y83058
X112522Y81915
X112522Y78232
X114173Y78232
X115697Y78232
X117348Y78232
X117348Y79375
X112522Y79375
X118046Y87757
X118046Y91567
X118046Y92837
X116332Y90932
X116332Y92202
X116332Y93472
X114173Y85154
X114173Y86487
X114173Y88392
X114173Y89662
X114173Y90932
X114427Y91948
X112268Y90932
X112268Y89662
X112268Y88392
X112268Y87122
X112268Y85852
X112268Y85217
X120523Y95885
X119634Y92583
X121793Y93345
X121793Y94615
X121793Y89281
X119761Y89281
X114808Y85217
X115760Y85217
X109982Y82042
X107569Y82042
X112395Y93345
X112903Y93853
X113411Y93345
X112903Y92837
X112903Y93345
X107569Y80201
X107569Y78677
X111950Y73533
X114744Y73533
X108140Y70803
X109347Y70803
X107823Y69342
X110744Y85027
X108077Y88773
X109537Y88836
X107188Y94742
X109410Y92773
X111061Y91567
X106870Y96964
X107442Y90741
X120777Y79566
X120650Y86628
X120713Y84215
X109982Y71819
X108839Y72327
X115506Y90614
X116332Y94996
X118300Y94996
X118300Y93726
X114300Y97790
X116205Y97790
X117221Y97790
X120523Y97790
X114300Y96012
X114554Y94869
X116078Y96012
X115316Y97790
X118745Y97790
X113411Y97790
X117411Y70803
X117411Y70168
X119570Y77534
X119570Y76391
X110236Y69279
X112014Y69787
X122682Y96266
X121793Y95377
X107505Y75946
X122364Y70803
X122618Y73470
X106235Y98234
X114427Y68771
X113792Y68009
X105219Y69596
X105219Y73406
X105092Y93726
X105219Y99123
X105219Y96266
X113792Y99123
X122364Y97536
X122364Y83566
X122364Y79756
X122364Y75946
X122364Y67977
X109093Y90741
X122364Y77216
X118999Y82458
X119507Y96202
X118999Y81915
X119464Y93789
X121793Y87630
X121539Y84201
X107569Y81026
X118745Y76835
X119888Y78359
X119507Y78740
X119126Y79121
X113157Y76454
X113665Y76454
X114173Y76454
X112649Y76454
X111125Y76581
X111125Y77089
X110871Y77597
X110426Y78105
X107124Y88773
X107569Y79566
X110490Y73597
X121094Y78931
X119380Y87186
X106299Y69723
X106299Y70612
X106299Y72517
X110934Y76010
X116050Y75339
X115579Y76200
X115506Y85725
X112395Y84711
X113741Y84711
X116059Y84774
X106870Y97790
X111633Y94996
X110553Y97853
X110236Y92583
X111188Y94678
X110617Y96901
X115506Y93091
X115506Y88201
X117348Y69350
X114808Y71882
X120015Y69469
X14224Y118237
X12700Y118745
X12700Y123190
X12700Y121920
X12700Y120650
X12700Y119380
X14414Y120015
X14414Y118745
X14414Y122555
X14414Y123825
X10541Y116586
X12065Y116586
X13716Y116586
X13716Y114173
X13716Y115443
X12065Y114173
X10541Y114173
X8890Y114173
X8890Y116586
X8890Y115443
X8890Y111760
X10541Y111760
X12065Y111760
X13716Y111760
X13716Y112903
X8890Y112903
X14414Y121285
X14414Y125095
X14414Y126365
X12700Y124460
X12700Y125730
X12700Y127000
X10541Y118681
X10541Y120015
X10541Y121920
X10541Y123190
X10541Y124460
X10795Y125476
X8636Y124460
X8636Y123190
X8636Y121920
X8636Y120650
X8636Y119380
X8636Y118745
X16891Y129413
X16002Y126111
X18161Y126873
X18161Y128143
X18161Y122809
X16129Y122809
X11176Y118745
X12128Y118745
X6350Y115570
X3937Y115570
X8763Y126873
X9271Y127381
X9779Y126873
X9271Y126365
X9271Y126873
X3937Y113728
X3937Y112204
X8319Y107061
X11112Y107061
X4509Y104330
X5715Y104330
X4191Y102870
X7112Y118554
X4445Y122301
X5905Y122364
X3556Y128270
X5778Y126301
X7429Y125095
X3238Y130492
X3810Y124269
X17145Y113093
X17018Y120156
X17082Y117743
X6350Y105346
X5207Y105854
X11874Y124142
X12700Y128524
X14668Y128524
X14668Y127254
X10668Y131318
X12573Y131318
X13589Y131318
X16891Y131318
X10668Y129540
X10922Y128397
X12446Y129540
X11684Y131318
X15113Y131318
X9779Y131318
X13779Y104330
X13779Y103695
X15938Y111061
X15938Y109918
X6604Y102806
X8382Y103314
X19050Y129794
X18161Y128905
X3873Y109474
X18733Y104330
X18987Y106997
X2604Y131763
X10795Y102298
X10160Y101536
X1587Y103124
X1587Y106934
X1460Y127254
X1587Y132652
X1587Y129794
X10160Y132652
X18733Y131064
X18733Y117094
X18733Y113284
X18733Y109474
X18733Y101505
X5461Y124269
X18733Y110744
X15367Y115986
X15875Y129730
X15367Y115443
X15832Y127317
X18161Y121158
X17907Y117729
X3937Y114554
X15113Y110363
X16256Y111887
X15875Y112268
X15494Y112649
X9525Y109982
X10033Y109982
X10541Y109982
X9017Y109982
X7493Y110109
X7493Y110617
X7239Y111125
X6794Y111633
X3492Y122301
X3937Y113093
X6858Y107124
X17463Y112458
X15748Y120713
X2667Y103251
X2667Y104140
X2667Y106045
X7302Y109537
X12418Y108867
X11947Y109728
X11874Y119253
X8763Y118239
X10109Y118239
X12427Y118302
X3238Y131318
X8001Y128524
X6921Y131382
X6604Y126111
X7556Y128206
X6985Y130429
X11874Y126619
X11874Y121729
X13716Y102878
X11176Y105410
X16383Y102997
X40132Y118237
X38608Y118745
X38608Y123190
X38608Y121920
X38608Y120650
X38608Y119380
X40323Y120015
X40323Y118745
X40323Y122555
X40323Y123825
X36449Y116586
X37973Y116586
X39624Y116586
X39624Y114173
X39624Y115443
X37973Y114173
X36449Y114173
X34798Y114173
X34798Y116586
X34798Y115443
X34798Y111760
X36449Y111760
X37973Y111760
X39624Y111760
X39624Y112903
X34798Y112903
X40323Y121285
X40323Y125095
X40323Y126365
X38608Y124460
X38608Y125730
X38608Y127000
X36449Y118681
X36449Y120015
X36449Y121920
X36449Y123190
X36449Y124460
X36703Y125476
X34544Y124460
X34544Y123190
X34544Y121920
X34544Y120650
X34544Y119380
X34544Y118745
X42799Y129413
X41910Y126111
X44069Y126873
X44069Y128143
X44069Y122809
X42037Y122809
X37084Y118745
X38037Y118745
X32258Y115570
X29845Y115570
X34671Y126873
X35179Y127381
X35687Y126873
X35179Y126365
X35179Y126873
X29845Y113728
X29845Y112204
X34227Y107061
X37021Y107061
X30416Y104330
X31623Y104330
X30099Y102870
X33020Y118554
X30353Y122301
X31813Y122364
X29464Y128270
X31686Y126301
X33338Y125095
X29146Y130492
X29718Y124269
X43053Y113093
X42926Y120156
X42990Y117743
X32258Y105346
X31115Y105854
X37783Y124142
X38608Y128524
X40577Y128524
X40577Y127254
X36576Y131318
X38481Y131318
X39497Y131318
X42799Y131318
X36576Y129540
X36830Y128397
X38354Y129540
X37592Y131318
X41021Y131318
X35687Y131318
X39688Y104330
X39688Y103695
X41847Y111061
X41847Y109918
X32512Y102806
X34290Y103314
X44958Y129794
X44069Y128905
X29781Y109474
X44640Y104330
X44894Y106997
X28511Y131763
X36703Y102298
X36068Y101536
X27495Y103124
X27495Y106934
X27368Y127254
X27495Y132652
X27495Y129794
X36068Y132652
X44640Y131064
X44640Y117094
X44640Y113284
X44640Y109474
X44640Y101505
X31369Y124269
X44640Y110744
X41275Y115986
X41783Y129730
X41275Y115443
X41740Y127317
X44069Y121158
X43815Y117729
X29845Y114554
X41021Y110363
X42164Y111887
X41783Y112268
X41402Y112649
X35433Y109982
X35941Y109982
X36449Y109982
X34925Y109982
X33401Y110109
X33401Y110617
X33147Y111125
X32702Y111633
X29400Y122301
X29845Y113093
X32766Y107124
X43371Y112458
X41656Y120713
X28575Y103251
X28575Y104140
X28575Y106045
X33211Y109537
X38326Y108867
X37856Y109728
X37783Y119253
X34671Y118239
X36017Y118239
X38335Y118302
X29146Y131318
X33909Y128524
X32830Y131382
X32512Y126111
X33465Y128206
X32893Y130429
X37783Y126619
X37783Y121729
X39624Y102878
X37084Y105410
X42291Y102997
X66040Y118237
X64516Y118745
X64516Y123190
X64516Y121920
X64516Y120650
X64516Y119380
X66231Y120015
X66231Y118745
X66231Y122555
X66231Y123825
X62357Y116586
X63881Y116586
X65532Y116586
X65532Y114173
X65532Y115443
X63881Y114173
X62357Y114173
X60706Y114173
X60706Y116586
X60706Y115443
X60706Y111760
X62357Y111760
X63881Y111760
X65532Y111760
X65532Y112903
X60706Y112903
X66231Y121285
X66231Y125095
X66231Y126365
X64516Y124460
X64516Y125730
X64516Y127000
X62357Y118681
X62357Y120015
X62357Y121920
X62357Y123190
X62357Y124460
X62611Y125476
X60452Y124460
X60452Y123190
X60452Y121920
X60452Y120650
X60452Y119380
X60452Y118745
X68707Y129413
X67818Y126111
X69977Y126873
X69977Y128143
X69977Y122809
X67945Y122809
X62992Y118745
X63944Y118745
X58166Y115570
X55753Y115570
X60579Y126873
X61087Y127381
X61595Y126873
X61087Y126365
X61087Y126873
X55753Y113728
X55753Y112204
X60134Y107061
X62928Y107061
X56324Y104330
X57531Y104330
X56007Y102870
X58928Y118554
X56261Y122301
X57721Y122364
X55372Y128270
X57594Y126301
X59245Y125095
X55054Y130492
X55626Y124269
X68961Y113093
X68834Y120156
X68898Y117743
X58166Y105346
X57023Y105854
X63690Y124142
X64516Y128524
X66485Y128524
X66485Y127254
X62484Y131318
X64389Y131318
X65405Y131318
X68707Y131318
X62484Y129540
X62738Y128397
X64262Y129540
X63500Y131318
X66929Y131318
X61595Y131318
X65596Y104330
X65596Y103695
X67755Y111061
X67755Y109918
X58420Y102806
X60198Y103314
X70866Y129794
X69977Y128905
X55689Y109474
X70549Y104330
X70803Y106997
X54419Y131763
X62611Y102298
X61976Y101536
X53403Y103124
X53403Y106934
X53276Y127254
X53403Y132652
X53403Y129794
X61976Y132652
X70549Y131064
X70549Y117094
X70549Y113284
X70549Y109474
X70549Y101505
X57277Y124269
X70549Y110744
X67183Y115986
X67691Y129730
X67183Y115443
X67648Y127317
X69977Y121158
X69723Y117729
X55753Y114554
X66929Y110363
X68072Y111887
X67691Y112268
X67310Y112649
X61341Y109982
X61849Y109982
X62357Y109982
X60833Y109982
X59309Y110109
X59309Y110617
X59055Y111125
X58610Y111633
X55308Y122301
X55753Y113093
X58674Y107124
X69279Y112458
X67564Y120713
X54483Y103251
X54483Y104140
X54483Y106045
X59118Y109537
X64234Y108867
X63763Y109728
X63690Y119253
X60579Y118239
X61925Y118239
X64243Y118302
X55054Y131318
X59817Y128524
X58737Y131382
X58420Y126111
X59372Y128206
X58801Y130429
X63690Y126619
X63690Y121729
X65532Y102878
X62992Y105410
X68199Y102997
X91948Y118237
X90424Y118745
X90424Y123190
X90424Y121920
X90424Y120650
X90424Y119380
X92138Y120015
X92138Y118745
X92138Y122555
X92138Y123825
X88265Y116586
X89789Y116586
X91440Y116586
X91440Y114173
X91440Y115443
X89789Y114173
X88265Y114173
X86614Y114173
X86614Y116586
X86614Y115443
X86614Y111760
X88265Y111760
X89789Y111760
X91440Y111760
X91440Y112903
X86614Y112903
X92138Y121285
X92138Y125095
X92138Y126365
X90424Y124460
X90424Y125730
X90424Y127000
X88265Y118681
X88265Y120015
X88265Y121920
X88265Y123190
X88265Y124460
X88519Y125476
X86360Y124460
X86360Y123190
X86360Y121920
X86360Y120650
X86360Y119380
X86360Y118745
X94615Y129413
X93726Y126111
X95885Y126873
X95885Y128143
X95885Y122809
X93853Y122809
X88900Y118745
X89852Y118745
X84074Y115570
X81661Y115570
X86487Y126873
X86995Y127381
X87503Y126873
X86995Y126365
X86995Y126873
X81661Y113728
X81661Y112204
X86043Y107061
X88836Y107061
X82233Y104330
X83439Y104330
X81915Y102870
X84836Y118554
X82169Y122301
X83630Y122364
X81280Y128270
X83503Y126301
X85154Y125095
X80963Y130492
X81534Y124269
X94869Y113093
X94742Y120156
X94805Y117743
X84074Y105346
X82931Y105854
X89598Y124142
X90424Y128524
X92392Y128524
X92392Y127254
X88392Y131318
X90297Y131318
X91313Y131318
X94615Y131318
X88392Y129540
X88646Y128397
X90170Y129540
X89408Y131318
X92837Y131318
X87503Y131318
X91503Y104330
X91503Y103695
X93662Y111061
X93662Y109918
X84328Y102806
X86106Y103314
X96774Y129794
X95885Y128905
X81598Y109474
X96456Y104330
X96710Y106997
X80328Y131763
X88519Y102298
X87884Y101536
X79312Y103124
X79312Y106934
X79185Y127254
X79312Y132652
X79312Y129794
X87884Y132652
X96456Y131064
X96456Y117094
X96456Y113284
X96456Y109474
X96456Y101505
X83185Y124269
X96456Y110744
X93091Y115986
X93599Y129730
X93091Y115443
X93556Y127317
X95885Y121158
X95631Y117729
X81661Y114554
X92837Y110363
X93980Y111887
X93599Y112268
X93218Y112649
X87249Y109982
X87757Y109982
X88265Y109982
X86741Y109982
X85217Y110109
X85217Y110617
X84963Y111125
X84519Y111633
X81217Y122301
X81661Y113093
X84582Y107124
X95186Y112458
X93472Y120713
X80391Y103251
X80391Y104140
X80391Y106045
X85027Y109537
X90142Y108867
X89671Y109728
X89598Y119253
X86487Y118239
X87833Y118239
X90151Y118302
X80963Y131318
X85725Y128524
X84646Y131382
X84328Y126111
X85281Y128206
X84709Y130429
X89598Y126619
X89598Y121729
X91440Y102878
X88900Y105410
X94107Y102997
X117856Y118237
X116332Y118745
X116332Y123190
X116332Y121920
X116332Y120650
X116332Y119380
X118046Y120015
X118046Y118745
X118046Y122555
X118046Y123825
X114173Y116586
X115697Y116586
X117348Y116586
X117348Y114173
X117348Y115443
X115697Y114173
X114173Y114173
X112522Y114173
X112522Y116586
X112522Y115443
X112522Y111760
X114173Y111760
X115697Y111760
X117348Y111760
X117348Y112903
X112522Y112903
X118046Y121285
X118046Y125095
X118046Y126365
X116332Y124460
X116332Y125730
X116332Y127000
X114173Y118681
X114173Y120015
X114173Y121920
X114173Y123190
X114173Y124460
X114427Y125476
X112268Y124460
X112268Y123190
X112268Y121920
X112268Y120650
X112268Y119380
X112268Y118745
X120523Y129413
X119634Y126111
X121793Y126873
X121793Y128143
X121793Y122809
X119761Y122809
X114808Y118745
X115760Y118745
X109982Y115570
X107569Y115570
X112395Y126873
X112903Y127381
X113411Y126873
X112903Y126365
X112903Y126873
X107569Y113728
X14224Y17653
X111950Y107061
X114744Y107061
X108140Y104330
X109347Y104330
X107823Y102870
X110744Y118554
X108077Y122301
X109537Y122364
X107188Y128270
X109410Y126301
X111061Y125095
X106870Y130492
X107442Y124269
X120777Y113093
X120650Y120156
X120713Y117743
X109982Y105346
X108839Y105854
X115506Y124142
X116332Y128524
X118300Y128524
X118300Y127254
X114300Y131318
X116205Y131318
X117221Y131318
X120523Y131318
X114300Y129540
X114554Y128397
X116078Y129540
X115316Y131318
X118745Y131318
X113411Y131318
X117411Y104330
X117411Y103695
X119570Y111061
X119570Y109918
X110236Y102806
X112014Y103314
X122682Y129794
X121793Y128905
X107505Y109474
X122364Y104330
X122618Y106997
X106235Y131763
X114427Y102298
X113792Y101536
X105219Y103124
X105219Y106934
X105092Y127254
X105219Y132652
X105219Y129794
X113792Y132652
X122364Y131064
X122364Y117094
X122364Y113284
X122364Y109474
X122364Y101505
X109093Y124269
X122364Y110744
X118999Y115986
X119507Y129730
X118999Y115443
X119464Y127317
X121793Y121158
X121539Y117729
X107569Y114554
X118745Y110363
X119888Y111887
X119507Y112268
X119126Y112649
X113157Y109982
X113665Y109982
X114173Y109982
X112649Y109982
X111125Y110109
X111125Y110617
X110871Y111125
X110426Y111633
X107124Y122301
X107569Y113093
X110490Y107124
X121094Y112458
X119380Y120713
X106299Y103251
X106299Y104140
X106299Y106045
X110934Y109537
X116050Y108867
X115579Y109728
X115506Y119253
X112395Y118239
X113741Y118239
X116059Y118302
X106870Y131318
X111633Y128524
X110553Y131382
X110236Y126111
X111188Y128206
X110617Y130429
X115506Y126619
X115506Y121729
X117348Y102878
X114808Y105410
X120015Y102997
X12700Y18161
X12700Y22606
X12700Y21336
X12700Y20066
X12700Y18796
X14414Y19431
X14414Y18161
X14414Y21971
X14414Y23241
X10541Y16002
X12065Y16002
X13716Y16002
X13716Y13589
X13716Y14859
X12065Y13589
X10541Y13589
X8890Y13589
X8890Y16002
X8890Y14859
X8890Y11176
X10541Y11176
X12065Y11176
X13716Y11176
X13716Y12319
X8890Y12319
X14414Y20701
X14414Y24511
X14414Y25781
X12700Y23876
X12700Y25146
X12700Y26416
X10541Y18098
X10541Y19431
X10541Y21336
X10541Y22606
X10541Y23876
X10795Y24892
X8636Y23876
X8636Y22606
X8636Y21336
X8636Y20066
X8636Y18796
X8636Y18161
X16891Y28829
X16002Y25527
X18161Y26289
X18161Y27559
X18161Y22225
X16129Y22225
X11176Y18161
X12128Y18161
X6350Y14986
X3937Y14986
X8763Y26289
X9271Y26797
X9779Y26289
X9271Y25781
X9271Y26289
X3937Y13144
X3937Y11620
X8319Y6477
X11112Y6477
X4509Y3746
X5715Y3746
X4191Y2286
X7112Y17971
X4445Y21717
X5905Y21781
X3556Y27686
X5778Y25717
X7429Y24511
X3238Y29908
X3810Y23685
X17145Y12509
X17018Y19572
X17082Y17159
X6350Y4763
X5207Y5271
X11874Y23558
X12700Y27940
X14668Y27940
X14668Y26670
X10668Y30734
X12573Y30734
X13589Y30734
X16891Y30734
X10668Y28956
X10922Y27813
X12446Y28956
X11684Y30734
X15113Y30734
X9779Y30734
X13779Y3746
X13779Y3111
X15938Y10478
X15938Y9335
X6604Y2223
X8382Y2731
X19050Y29210
X18161Y28321
X3873Y8890
X18733Y3746
X18987Y6413
X2604Y31178
X10795Y1714
X10160Y952
X1587Y2540
X1587Y6350
X1460Y26670
X1587Y32067
X1587Y29210
X10160Y32067
X18733Y30480
X18733Y16510
X18733Y12700
X18733Y8890
X18733Y921
X5461Y23685
X18733Y10160
X15367Y15402
X15875Y29146
X15367Y14859
X15832Y26733
X18161Y20574
X17907Y17145
X3937Y13970
X15113Y9779
X16256Y11303
X15875Y11684
X15494Y12065
X9525Y9398
X10033Y9398
X10541Y9398
X9017Y9398
X7493Y9525
X7493Y10033
X7239Y10541
X6794Y11049
X3492Y21717
X3937Y12509
X6858Y6540
X17463Y11874
X15748Y20130
X2667Y2667
X2667Y3556
X2667Y5461
X7302Y8954
X12418Y8283
X11947Y9144
X11874Y18669
X8763Y17655
X10109Y17655
X12427Y17718
X3238Y30734
X8001Y27940
X6921Y30797
X6604Y25527
X7556Y27622
X6985Y29845
X11874Y26035
X11874Y21146
X13716Y2294
X11176Y4826
X16383Y2413
X40132Y17653
X38608Y18161
X38608Y22606
X38608Y21336
X38608Y20066
X38608Y18796
X40323Y19431
X40323Y18161
X40323Y21971
X40323Y23241
X36449Y16002
X37973Y16002
X39624Y16002
X39624Y13589
X39624Y14859
X37973Y13589
X36449Y13589
X34798Y13589
X34798Y16002
X34798Y14859
X34798Y11176
X36449Y11176
X37973Y11176
X39624Y11176
X39624Y12319
X34798Y12319
X40323Y20701
X40323Y24511
X40323Y25781
X38608Y23876
X38608Y25146
X38608Y26416
X36449Y18098
X36449Y19431
X36449Y21336
X36449Y22606
X36449Y23876
X36703Y24892
X34544Y23876
X34544Y22606
X34544Y21336
X34544Y20066
X34544Y18796
X34544Y18161
X42799Y28829
X41910Y25527
X44069Y26289
X44069Y27559
X44069Y22225
X42037Y22225
X37084Y18161
X38037Y18161
X32258Y14986
X29845Y14986
X34671Y26289
X35179Y26797
X35687Y26289
X35179Y25781
X35179Y26289
X29845Y13144
X29845Y11620
X34227Y6477
X37021Y6477
X30416Y3746
X31623Y3746
X30099Y2286
X33020Y17971
X30353Y21717
X31813Y21781
X29464Y27686
X31686Y25717
X33338Y24511
X29146Y29908
X29718Y23685
X43053Y12509
X42926Y19572
X42990Y17159
X32258Y4763
X31115Y5271
X37783Y23558
X38608Y27940
X40577Y27940
X40577Y26670
X36576Y30734
X38481Y30734
X39497Y30734
X42799Y30734
X36576Y28956
X36830Y27813
X38354Y28956
X37592Y30734
X41021Y30734
X35687Y30734
X39688Y3746
X39688Y3111
X41847Y10478
X41847Y9335
X32512Y2223
X34290Y2731
X44958Y29210
X44069Y28321
X29781Y8890
X44640Y3746
X44894Y6413
X28511Y31178
X36703Y1714
X36068Y952
X27495Y2540
X27495Y6350
X27368Y26670
X27495Y32067
X27495Y29210
X36068Y32067
X44640Y30480
X44640Y16510
X44640Y12700
X44640Y8890
X44640Y921
X31369Y23685
X44640Y10160
X41275Y15402
X41783Y29146
X41275Y14859
X41740Y26733
X44069Y20574
X43815Y17145
X29845Y13970
X41021Y9779
X42164Y11303
X41783Y11684
X41402Y12065
X35433Y9398
X35941Y9398
X36449Y9398
X34925Y9398
X33401Y9525
X33401Y10033
X33147Y10541
X32702Y11049
X29400Y21717
X29845Y12509
X32766Y6540
X43371Y11874
X41656Y20130
X28575Y2667
X28575Y3556
X28575Y5461
X33211Y8954
X38326Y8283
X37856Y9144
X37783Y18669
X34671Y17655
X36017Y17655
X38335Y17718
X29146Y30734
X33909Y27940
X32830Y30797
X32512Y25527
X33465Y27622
X32893Y29845
X37783Y26035
X37783Y21146
X39624Y2294
X37084Y4826
X42291Y2413
X66040Y17653
X64516Y18161
X64516Y22606
X64516Y21336
X64516Y20066
X64516Y18796
X66231Y19431
X66231Y18161
X66231Y21971
X66231Y23241
X62357Y16002
X63881Y16002
X65532Y16002
X65532Y13589
X65532Y14859
X63881Y13589
X62357Y13589
X60706Y13589
X60706Y16002
X60706Y14859
X60706Y11176
X62357Y11176
X63881Y11176
X65532Y11176
X65532Y12319
X60706Y12319
X66231Y20701
X66231Y24511
X66231Y25781
X64516Y23876
X64516Y25146
X64516Y26416
X62357Y18098
X62357Y19431
X62357Y21336
X62357Y22606
X62357Y23876
X62611Y24892
X60452Y23876
X60452Y22606
X60452Y21336
X60452Y20066
X60452Y18796
X60452Y18161
X68707Y28829
X67818Y25527
X69977Y26289
X69977Y27559
X69977Y22225
X67945Y22225
X62992Y18161
X63944Y18161
X58166Y14986
X55753Y14986
X60579Y26289
X61087Y26797
X61595Y26289
X61087Y25781
X61087Y26289
X55753Y13144
X55753Y11620
X60134Y6477
X62928Y6477
X56324Y3746
X57531Y3746
X56007Y2286
X58928Y17971
X56261Y21717
X57721Y21781
X55372Y27686
X57594Y25717
X59245Y24511
X55054Y29908
X55626Y23685
X68961Y12509
X68834Y19572
X68898Y17159
X58166Y4763
X57023Y5271
X63690Y23558
X64516Y27940
X66485Y27940
X66485Y26670
X62484Y30734
X64389Y30734
X65405Y30734
X68707Y30734
X62484Y28956
X62738Y27813
X64262Y28956
X63500Y30734
X66929Y30734
X61595Y30734
X65596Y3746
X65596Y3111
X67755Y10478
X67755Y9335
X58420Y2223
X63690Y85725
X60198Y2731
X70866Y29210
X69977Y28321
X55689Y8890
X70549Y3746
X70803Y6413
X54419Y31178
X62611Y1714
X61976Y952
X53403Y2540
X53403Y6350
X53276Y26670
X53403Y32067
X53403Y29210
X61976Y32067
X70549Y30480
X70549Y16510
X70549Y12700
X70549Y8890
X70549Y921
X57277Y23685
X70549Y10160
X67183Y15402
X67691Y29146
X67183Y14859
X67648Y26733
X69977Y20574
X69723Y17145
X55753Y13970
X66929Y9779
X68072Y11303
X67691Y11684
X67310Y12065
X61341Y9398
X61849Y9398
X62357Y9398
X60833Y9398
X59309Y9525
X59309Y10033
X59055Y10541
X58610Y11049
X55308Y21717
X55753Y12509
X58674Y6540
X69279Y11874
X67564Y20130
X54483Y2667
X54483Y3556
X54483Y5461
X59118Y8954
X64234Y8283
X63763Y9144
X63690Y18669
X60579Y17655
X61925Y17655
X64243Y17718
X55054Y30734
X59817Y27940
X58737Y30797
X58420Y25527
X59372Y27622
X58801Y29845
X63690Y26035
X63690Y21146
X65532Y2294
X62992Y4826
X68199Y2413
X91948Y17653
X90424Y18161
X90424Y22606
X90424Y21336
X90424Y20066
X90424Y18796
X92138Y19431
X92138Y18161
X92138Y21971
X92138Y23241
X88265Y16002
X89789Y16002
X91440Y16002
X91440Y13589
X91440Y14859
X89789Y13589
X88265Y13589
X86614Y13589
X86614Y16002
X86614Y14859
X86614Y11176
X88265Y11176
X89789Y11176
X91440Y11176
X91440Y12319
X86614Y12319
X92138Y20701
X92138Y24511
X92138Y25781
X90424Y23876
X90424Y25146
X90424Y26416
X88265Y18098
X88265Y19431
X88265Y21336
X88265Y22606
X88265Y23876
X86360Y23876
X86360Y22606
X86360Y21336
X86360Y20066
X86360Y18796
X86360Y18161
X94615Y28829
X93726Y25527
X95885Y26289
X95885Y27559
X95885Y22225
X93853Y22225
X88900Y18161
X89852Y18161
X84074Y14986
X81661Y14986
X86487Y26289
X86995Y26797
X87503Y26289
X86995Y25781
X86995Y26289
X81661Y13144
X81661Y11620
X86043Y6477
X88836Y6477
X82233Y3746
X83439Y3746
X81915Y2286
X84836Y17971
X82169Y21717
X83630Y21781
X81280Y27686
X83503Y25717
X85154Y24511
X80963Y29908
X81534Y23685
X94869Y12509
X94742Y19572
X94805Y17159
X84074Y4763
X82931Y5271
X89598Y23558
X90424Y27940
X92392Y27940
X92392Y26670
X88392Y30734
X90297Y30734
X91313Y30734
X94615Y30734
X88392Y28956
X88646Y27813
X90170Y28956
X89408Y30734
X92837Y30734
X87503Y30734
X91503Y3746
X91503Y3111
X93662Y10478
X93662Y9335
X84328Y2223
X86106Y2731
X96774Y29210
X95885Y28321
X81598Y8890
X96456Y3746
X96710Y6413
X80328Y31178
X88519Y1714
X87884Y952
X79312Y2540
X79312Y6350
X79185Y26670
X79312Y32067
X79312Y29210
X87884Y32067
X96456Y30480
X96456Y16510
X96456Y12700
X96456Y8890
X96456Y921
X83185Y23685
X96456Y10160
X93091Y15402
X93599Y29146
X93091Y14859
X93556Y26733
X95885Y20574
X95631Y17145
X81661Y13970
X92837Y9779
X93980Y11303
X93599Y11684
X93218Y12065
X87249Y9398
X87757Y9398
X88265Y9398
X86741Y9398
X85217Y9525
X85217Y10033
X84963Y10541
X84519Y11049
X81217Y21717
X81661Y12509
X84582Y6540
X95186Y11874
X93472Y20130
X80391Y2667
X80391Y3556
X80391Y5461
X85027Y8954
X90142Y8283
X89671Y9144
X89598Y18669
X86487Y17655
X87833Y17655
X90151Y17718
X80963Y30734
X85725Y27940
X84646Y30797
X84328Y25527
X85281Y27622
X84709Y29845
X89598Y26035
X89598Y21146
X91440Y2294
X88900Y4826
X94107Y2413
X117856Y17653
X116332Y18161
X116332Y22606
X116332Y21336
X116332Y20066
X116332Y18796
X118046Y19431
X118046Y18161
X118046Y21971
X118046Y23241
X114173Y16002
X115697Y16002
X117348Y16002
X117348Y13589
X117348Y14859
X115697Y13589
X114173Y13589
X112522Y13589
X112522Y16002
X112522Y14859
X112522Y11176
X114173Y11176
X115697Y11176
X117348Y11176
X117348Y12319
X112522Y12319
X118046Y20701
X118046Y24511
X118046Y25781
X116332Y23876
X116332Y25146
X116332Y26416
X114173Y18098
X114173Y19431
X114173Y21336
X114173Y22606
X114173Y23876
X114427Y24892
X112268Y23876
X112268Y22606
X112268Y21336
X112268Y20066
X112268Y18796
X112268Y18161
X120523Y28829
X119634Y25527
X121793Y26289
X121793Y27559
X121793Y22225
X119761Y22225
X114808Y18161
X115760Y18161
X109982Y14986
X107569Y14986
X112395Y26289
X112903Y26797
X113411Y26289
X112903Y25781
X112903Y26289
X107569Y13144
X107569Y11620
X111950Y6477
X114744Y6477
X108140Y3746
X109347Y3746
X107823Y2286
X110744Y17971
X108077Y21717
X109537Y21781
X107188Y27686
X109410Y25717
X111061Y24511
X106870Y29908
X107442Y23685
X120777Y12509
X120650Y19572
X120713Y17159
X109982Y4763
X108839Y5271
X115506Y23558
X116332Y27940
X118300Y27940
X118300Y26670
X114300Y30734
X116205Y30734
X117221Y30734
X120523Y30734
X114300Y28956
X114554Y27813
X116078Y28956
X115316Y30734
X118745Y30734
X113411Y30734
X117411Y3746
X117411Y3111
X119570Y10478
X119570Y9335
X110236Y2223
X112014Y2731
X122682Y29210
X121793Y28321
X107505Y8890
X122364Y3746
X122618Y6413
X106235Y31178
X114427Y1714
X113792Y952
X105219Y2540
X105219Y6350
X105092Y26670
X105219Y32067
X105219Y29210
X113792Y32067
X122364Y30480
X122364Y16510
X122364Y12700
X122364Y8890
X122364Y921
X109093Y23685
X122364Y10160
X118999Y15402
X119507Y29146
X118999Y14859
X119464Y26733
X121793Y20574
X121539Y17145
X107569Y13970
X118745Y9779
X119888Y11303
X119507Y11684
X119126Y12065
X113157Y9398
X113665Y9398
X114173Y9398
X112649Y9398
X111125Y9525
X111125Y10033
X110871Y10541
X110426Y11049
X107124Y21717
X107569Y12509
X110490Y6540
X121094Y11874
X119380Y20130
X106299Y2667
X106299Y3556
X106299Y5461
X110934Y8954
X116050Y8283
X115579Y9144
X115506Y18669
X112395Y17655
X113741Y17655
X116059Y17718
X106870Y30734
X111633Y27940
X110553Y30797
X110236Y25527
X111188Y27622
X110617Y29845
X115506Y26035
X115506Y21146
X117348Y2294
X114808Y4826
X120015Y2413
X14224Y51181
X12700Y51689
X12700Y56134
X12700Y54864
X12700Y53594
X12700Y52324
X14414Y52959
X14414Y51689
X14414Y55499
X14414Y56769
X10541Y49530
X12065Y49530
X13716Y49530
X13716Y47117
X13716Y48387
X12065Y47117
X10541Y47117
X8890Y47117
X8890Y49530
X8890Y48387
X8890Y44704
X10541Y44704
X12065Y44704
X13716Y44704
X13716Y45847
X8890Y45847
X14414Y54229
X14414Y58039
X14414Y59309
X12700Y57404
X12700Y58674
X12700Y59944
X10541Y51625
X10541Y52959
X10541Y54864
X10541Y56134
X10541Y57404
X10795Y58420
X8636Y57404
X8636Y56134
X8636Y54864
X8636Y53594
X8636Y52324
X8636Y51689
X16891Y62357
X16002Y59055
X18161Y59817
X18161Y61087
X18161Y55753
X16129Y55753
X11176Y51689
X12128Y51689
X6350Y48514
X3937Y48514
X8763Y59817
X9271Y60325
X9779Y59817
X9271Y59309
X9271Y59817
X3937Y46672
X3937Y45148
X8319Y40005
X11112Y40005
X4509Y37275
X5715Y37275
X4191Y35814
X7112Y51498
X4445Y55245
X5905Y55308
X3556Y61214
X5778Y59245
X7429Y58039
X3238Y63436
X3810Y57213
X17145Y46037
X17018Y53100
X17082Y50687
X6350Y38291
X5207Y38799
X11874Y57086
X12700Y61468
X14668Y61468
X14668Y60198
X10668Y64262
X12573Y64262
X13589Y64262
X16891Y64262
X10668Y62484
X10922Y61341
X12446Y62484
X11684Y64262
X15113Y64262
X9779Y64262
X13779Y37275
X13779Y36640
X15938Y44005
X15938Y42863
X6604Y35751
X8382Y36259
X19050Y62738
X18161Y61849
X3873Y42418
X18733Y37275
X18987Y39942
X2604Y64706
X10795Y35243
X10160Y34481
X1587Y36068
X1587Y39878
X1460Y60198
X1587Y65596
X1587Y62738
X10160Y65596
X18733Y64008
X18733Y50038
X18733Y46228
X18733Y42418
X18733Y34449
X5461Y57213
X18733Y43688
X15367Y48930
X15875Y62674
X15367Y48387
X15832Y60261
X18161Y54102
X17907Y50673
X3937Y47498
X15113Y43307
X16256Y44831
X15875Y45212
X15494Y45593
X9525Y42926
X10033Y42926
X10541Y42926
X9017Y42926
X107569Y112204
M30