G04 EAGLE Gerber RS-274X export*
G75*
%MOMM*%
%FSLAX34Y34*%
%LPD*%
%INSoldermask Bottom*%
%IPPOS*%
%AMOC8*
5,1,8,0,0,1.08239X$1,22.5*%
G01*
%ADD10C,1.127000*%
%ADD11R,1.905000X1.905000*%
%ADD12C,2.125981*%
%ADD13C,1.397000*%
%ADD14C,1.270000*%
%ADD15C,1.627000*%


D10*
X190500Y320675D03*
X12700Y9525D03*
D11*
X0Y279400D03*
D12*
X-5080Y279400D03*
D11*
X0Y254000D03*
D12*
X-5080Y254000D03*
D11*
X0Y228600D03*
D12*
X-5080Y228600D03*
D11*
X0Y304800D03*
D12*
X-5080Y304800D03*
D11*
X0Y203200D03*
D12*
X-5080Y203200D03*
D11*
X0Y177800D03*
D12*
X-5080Y177800D03*
D11*
X0Y152400D03*
D12*
X-5080Y152400D03*
D11*
X0Y127000D03*
D12*
X-5080Y127000D03*
D11*
X0Y101600D03*
D12*
X-5080Y101600D03*
D11*
X0Y76200D03*
D12*
X-5080Y76200D03*
D11*
X0Y50800D03*
D12*
X-5080Y50800D03*
D11*
X0Y25400D03*
D12*
X-5080Y25400D03*
D11*
X203200Y25400D03*
D12*
X208280Y25400D03*
D11*
X203200Y50800D03*
D12*
X208280Y50800D03*
D11*
X203200Y76200D03*
D12*
X208280Y76200D03*
D11*
X203200Y101600D03*
D12*
X208280Y101600D03*
D11*
X203200Y127000D03*
D12*
X208280Y127000D03*
D11*
X203200Y152400D03*
D12*
X208280Y152400D03*
D11*
X203200Y177800D03*
D12*
X208280Y177800D03*
D11*
X203200Y203200D03*
D12*
X208280Y203200D03*
D11*
X203200Y228600D03*
D12*
X208280Y228600D03*
D11*
X203200Y254000D03*
D12*
X208280Y254000D03*
D11*
X203200Y279400D03*
D12*
X208280Y279400D03*
D11*
X203200Y304800D03*
D12*
X208280Y304800D03*
D13*
X69850Y9525D02*
X44450Y9525D01*
X133350Y320675D02*
X158750Y320675D01*
D10*
X449580Y320675D03*
X271780Y9525D03*
D11*
X259080Y279400D03*
D12*
X254000Y279400D03*
D11*
X259080Y254000D03*
D12*
X254000Y254000D03*
D11*
X259080Y228600D03*
D12*
X254000Y228600D03*
D11*
X259080Y304800D03*
D12*
X254000Y304800D03*
D11*
X259080Y203200D03*
D12*
X254000Y203200D03*
D11*
X259080Y177800D03*
D12*
X254000Y177800D03*
D11*
X259080Y152400D03*
D12*
X254000Y152400D03*
D11*
X259080Y127000D03*
D12*
X254000Y127000D03*
D11*
X259080Y101600D03*
D12*
X254000Y101600D03*
D11*
X259080Y76200D03*
D12*
X254000Y76200D03*
D11*
X259080Y50800D03*
D12*
X254000Y50800D03*
D11*
X259080Y25400D03*
D12*
X254000Y25400D03*
D11*
X462280Y25400D03*
D12*
X467360Y25400D03*
D11*
X462280Y50800D03*
D12*
X467360Y50800D03*
D11*
X462280Y76200D03*
D12*
X467360Y76200D03*
D11*
X462280Y101600D03*
D12*
X467360Y101600D03*
D11*
X462280Y127000D03*
D12*
X467360Y127000D03*
D11*
X462280Y152400D03*
D12*
X467360Y152400D03*
D11*
X462280Y177800D03*
D12*
X467360Y177800D03*
D11*
X462280Y203200D03*
D12*
X467360Y203200D03*
D11*
X462280Y228600D03*
D12*
X467360Y228600D03*
D11*
X462280Y254000D03*
D12*
X467360Y254000D03*
D11*
X462280Y279400D03*
D12*
X467360Y279400D03*
D11*
X462280Y304800D03*
D12*
X467360Y304800D03*
D13*
X328930Y9525D02*
X303530Y9525D01*
X392430Y320675D02*
X417830Y320675D01*
D10*
X708660Y320675D03*
X530860Y9525D03*
D11*
X518160Y279400D03*
D12*
X513080Y279400D03*
D11*
X518160Y254000D03*
D12*
X513080Y254000D03*
D11*
X518160Y228600D03*
D12*
X513080Y228600D03*
D11*
X518160Y304800D03*
D12*
X513080Y304800D03*
D11*
X518160Y203200D03*
D12*
X513080Y203200D03*
D11*
X518160Y177800D03*
D12*
X513080Y177800D03*
D11*
X518160Y152400D03*
D12*
X513080Y152400D03*
D11*
X518160Y127000D03*
D12*
X513080Y127000D03*
D11*
X518160Y101600D03*
D12*
X513080Y101600D03*
D11*
X518160Y76200D03*
D12*
X513080Y76200D03*
D11*
X518160Y50800D03*
D12*
X513080Y50800D03*
D11*
X518160Y25400D03*
D12*
X513080Y25400D03*
D11*
X721360Y25400D03*
D12*
X726440Y25400D03*
D11*
X721360Y50800D03*
D12*
X726440Y50800D03*
D11*
X721360Y76200D03*
D12*
X726440Y76200D03*
D11*
X721360Y101600D03*
D12*
X726440Y101600D03*
D11*
X721360Y127000D03*
D12*
X726440Y127000D03*
D11*
X721360Y152400D03*
D12*
X726440Y152400D03*
D11*
X721360Y177800D03*
D12*
X726440Y177800D03*
D11*
X721360Y203200D03*
D12*
X726440Y203200D03*
D11*
X721360Y228600D03*
D12*
X726440Y228600D03*
D11*
X721360Y254000D03*
D12*
X726440Y254000D03*
D11*
X721360Y279400D03*
D12*
X726440Y279400D03*
D11*
X721360Y304800D03*
D12*
X726440Y304800D03*
D13*
X588010Y9525D02*
X562610Y9525D01*
X651510Y320675D02*
X676910Y320675D01*
D10*
X967740Y320675D03*
X789940Y9525D03*
D11*
X777240Y279400D03*
D12*
X772160Y279400D03*
D11*
X777240Y254000D03*
D12*
X772160Y254000D03*
D11*
X777240Y228600D03*
D12*
X772160Y228600D03*
D11*
X777240Y304800D03*
D12*
X772160Y304800D03*
D11*
X777240Y203200D03*
D12*
X772160Y203200D03*
D11*
X777240Y177800D03*
D12*
X772160Y177800D03*
D11*
X777240Y152400D03*
D12*
X772160Y152400D03*
D11*
X777240Y127000D03*
D12*
X772160Y127000D03*
D11*
X777240Y101600D03*
D12*
X772160Y101600D03*
D11*
X777240Y76200D03*
D12*
X772160Y76200D03*
D11*
X777240Y50800D03*
D12*
X772160Y50800D03*
D11*
X777240Y25400D03*
D12*
X772160Y25400D03*
D11*
X980440Y25400D03*
D12*
X985520Y25400D03*
D11*
X980440Y50800D03*
D12*
X985520Y50800D03*
D11*
X980440Y76200D03*
D12*
X985520Y76200D03*
D11*
X980440Y101600D03*
D12*
X985520Y101600D03*
D11*
X980440Y127000D03*
D12*
X985520Y127000D03*
D11*
X980440Y152400D03*
D12*
X985520Y152400D03*
D11*
X980440Y177800D03*
D12*
X985520Y177800D03*
D11*
X980440Y203200D03*
D12*
X985520Y203200D03*
D11*
X980440Y228600D03*
D12*
X985520Y228600D03*
D11*
X980440Y254000D03*
D12*
X985520Y254000D03*
D11*
X980440Y279400D03*
D12*
X985520Y279400D03*
D11*
X980440Y304800D03*
D12*
X985520Y304800D03*
D13*
X847090Y9525D02*
X821690Y9525D01*
X910590Y320675D02*
X935990Y320675D01*
D10*
X1226820Y320675D03*
X1049020Y9525D03*
D11*
X1036320Y279400D03*
D12*
X1031240Y279400D03*
D11*
X1036320Y254000D03*
D12*
X1031240Y254000D03*
D11*
X1036320Y228600D03*
D12*
X1031240Y228600D03*
D11*
X1036320Y304800D03*
D12*
X1031240Y304800D03*
D11*
X1036320Y203200D03*
D12*
X1031240Y203200D03*
D11*
X1036320Y177800D03*
D12*
X1031240Y177800D03*
D11*
X1036320Y152400D03*
D12*
X1031240Y152400D03*
D11*
X1036320Y127000D03*
D12*
X1031240Y127000D03*
D11*
X1036320Y101600D03*
D12*
X1031240Y101600D03*
D11*
X1036320Y76200D03*
D12*
X1031240Y76200D03*
D11*
X1036320Y50800D03*
D12*
X1031240Y50800D03*
D11*
X1036320Y25400D03*
D12*
X1031240Y25400D03*
D11*
X1239520Y25400D03*
D12*
X1244600Y25400D03*
D11*
X1239520Y50800D03*
D12*
X1244600Y50800D03*
D11*
X1239520Y76200D03*
D12*
X1244600Y76200D03*
D11*
X1239520Y101600D03*
D12*
X1244600Y101600D03*
D11*
X1239520Y127000D03*
D12*
X1244600Y127000D03*
D11*
X1239520Y152400D03*
D12*
X1244600Y152400D03*
D11*
X1239520Y177800D03*
D12*
X1244600Y177800D03*
D11*
X1239520Y203200D03*
D12*
X1244600Y203200D03*
D11*
X1239520Y228600D03*
D12*
X1244600Y228600D03*
D11*
X1239520Y254000D03*
D12*
X1244600Y254000D03*
D11*
X1239520Y279400D03*
D12*
X1244600Y279400D03*
D11*
X1239520Y304800D03*
D12*
X1244600Y304800D03*
D13*
X1106170Y9525D02*
X1080770Y9525D01*
X1169670Y320675D02*
X1195070Y320675D01*
D10*
X190500Y655955D03*
X12700Y344805D03*
D11*
X0Y614680D03*
D12*
X-5080Y614680D03*
D11*
X0Y589280D03*
D12*
X-5080Y589280D03*
D11*
X0Y563880D03*
D12*
X-5080Y563880D03*
D11*
X0Y640080D03*
D12*
X-5080Y640080D03*
D11*
X0Y538480D03*
D12*
X-5080Y538480D03*
D11*
X0Y513080D03*
D12*
X-5080Y513080D03*
D11*
X0Y487680D03*
D12*
X-5080Y487680D03*
D11*
X0Y462280D03*
D12*
X-5080Y462280D03*
D11*
X0Y436880D03*
D12*
X-5080Y436880D03*
D11*
X0Y411480D03*
D12*
X-5080Y411480D03*
D11*
X0Y386080D03*
D12*
X-5080Y386080D03*
D11*
X0Y360680D03*
D12*
X-5080Y360680D03*
D11*
X203200Y360680D03*
D12*
X208280Y360680D03*
D11*
X203200Y386080D03*
D12*
X208280Y386080D03*
D11*
X203200Y411480D03*
D12*
X208280Y411480D03*
D11*
X203200Y436880D03*
D12*
X208280Y436880D03*
D11*
X203200Y462280D03*
D12*
X208280Y462280D03*
D11*
X203200Y487680D03*
D12*
X208280Y487680D03*
D11*
X203200Y513080D03*
D12*
X208280Y513080D03*
D11*
X203200Y538480D03*
D12*
X208280Y538480D03*
D11*
X203200Y563880D03*
D12*
X208280Y563880D03*
D11*
X203200Y589280D03*
D12*
X208280Y589280D03*
D11*
X203200Y614680D03*
D12*
X208280Y614680D03*
D11*
X203200Y640080D03*
D12*
X208280Y640080D03*
D13*
X69850Y344805D02*
X44450Y344805D01*
X133350Y655955D02*
X158750Y655955D01*
D10*
X449580Y655955D03*
X271780Y344805D03*
D11*
X259080Y614680D03*
D12*
X254000Y614680D03*
D11*
X259080Y589280D03*
D12*
X254000Y589280D03*
D11*
X259080Y563880D03*
D12*
X254000Y563880D03*
D11*
X259080Y640080D03*
D12*
X254000Y640080D03*
D11*
X259080Y538480D03*
D12*
X254000Y538480D03*
D11*
X259080Y513080D03*
D12*
X254000Y513080D03*
D11*
X259080Y487680D03*
D12*
X254000Y487680D03*
D11*
X259080Y462280D03*
D12*
X254000Y462280D03*
D11*
X259080Y436880D03*
D12*
X254000Y436880D03*
D11*
X259080Y411480D03*
D12*
X254000Y411480D03*
D11*
X259080Y386080D03*
D12*
X254000Y386080D03*
D11*
X259080Y360680D03*
D12*
X254000Y360680D03*
D11*
X462280Y360680D03*
D12*
X467360Y360680D03*
D11*
X462280Y386080D03*
D12*
X467360Y386080D03*
D11*
X462280Y411480D03*
D12*
X467360Y411480D03*
D11*
X462280Y436880D03*
D12*
X467360Y436880D03*
D11*
X462280Y462280D03*
D12*
X467360Y462280D03*
D11*
X462280Y487680D03*
D12*
X467360Y487680D03*
D11*
X462280Y513080D03*
D12*
X467360Y513080D03*
D11*
X462280Y538480D03*
D12*
X467360Y538480D03*
D11*
X462280Y563880D03*
D12*
X467360Y563880D03*
D11*
X462280Y589280D03*
D12*
X467360Y589280D03*
D11*
X462280Y614680D03*
D12*
X467360Y614680D03*
D11*
X462280Y640080D03*
D12*
X467360Y640080D03*
D13*
X328930Y344805D02*
X303530Y344805D01*
X392430Y655955D02*
X417830Y655955D01*
D10*
X708660Y655955D03*
X530860Y344805D03*
D11*
X518160Y614680D03*
D12*
X513080Y614680D03*
D11*
X518160Y589280D03*
D12*
X513080Y589280D03*
D11*
X518160Y563880D03*
D12*
X513080Y563880D03*
D11*
X518160Y640080D03*
D12*
X513080Y640080D03*
D11*
X518160Y538480D03*
D12*
X513080Y538480D03*
D11*
X518160Y513080D03*
D12*
X513080Y513080D03*
D11*
X518160Y487680D03*
D12*
X513080Y487680D03*
D11*
X518160Y462280D03*
D12*
X513080Y462280D03*
D11*
X518160Y436880D03*
D12*
X513080Y436880D03*
D11*
X518160Y411480D03*
D12*
X513080Y411480D03*
D11*
X518160Y386080D03*
D12*
X513080Y386080D03*
D11*
X518160Y360680D03*
D12*
X513080Y360680D03*
D11*
X721360Y360680D03*
D12*
X726440Y360680D03*
D11*
X721360Y386080D03*
D12*
X726440Y386080D03*
D11*
X721360Y411480D03*
D12*
X726440Y411480D03*
D11*
X721360Y436880D03*
D12*
X726440Y436880D03*
D11*
X721360Y462280D03*
D12*
X726440Y462280D03*
D11*
X721360Y487680D03*
D12*
X726440Y487680D03*
D11*
X721360Y513080D03*
D12*
X726440Y513080D03*
D11*
X721360Y538480D03*
D12*
X726440Y538480D03*
D11*
X721360Y563880D03*
D12*
X726440Y563880D03*
D11*
X721360Y589280D03*
D12*
X726440Y589280D03*
D11*
X721360Y614680D03*
D12*
X726440Y614680D03*
D11*
X721360Y640080D03*
D12*
X726440Y640080D03*
D13*
X588010Y344805D02*
X562610Y344805D01*
X651510Y655955D02*
X676910Y655955D01*
D10*
X967740Y655955D03*
X789940Y344805D03*
D11*
X777240Y614680D03*
D12*
X772160Y614680D03*
D11*
X777240Y589280D03*
D12*
X772160Y589280D03*
D11*
X777240Y563880D03*
D12*
X772160Y563880D03*
D11*
X777240Y640080D03*
D12*
X772160Y640080D03*
D11*
X777240Y538480D03*
D12*
X772160Y538480D03*
D11*
X777240Y513080D03*
D12*
X772160Y513080D03*
D11*
X777240Y487680D03*
D12*
X772160Y487680D03*
D11*
X777240Y462280D03*
D12*
X772160Y462280D03*
D11*
X777240Y436880D03*
D12*
X772160Y436880D03*
D11*
X777240Y411480D03*
D12*
X772160Y411480D03*
D11*
X777240Y386080D03*
D12*
X772160Y386080D03*
D11*
X777240Y360680D03*
D12*
X772160Y360680D03*
D11*
X980440Y360680D03*
D12*
X985520Y360680D03*
D11*
X980440Y386080D03*
D12*
X985520Y386080D03*
D11*
X980440Y411480D03*
D12*
X985520Y411480D03*
D11*
X980440Y436880D03*
D12*
X985520Y436880D03*
D11*
X980440Y462280D03*
D12*
X985520Y462280D03*
D11*
X980440Y487680D03*
D12*
X985520Y487680D03*
D11*
X980440Y513080D03*
D12*
X985520Y513080D03*
D11*
X980440Y538480D03*
D12*
X985520Y538480D03*
D11*
X980440Y563880D03*
D12*
X985520Y563880D03*
D11*
X980440Y589280D03*
D12*
X985520Y589280D03*
D11*
X980440Y614680D03*
D12*
X985520Y614680D03*
D11*
X980440Y640080D03*
D12*
X985520Y640080D03*
D13*
X847090Y344805D02*
X821690Y344805D01*
X910590Y655955D02*
X935990Y655955D01*
D10*
X1226820Y655955D03*
X1049020Y344805D03*
D11*
X1036320Y614680D03*
D12*
X1031240Y614680D03*
D11*
X1036320Y589280D03*
D12*
X1031240Y589280D03*
D11*
X1036320Y563880D03*
D12*
X1031240Y563880D03*
D11*
X1036320Y640080D03*
D12*
X1031240Y640080D03*
D11*
X1036320Y538480D03*
D12*
X1031240Y538480D03*
D11*
X1036320Y513080D03*
D12*
X1031240Y513080D03*
D11*
X1036320Y487680D03*
D12*
X1031240Y487680D03*
D11*
X1036320Y462280D03*
D12*
X1031240Y462280D03*
D11*
X1036320Y436880D03*
D12*
X1031240Y436880D03*
D11*
X1036320Y411480D03*
D12*
X1031240Y411480D03*
D11*
X1036320Y386080D03*
D12*
X1031240Y386080D03*
D11*
X1036320Y360680D03*
D12*
X1031240Y360680D03*
D11*
X1239520Y360680D03*
D12*
X1244600Y360680D03*
D11*
X1239520Y386080D03*
D12*
X1244600Y386080D03*
D11*
X1239520Y411480D03*
D12*
X1244600Y411480D03*
D11*
X1239520Y436880D03*
D12*
X1244600Y436880D03*
D11*
X1239520Y462280D03*
D12*
X1244600Y462280D03*
D11*
X1239520Y487680D03*
D12*
X1244600Y487680D03*
D11*
X1239520Y513080D03*
D12*
X1244600Y513080D03*
D11*
X1239520Y538480D03*
D12*
X1244600Y538480D03*
D11*
X1239520Y563880D03*
D12*
X1244600Y563880D03*
D11*
X1239520Y589280D03*
D12*
X1244600Y589280D03*
D11*
X1239520Y614680D03*
D12*
X1244600Y614680D03*
D11*
X1239520Y640080D03*
D12*
X1244600Y640080D03*
D13*
X1106170Y344805D02*
X1080770Y344805D01*
X1169670Y655955D02*
X1195070Y655955D01*
D10*
X190500Y991235D03*
X12700Y680085D03*
D11*
X0Y949960D03*
D12*
X-5080Y949960D03*
D11*
X0Y924560D03*
D12*
X-5080Y924560D03*
D11*
X0Y899160D03*
D12*
X-5080Y899160D03*
D11*
X0Y975360D03*
D12*
X-5080Y975360D03*
D11*
X0Y873760D03*
D12*
X-5080Y873760D03*
D11*
X0Y848360D03*
D12*
X-5080Y848360D03*
D11*
X0Y822960D03*
D12*
X-5080Y822960D03*
D11*
X0Y797560D03*
D12*
X-5080Y797560D03*
D11*
X0Y772160D03*
D12*
X-5080Y772160D03*
D11*
X0Y746760D03*
D12*
X-5080Y746760D03*
D11*
X0Y721360D03*
D12*
X-5080Y721360D03*
D11*
X0Y695960D03*
D12*
X-5080Y695960D03*
D11*
X203200Y695960D03*
D12*
X208280Y695960D03*
D11*
X203200Y721360D03*
D12*
X208280Y721360D03*
D11*
X203200Y746760D03*
D12*
X208280Y746760D03*
D11*
X203200Y772160D03*
D12*
X208280Y772160D03*
D11*
X203200Y797560D03*
D12*
X208280Y797560D03*
D11*
X203200Y822960D03*
D12*
X208280Y822960D03*
D11*
X203200Y848360D03*
D12*
X208280Y848360D03*
D11*
X203200Y873760D03*
D12*
X208280Y873760D03*
D11*
X203200Y899160D03*
D12*
X208280Y899160D03*
D11*
X203200Y924560D03*
D12*
X208280Y924560D03*
D11*
X203200Y949960D03*
D12*
X208280Y949960D03*
D11*
X203200Y975360D03*
D12*
X208280Y975360D03*
D13*
X69850Y680085D02*
X44450Y680085D01*
X133350Y991235D02*
X158750Y991235D01*
D10*
X449580Y991235D03*
X271780Y680085D03*
D11*
X259080Y949960D03*
D12*
X254000Y949960D03*
D11*
X259080Y924560D03*
D12*
X254000Y924560D03*
D11*
X259080Y899160D03*
D12*
X254000Y899160D03*
D11*
X259080Y975360D03*
D12*
X254000Y975360D03*
D11*
X259080Y873760D03*
D12*
X254000Y873760D03*
D11*
X259080Y848360D03*
D12*
X254000Y848360D03*
D11*
X259080Y822960D03*
D12*
X254000Y822960D03*
D11*
X259080Y797560D03*
D12*
X254000Y797560D03*
D11*
X259080Y772160D03*
D12*
X254000Y772160D03*
D11*
X259080Y746760D03*
D12*
X254000Y746760D03*
D11*
X259080Y721360D03*
D12*
X254000Y721360D03*
D11*
X259080Y695960D03*
D12*
X254000Y695960D03*
D11*
X462280Y695960D03*
D12*
X467360Y695960D03*
D11*
X462280Y721360D03*
D12*
X467360Y721360D03*
D11*
X462280Y746760D03*
D12*
X467360Y746760D03*
D11*
X462280Y772160D03*
D12*
X467360Y772160D03*
D11*
X462280Y797560D03*
D12*
X467360Y797560D03*
D11*
X462280Y822960D03*
D12*
X467360Y822960D03*
D11*
X462280Y848360D03*
D12*
X467360Y848360D03*
D11*
X462280Y873760D03*
D12*
X467360Y873760D03*
D11*
X462280Y899160D03*
D12*
X467360Y899160D03*
D11*
X462280Y924560D03*
D12*
X467360Y924560D03*
D11*
X462280Y949960D03*
D12*
X467360Y949960D03*
D11*
X462280Y975360D03*
D12*
X467360Y975360D03*
D13*
X328930Y680085D02*
X303530Y680085D01*
X392430Y991235D02*
X417830Y991235D01*
D10*
X708660Y991235D03*
X530860Y680085D03*
D11*
X518160Y949960D03*
D12*
X513080Y949960D03*
D11*
X518160Y924560D03*
D12*
X513080Y924560D03*
D11*
X518160Y899160D03*
D12*
X513080Y899160D03*
D11*
X518160Y975360D03*
D12*
X513080Y975360D03*
D11*
X518160Y873760D03*
D12*
X513080Y873760D03*
D11*
X518160Y848360D03*
D12*
X513080Y848360D03*
D11*
X518160Y822960D03*
D12*
X513080Y822960D03*
D11*
X518160Y797560D03*
D12*
X513080Y797560D03*
D11*
X518160Y772160D03*
D12*
X513080Y772160D03*
D11*
X518160Y746760D03*
D12*
X513080Y746760D03*
D11*
X518160Y721360D03*
D12*
X513080Y721360D03*
D11*
X518160Y695960D03*
D12*
X513080Y695960D03*
D11*
X721360Y695960D03*
D12*
X726440Y695960D03*
D11*
X721360Y721360D03*
D12*
X726440Y721360D03*
D11*
X721360Y746760D03*
D12*
X726440Y746760D03*
D11*
X721360Y772160D03*
D12*
X726440Y772160D03*
D11*
X721360Y797560D03*
D12*
X726440Y797560D03*
D11*
X721360Y822960D03*
D12*
X726440Y822960D03*
D11*
X721360Y848360D03*
D12*
X726440Y848360D03*
D11*
X721360Y873760D03*
D12*
X726440Y873760D03*
D11*
X721360Y899160D03*
D12*
X726440Y899160D03*
D11*
X721360Y924560D03*
D12*
X726440Y924560D03*
D11*
X721360Y949960D03*
D12*
X726440Y949960D03*
D11*
X721360Y975360D03*
D12*
X726440Y975360D03*
D13*
X588010Y680085D02*
X562610Y680085D01*
X651510Y991235D02*
X676910Y991235D01*
D10*
X967740Y991235D03*
X789940Y680085D03*
D11*
X777240Y949960D03*
D12*
X772160Y949960D03*
D11*
X777240Y924560D03*
D12*
X772160Y924560D03*
D11*
X777240Y899160D03*
D12*
X772160Y899160D03*
D11*
X777240Y975360D03*
D12*
X772160Y975360D03*
D11*
X777240Y873760D03*
D12*
X772160Y873760D03*
D11*
X777240Y848360D03*
D12*
X772160Y848360D03*
D11*
X777240Y822960D03*
D12*
X772160Y822960D03*
D11*
X777240Y797560D03*
D12*
X772160Y797560D03*
D11*
X777240Y772160D03*
D12*
X772160Y772160D03*
D11*
X777240Y746760D03*
D12*
X772160Y746760D03*
D11*
X777240Y721360D03*
D12*
X772160Y721360D03*
D11*
X777240Y695960D03*
D12*
X772160Y695960D03*
D11*
X980440Y695960D03*
D12*
X985520Y695960D03*
D11*
X980440Y721360D03*
D12*
X985520Y721360D03*
D11*
X980440Y746760D03*
D12*
X985520Y746760D03*
D11*
X980440Y772160D03*
D12*
X985520Y772160D03*
D11*
X980440Y797560D03*
D12*
X985520Y797560D03*
D11*
X980440Y822960D03*
D12*
X985520Y822960D03*
D11*
X980440Y848360D03*
D12*
X985520Y848360D03*
D11*
X980440Y873760D03*
D12*
X985520Y873760D03*
D11*
X980440Y899160D03*
D12*
X985520Y899160D03*
D11*
X980440Y924560D03*
D12*
X985520Y924560D03*
D11*
X980440Y949960D03*
D12*
X985520Y949960D03*
D11*
X980440Y975360D03*
D12*
X985520Y975360D03*
D13*
X847090Y680085D02*
X821690Y680085D01*
X910590Y991235D02*
X935990Y991235D01*
D10*
X1226820Y991235D03*
X1049020Y680085D03*
D11*
X1036320Y949960D03*
D12*
X1031240Y949960D03*
D11*
X1036320Y924560D03*
D12*
X1031240Y924560D03*
D11*
X1036320Y899160D03*
D12*
X1031240Y899160D03*
D11*
X1036320Y975360D03*
D12*
X1031240Y975360D03*
D11*
X1036320Y873760D03*
D12*
X1031240Y873760D03*
D11*
X1036320Y848360D03*
D12*
X1031240Y848360D03*
D11*
X1036320Y822960D03*
D12*
X1031240Y822960D03*
D11*
X1036320Y797560D03*
D12*
X1031240Y797560D03*
D11*
X1036320Y772160D03*
D12*
X1031240Y772160D03*
D11*
X1036320Y746760D03*
D12*
X1031240Y746760D03*
D11*
X1036320Y721360D03*
D12*
X1031240Y721360D03*
D11*
X1036320Y695960D03*
D12*
X1031240Y695960D03*
D11*
X1239520Y695960D03*
D12*
X1244600Y695960D03*
D11*
X1239520Y721360D03*
D12*
X1244600Y721360D03*
D11*
X1239520Y746760D03*
D12*
X1244600Y746760D03*
D11*
X1239520Y772160D03*
D12*
X1244600Y772160D03*
D11*
X1239520Y797560D03*
D12*
X1244600Y797560D03*
D11*
X1239520Y822960D03*
D12*
X1244600Y822960D03*
D11*
X1239520Y848360D03*
D12*
X1244600Y848360D03*
D11*
X1239520Y873760D03*
D12*
X1244600Y873760D03*
D11*
X1239520Y899160D03*
D12*
X1244600Y899160D03*
D11*
X1239520Y924560D03*
D12*
X1244600Y924560D03*
D11*
X1239520Y949960D03*
D12*
X1244600Y949960D03*
D11*
X1239520Y975360D03*
D12*
X1244600Y975360D03*
D13*
X1106170Y680085D02*
X1080770Y680085D01*
X1169670Y991235D02*
X1195070Y991235D01*
D10*
X190500Y1326515D03*
X12700Y1015365D03*
D11*
X0Y1285240D03*
D12*
X-5080Y1285240D03*
D11*
X0Y1259840D03*
D12*
X-5080Y1259840D03*
D11*
X0Y1234440D03*
D12*
X-5080Y1234440D03*
D11*
X0Y1310640D03*
D12*
X-5080Y1310640D03*
D11*
X0Y1209040D03*
D12*
X-5080Y1209040D03*
D11*
X0Y1183640D03*
D12*
X-5080Y1183640D03*
D11*
X0Y1158240D03*
D12*
X-5080Y1158240D03*
D11*
X0Y1132840D03*
D12*
X-5080Y1132840D03*
D11*
X0Y1107440D03*
D12*
X-5080Y1107440D03*
D11*
X0Y1082040D03*
D12*
X-5080Y1082040D03*
D11*
X0Y1056640D03*
D12*
X-5080Y1056640D03*
D11*
X0Y1031240D03*
D12*
X-5080Y1031240D03*
D11*
X203200Y1031240D03*
D12*
X208280Y1031240D03*
D11*
X203200Y1056640D03*
D12*
X208280Y1056640D03*
D11*
X203200Y1082040D03*
D12*
X208280Y1082040D03*
D11*
X203200Y1107440D03*
D12*
X208280Y1107440D03*
D11*
X203200Y1132840D03*
D12*
X208280Y1132840D03*
D11*
X203200Y1158240D03*
D12*
X208280Y1158240D03*
D11*
X203200Y1183640D03*
D12*
X208280Y1183640D03*
D11*
X203200Y1209040D03*
D12*
X208280Y1209040D03*
D11*
X203200Y1234440D03*
D12*
X208280Y1234440D03*
D11*
X203200Y1259840D03*
D12*
X208280Y1259840D03*
D11*
X203200Y1285240D03*
D12*
X208280Y1285240D03*
D11*
X203200Y1310640D03*
D12*
X208280Y1310640D03*
D13*
X69850Y1015365D02*
X44450Y1015365D01*
X133350Y1326515D02*
X158750Y1326515D01*
D10*
X449580Y1326515D03*
X271780Y1015365D03*
D11*
X259080Y1285240D03*
D12*
X254000Y1285240D03*
D11*
X259080Y1259840D03*
D12*
X254000Y1259840D03*
D11*
X259080Y1234440D03*
D12*
X254000Y1234440D03*
D11*
X259080Y1310640D03*
D12*
X254000Y1310640D03*
D11*
X259080Y1209040D03*
D12*
X254000Y1209040D03*
D11*
X259080Y1183640D03*
D12*
X254000Y1183640D03*
D11*
X259080Y1158240D03*
D12*
X254000Y1158240D03*
D11*
X259080Y1132840D03*
D12*
X254000Y1132840D03*
D11*
X259080Y1107440D03*
D12*
X254000Y1107440D03*
D11*
X259080Y1082040D03*
D12*
X254000Y1082040D03*
D11*
X259080Y1056640D03*
D12*
X254000Y1056640D03*
D11*
X259080Y1031240D03*
D12*
X254000Y1031240D03*
D11*
X462280Y1031240D03*
D12*
X467360Y1031240D03*
D11*
X462280Y1056640D03*
D12*
X467360Y1056640D03*
D11*
X462280Y1082040D03*
D12*
X467360Y1082040D03*
D11*
X462280Y1107440D03*
D12*
X467360Y1107440D03*
D11*
X462280Y1132840D03*
D12*
X467360Y1132840D03*
D11*
X462280Y1158240D03*
D12*
X467360Y1158240D03*
D11*
X462280Y1183640D03*
D12*
X467360Y1183640D03*
D11*
X462280Y1209040D03*
D12*
X467360Y1209040D03*
D11*
X462280Y1234440D03*
D12*
X467360Y1234440D03*
D11*
X462280Y1259840D03*
D12*
X467360Y1259840D03*
D11*
X462280Y1285240D03*
D12*
X467360Y1285240D03*
D11*
X462280Y1310640D03*
D12*
X467360Y1310640D03*
D13*
X328930Y1015365D02*
X303530Y1015365D01*
X392430Y1326515D02*
X417830Y1326515D01*
D10*
X708660Y1326515D03*
X530860Y1015365D03*
D11*
X518160Y1285240D03*
D12*
X513080Y1285240D03*
D11*
X518160Y1259840D03*
D12*
X513080Y1259840D03*
D11*
X518160Y1234440D03*
D12*
X513080Y1234440D03*
D11*
X518160Y1310640D03*
D12*
X513080Y1310640D03*
D11*
X518160Y1209040D03*
D12*
X513080Y1209040D03*
D11*
X518160Y1183640D03*
D12*
X513080Y1183640D03*
D11*
X518160Y1158240D03*
D12*
X513080Y1158240D03*
D11*
X518160Y1132840D03*
D12*
X513080Y1132840D03*
D11*
X518160Y1107440D03*
D12*
X513080Y1107440D03*
D11*
X518160Y1082040D03*
D12*
X513080Y1082040D03*
D11*
X518160Y1056640D03*
D12*
X513080Y1056640D03*
D11*
X518160Y1031240D03*
D12*
X513080Y1031240D03*
D11*
X721360Y1031240D03*
D12*
X726440Y1031240D03*
D11*
X721360Y1056640D03*
D12*
X726440Y1056640D03*
D11*
X721360Y1082040D03*
D12*
X726440Y1082040D03*
D11*
X721360Y1107440D03*
D12*
X726440Y1107440D03*
D11*
X721360Y1132840D03*
D12*
X726440Y1132840D03*
D11*
X721360Y1158240D03*
D12*
X726440Y1158240D03*
D11*
X721360Y1183640D03*
D12*
X726440Y1183640D03*
D11*
X721360Y1209040D03*
D12*
X726440Y1209040D03*
D11*
X721360Y1234440D03*
D12*
X726440Y1234440D03*
D11*
X721360Y1259840D03*
D12*
X726440Y1259840D03*
D11*
X721360Y1285240D03*
D12*
X726440Y1285240D03*
D11*
X721360Y1310640D03*
D12*
X726440Y1310640D03*
D13*
X588010Y1015365D02*
X562610Y1015365D01*
X651510Y1326515D02*
X676910Y1326515D01*
D10*
X967740Y1326515D03*
X789940Y1015365D03*
D11*
X777240Y1285240D03*
D12*
X772160Y1285240D03*
D11*
X777240Y1259840D03*
D12*
X772160Y1259840D03*
D11*
X777240Y1234440D03*
D12*
X772160Y1234440D03*
D11*
X777240Y1310640D03*
D12*
X772160Y1310640D03*
D11*
X777240Y1209040D03*
D12*
X772160Y1209040D03*
D11*
X777240Y1183640D03*
D12*
X772160Y1183640D03*
D11*
X777240Y1158240D03*
D12*
X772160Y1158240D03*
D11*
X777240Y1132840D03*
D12*
X772160Y1132840D03*
D11*
X777240Y1107440D03*
D12*
X772160Y1107440D03*
D11*
X777240Y1082040D03*
D12*
X772160Y1082040D03*
D11*
X777240Y1056640D03*
D12*
X772160Y1056640D03*
D11*
X777240Y1031240D03*
D12*
X772160Y1031240D03*
D11*
X980440Y1031240D03*
D12*
X985520Y1031240D03*
D11*
X980440Y1056640D03*
D12*
X985520Y1056640D03*
D11*
X980440Y1082040D03*
D12*
X985520Y1082040D03*
D11*
X980440Y1107440D03*
D12*
X985520Y1107440D03*
D11*
X980440Y1132840D03*
D12*
X985520Y1132840D03*
D11*
X980440Y1158240D03*
D12*
X985520Y1158240D03*
D11*
X980440Y1183640D03*
D12*
X985520Y1183640D03*
D11*
X980440Y1209040D03*
D12*
X985520Y1209040D03*
D11*
X980440Y1234440D03*
D12*
X985520Y1234440D03*
D11*
X980440Y1259840D03*
D12*
X985520Y1259840D03*
D11*
X980440Y1285240D03*
D12*
X985520Y1285240D03*
D11*
X980440Y1310640D03*
D12*
X985520Y1310640D03*
D13*
X847090Y1015365D02*
X821690Y1015365D01*
X910590Y1326515D02*
X935990Y1326515D01*
D10*
X1226820Y1326515D03*
X1049020Y1015365D03*
D11*
X1036320Y1285240D03*
D12*
X1031240Y1285240D03*
D11*
X1036320Y1259840D03*
D12*
X1031240Y1259840D03*
D11*
X1036320Y1234440D03*
D12*
X1031240Y1234440D03*
D11*
X1036320Y1310640D03*
D12*
X1031240Y1310640D03*
D11*
X1036320Y1209040D03*
D12*
X1031240Y1209040D03*
D11*
X1036320Y1183640D03*
D12*
X1031240Y1183640D03*
D11*
X1036320Y1158240D03*
D12*
X1031240Y1158240D03*
D11*
X1036320Y1132840D03*
D12*
X1031240Y1132840D03*
D11*
X1036320Y1107440D03*
D12*
X1031240Y1107440D03*
D11*
X1036320Y1082040D03*
D12*
X1031240Y1082040D03*
D11*
X1036320Y1056640D03*
D12*
X1031240Y1056640D03*
D11*
X1036320Y1031240D03*
D12*
X1031240Y1031240D03*
D11*
X1239520Y1031240D03*
D12*
X1244600Y1031240D03*
D11*
X1239520Y1056640D03*
D12*
X1244600Y1056640D03*
D11*
X1239520Y1082040D03*
D12*
X1244600Y1082040D03*
D11*
X1239520Y1107440D03*
D12*
X1244600Y1107440D03*
D11*
X1239520Y1132840D03*
D12*
X1244600Y1132840D03*
D11*
X1239520Y1158240D03*
D12*
X1244600Y1158240D03*
D11*
X1239520Y1183640D03*
D12*
X1244600Y1183640D03*
D11*
X1239520Y1209040D03*
D12*
X1244600Y1209040D03*
D11*
X1239520Y1234440D03*
D12*
X1244600Y1234440D03*
D11*
X1239520Y1259840D03*
D12*
X1244600Y1259840D03*
D11*
X1239520Y1285240D03*
D12*
X1244600Y1285240D03*
D11*
X1239520Y1310640D03*
D12*
X1244600Y1310640D03*
D13*
X1106170Y1015365D02*
X1080770Y1015365D01*
X1169670Y1326515D02*
X1195070Y1326515D01*
D10*
X119380Y1356995D03*
X1271905Y1356995D03*
D14*
X110325Y-20955D02*
X110328Y-20733D01*
X110336Y-20511D01*
X110350Y-20289D01*
X110369Y-20067D01*
X110393Y-19847D01*
X110423Y-19626D01*
X110458Y-19407D01*
X110499Y-19188D01*
X110545Y-18971D01*
X110596Y-18755D01*
X110653Y-18540D01*
X110715Y-18326D01*
X110782Y-18115D01*
X110854Y-17904D01*
X110932Y-17696D01*
X111014Y-17490D01*
X111102Y-17286D01*
X111194Y-17083D01*
X111292Y-16884D01*
X111394Y-16687D01*
X111501Y-16492D01*
X111613Y-16300D01*
X111730Y-16111D01*
X111851Y-15924D01*
X111977Y-15741D01*
X112107Y-15561D01*
X112242Y-15384D01*
X112380Y-15211D01*
X112523Y-15041D01*
X112671Y-14874D01*
X112822Y-14711D01*
X112977Y-14552D01*
X113136Y-14397D01*
X113299Y-14246D01*
X113466Y-14098D01*
X113636Y-13955D01*
X113809Y-13817D01*
X113986Y-13682D01*
X114166Y-13552D01*
X114349Y-13426D01*
X114536Y-13305D01*
X114725Y-13188D01*
X114917Y-13076D01*
X115112Y-12969D01*
X115309Y-12867D01*
X115508Y-12769D01*
X115711Y-12677D01*
X115915Y-12589D01*
X116121Y-12507D01*
X116329Y-12429D01*
X116540Y-12357D01*
X116751Y-12290D01*
X116965Y-12228D01*
X117180Y-12171D01*
X117396Y-12120D01*
X117613Y-12074D01*
X117832Y-12033D01*
X118051Y-11998D01*
X118272Y-11968D01*
X118492Y-11944D01*
X118714Y-11925D01*
X118936Y-11911D01*
X119158Y-11903D01*
X119380Y-11900D01*
X119602Y-11903D01*
X119824Y-11911D01*
X120046Y-11925D01*
X120268Y-11944D01*
X120488Y-11968D01*
X120709Y-11998D01*
X120928Y-12033D01*
X121147Y-12074D01*
X121364Y-12120D01*
X121580Y-12171D01*
X121795Y-12228D01*
X122009Y-12290D01*
X122220Y-12357D01*
X122431Y-12429D01*
X122639Y-12507D01*
X122845Y-12589D01*
X123049Y-12677D01*
X123252Y-12769D01*
X123451Y-12867D01*
X123648Y-12969D01*
X123843Y-13076D01*
X124035Y-13188D01*
X124224Y-13305D01*
X124411Y-13426D01*
X124594Y-13552D01*
X124774Y-13682D01*
X124951Y-13817D01*
X125124Y-13955D01*
X125294Y-14098D01*
X125461Y-14246D01*
X125624Y-14397D01*
X125783Y-14552D01*
X125938Y-14711D01*
X126089Y-14874D01*
X126237Y-15041D01*
X126380Y-15211D01*
X126518Y-15384D01*
X126653Y-15561D01*
X126783Y-15741D01*
X126909Y-15924D01*
X127030Y-16111D01*
X127147Y-16300D01*
X127259Y-16492D01*
X127366Y-16687D01*
X127468Y-16884D01*
X127566Y-17083D01*
X127658Y-17286D01*
X127746Y-17490D01*
X127828Y-17696D01*
X127906Y-17904D01*
X127978Y-18115D01*
X128045Y-18326D01*
X128107Y-18540D01*
X128164Y-18755D01*
X128215Y-18971D01*
X128261Y-19188D01*
X128302Y-19407D01*
X128337Y-19626D01*
X128367Y-19847D01*
X128391Y-20067D01*
X128410Y-20289D01*
X128424Y-20511D01*
X128432Y-20733D01*
X128435Y-20955D01*
X128432Y-21177D01*
X128424Y-21399D01*
X128410Y-21621D01*
X128391Y-21843D01*
X128367Y-22063D01*
X128337Y-22284D01*
X128302Y-22503D01*
X128261Y-22722D01*
X128215Y-22939D01*
X128164Y-23155D01*
X128107Y-23370D01*
X128045Y-23584D01*
X127978Y-23795D01*
X127906Y-24006D01*
X127828Y-24214D01*
X127746Y-24420D01*
X127658Y-24624D01*
X127566Y-24827D01*
X127468Y-25026D01*
X127366Y-25223D01*
X127259Y-25418D01*
X127147Y-25610D01*
X127030Y-25799D01*
X126909Y-25986D01*
X126783Y-26169D01*
X126653Y-26349D01*
X126518Y-26526D01*
X126380Y-26699D01*
X126237Y-26869D01*
X126089Y-27036D01*
X125938Y-27199D01*
X125783Y-27358D01*
X125624Y-27513D01*
X125461Y-27664D01*
X125294Y-27812D01*
X125124Y-27955D01*
X124951Y-28093D01*
X124774Y-28228D01*
X124594Y-28358D01*
X124411Y-28484D01*
X124224Y-28605D01*
X124035Y-28722D01*
X123843Y-28834D01*
X123648Y-28941D01*
X123451Y-29043D01*
X123252Y-29141D01*
X123049Y-29233D01*
X122845Y-29321D01*
X122639Y-29403D01*
X122431Y-29481D01*
X122220Y-29553D01*
X122009Y-29620D01*
X121795Y-29682D01*
X121580Y-29739D01*
X121364Y-29790D01*
X121147Y-29836D01*
X120928Y-29877D01*
X120709Y-29912D01*
X120488Y-29942D01*
X120268Y-29966D01*
X120046Y-29985D01*
X119824Y-29999D01*
X119602Y-30007D01*
X119380Y-30010D01*
X119158Y-30007D01*
X118936Y-29999D01*
X118714Y-29985D01*
X118492Y-29966D01*
X118272Y-29942D01*
X118051Y-29912D01*
X117832Y-29877D01*
X117613Y-29836D01*
X117396Y-29790D01*
X117180Y-29739D01*
X116965Y-29682D01*
X116751Y-29620D01*
X116540Y-29553D01*
X116329Y-29481D01*
X116121Y-29403D01*
X115915Y-29321D01*
X115711Y-29233D01*
X115508Y-29141D01*
X115309Y-29043D01*
X115112Y-28941D01*
X114917Y-28834D01*
X114725Y-28722D01*
X114536Y-28605D01*
X114349Y-28484D01*
X114166Y-28358D01*
X113986Y-28228D01*
X113809Y-28093D01*
X113636Y-27955D01*
X113466Y-27812D01*
X113299Y-27664D01*
X113136Y-27513D01*
X112977Y-27358D01*
X112822Y-27199D01*
X112671Y-27036D01*
X112523Y-26869D01*
X112380Y-26699D01*
X112242Y-26526D01*
X112107Y-26349D01*
X111977Y-26169D01*
X111851Y-25986D01*
X111730Y-25799D01*
X111613Y-25610D01*
X111501Y-25418D01*
X111394Y-25223D01*
X111292Y-25026D01*
X111194Y-24827D01*
X111102Y-24624D01*
X111014Y-24420D01*
X110932Y-24214D01*
X110854Y-24006D01*
X110782Y-23795D01*
X110715Y-23584D01*
X110653Y-23370D01*
X110596Y-23155D01*
X110545Y-22939D01*
X110499Y-22722D01*
X110458Y-22503D01*
X110423Y-22284D01*
X110393Y-22063D01*
X110369Y-21843D01*
X110350Y-21621D01*
X110336Y-21399D01*
X110328Y-21177D01*
X110325Y-20955D01*
D15*
X119380Y-20955D03*
M02*
